STARTFONT 2.1
FONT -HP-Gothic-Medium-R-Normal--24-173-100-100-C-240-JISX0208.1990-0
SIZE 17 100 100
FONTBOUNDINGBOX 24 24 0 -2

STARTPROPERTIES 23
FONTNAME_REGISTRY ""
FOUNDRY "HP"
FAMILY_NAME "Gothic"
WEIGHT_NAME "Medium"
SLANT "R"
SETWIDTH_NAME "Normal"
ADD_STYLE_NAME ""
PIXEL_SIZE 24
POINT_SIZE 173
RESOLUTION_X 100
RESOLUTION_Y 100
SPACING "C"
AVERAGE_WIDTH 240
CHARSET_REGISTRY "JISX0208.1990"
CHARSET_ENCODING "0"
COPYRIGHT "Copyright 1994 by Bridge Inc. All rights reserved. Copyright (c) 1994 Hewlett-Packard Company."
_HP_ASXVERSION "@(#) ASX 3.00 $Revision: 13.9 $ got24k"
WEIGHT 10
X_HEIGHT 22
QUAD_WIDTH 24
DEFAULT_CHAR 8751
FONT_DESCENT 2
FONT_ASCENT 22
ENDPROPERTIES

CHARS 6963

STARTCHAR jisx0208_2121
ENCODING 8481
SWIDTH 960 0
DWIDTH 24 0
BBX 24 24 0 -2
BITMAP
000000
000000
000000
000000
000000
000000
000000
000000
000000
000000
000000
000000
000000
000000
000000
000000
000000
000000
000000
000000
000000
000000
000000
000000
ENDCHAR

STARTCHAR jisx0208_2122
ENCODING 8482
SWIDTH 960 0
DWIDTH 24 0
BBX 24 24 0 -2
BITMAP
000000
000000
000000
000000
000000
000000
000000
000000
000000
000000
000000
000000
000000
000000
000000
000000
000000
100000
380000
1C0000
0E0000
070000
020000
000000
ENDCHAR

STARTCHAR jisx0208_2123
ENCODING 8483
SWIDTH 960 0
DWIDTH 24 0
BBX 24 24 0 -2
BITMAP
000000
000000
000000
000000
000000
000000
000000
000000
000000
000000
000000
000000
000000
000000
000000
000000
0E0000
1F0000
318000
318000
318000
1F0000
0E0000
000000
ENDCHAR

STARTCHAR jisx0208_2124
ENCODING 8484
SWIDTH 960 0
DWIDTH 24 0
BBX 24 24 0 -2
BITMAP
000000
000000
000000
000000
000000
000000
000000
000000
000000
000000
000000
000000
000000
000000
000000
000000
000000
000000
380000
380000
380000
180000
300000
000000
ENDCHAR

STARTCHAR jisx0208_2125
ENCODING 8485
SWIDTH 960 0
DWIDTH 24 0
BBX 24 24 0 -2
BITMAP
000000
000000
000000
000000
000000
000000
000000
000000
000000
000000
000000
000000
000000
000000
000000
000000
000000
000000
380000
380000
380000
000000
000000
000000
ENDCHAR

STARTCHAR jisx0208_2126
ENCODING 8486
SWIDTH 960 0
DWIDTH 24 0
BBX 24 24 0 -2
BITMAP
000000
000000
000000
000000
000000
000000
000000
000000
000000
000000
003C00
003C00
003C00
003C00
000000
000000
000000
000000
000000
000000
000000
000000
000000
000000
ENDCHAR

STARTCHAR jisx0208_2127
ENCODING 8487
SWIDTH 960 0
DWIDTH 24 0
BBX 24 24 0 -2
BITMAP
000000
000000
000000
000000
000000
003800
003800
003800
000000
000000
000000
000000
000000
000000
000000
000000
003800
003800
003800
000000
000000
000000
000000
000000
ENDCHAR

STARTCHAR jisx0208_2128
ENCODING 8488
SWIDTH 960 0
DWIDTH 24 0
BBX 24 24 0 -2
BITMAP
000000
000000
000000
000000
000000
003800
003800
003800
000000
000000
000000
000000
000000
000000
000000
000000
003800
003800
003800
001800
003000
000000
000000
000000
ENDCHAR

STARTCHAR jisx0208_2129
ENCODING 8489
SWIDTH 960 0
DWIDTH 24 0
BBX 24 24 0 -2
BITMAP
000000
000000
000000
00FC00
01FE00
038700
030300
030300
030700
000E00
001C00
003800
003000
003000
003000
003000
000000
000000
003800
003800
003800
000000
000000
000000
ENDCHAR

STARTCHAR jisx0208_212A
ENCODING 8490
SWIDTH 960 0
DWIDTH 24 0
BBX 24 24 0 -2
BITMAP
000000
000000
000000
003800
003800
003800
003800
003800
003800
003800
003800
003800
001000
001000
001000
001000
000000
000000
003800
003800
003800
000000
000000
000000
ENDCHAR

STARTCHAR jisx0208_212B
ENCODING 8491
SWIDTH 960 0
DWIDTH 24 0
BBX 24 24 0 -2
BITMAP
000000
080000
0C0000
240000
300000
100000
000000
000000
000000
000000
000000
000000
000000
000000
000000
000000
000000
000000
000000
000000
000000
000000
000000
000000
ENDCHAR

STARTCHAR jisx0208_212C
ENCODING 8492
SWIDTH 960 0
DWIDTH 24 0
BBX 24 24 0 -2
BITMAP
000000
000000
380000
6C0000
440000
6C0000
380000
000000
000000
000000
000000
000000
000000
000000
000000
000000
000000
000000
000000
000000
000000
000000
000000
000000
ENDCHAR

STARTCHAR jisx0208_212D
ENCODING 8493
SWIDTH 960 0
DWIDTH 24 0
BBX 24 24 0 -2
BITMAP
000000
000E00
007F00
00F000
000000
000000
000000
000000
000000
000000
000000
000000
000000
000000
000000
000000
000000
000000
000000
000000
000000
000000
000000
000000
ENDCHAR

STARTCHAR jisx0208_212E
ENCODING 8494
SWIDTH 960 0
DWIDTH 24 0
BBX 24 24 0 -2
BITMAP
000000
007000
00FE00
000F00
000000
000000
000000
000000
000000
000000
000000
000000
000000
000000
000000
000000
000000
000000
000000
000000
000000
000000
000000
000000
ENDCHAR

STARTCHAR jisx0208_212F
ENCODING 8495
SWIDTH 960 0
DWIDTH 24 0
BBX 24 24 0 -2
BITMAP
000000
00C300
00C300
000000
000000
000000
000000
000000
000000
000000
000000
000000
000000
000000
000000
000000
000000
000000
000000
000000
000000
000000
000000
000000
ENDCHAR

STARTCHAR jisx0208_2130
ENCODING 8496
SWIDTH 960 0
DWIDTH 24 0
BBX 24 24 0 -2
BITMAP
000000
001800
007E00
00E700
000000
000000
000000
000000
000000
000000
000000
000000
000000
000000
000000
000000
000000
000000
000000
000000
000000
000000
000000
000000
ENDCHAR

STARTCHAR jisx0208_2131
ENCODING 8497
SWIDTH 960 0
DWIDTH 24 0
BBX 24 24 0 -2
BITMAP
000000
7FFFFE
7FFFFE
000000
000000
000000
000000
000000
000000
000000
000000
000000
000000
000000
000000
000000
000000
000000
000000
000000
000000
000000
000000
000000
ENDCHAR

STARTCHAR jisx0208_2132
ENCODING 8498
SWIDTH 960 0
DWIDTH 24 0
BBX 24 24 0 -2
BITMAP
000000
000000
000000
000000
000000
000000
000000
000000
000000
000000
000000
000000
000000
000000
000000
000000
000000
000000
000000
000000
000000
7FFFFE
7FFFFE
000000
ENDCHAR

STARTCHAR jisx0208_2133
ENCODING 8499
SWIDTH 960 0
DWIDTH 24 0
BBX 24 24 0 -2
BITMAP
000000
000000
000000
000000
000000
000000
010000
03C000
01E000
007000
003800
001C00
000E00
000700
000300
000380
000100
000000
000000
000000
000000
000000
000000
000000
ENDCHAR

STARTCHAR jisx0208_2134
ENCODING 8500
SWIDTH 960 0
DWIDTH 24 0
BBX 24 24 0 -2
BITMAP
000000
000000
000000
000080
0000C0
000240
010300
03C100
01E000
007000
003800
001C00
000E00
000700
000300
000380
000100
000000
000000
000000
000000
000000
000000
000000
ENDCHAR

STARTCHAR jisx0208_2135
ENCODING 8501
SWIDTH 960 0
DWIDTH 24 0
BBX 24 24 0 -2
BITMAP
000000
000000
000000
000000
000000
018000
03E000
00F000
003800
001C00
000E00
000700
000300
000380
000180
000180
001F80
000F00
000000
000000
000000
000000
000000
000000
ENDCHAR

STARTCHAR jisx0208_2136
ENCODING 8502
SWIDTH 960 0
DWIDTH 24 0
BBX 24 24 0 -2
BITMAP
000000
000000
000000
000040
000060
018120
03E180
00F080
003800
001C00
000E00
000700
000300
000380
000180
000180
001F80
000F00
000000
000000
000000
000000
000000
000000
ENDCHAR

STARTCHAR jisx0208_2137
ENCODING 8503
SWIDTH 960 0
DWIDTH 24 0
BBX 24 24 0 -2
BITMAP
000000
000000
000000
000000
000000
000000
003180
003180
003180
003180
006300
006300
006300
00C600
00C600
018C00
018C00
000000
000000
000000
000000
000000
000000
000000
ENDCHAR

STARTCHAR jisx0208_2138
ENCODING 8504
SWIDTH 960 0
DWIDTH 24 0
BBX 24 24 0 -2
BITMAP
000000
001800
003C00
007E00
00E700
01C380
0381C0
0700E0
1E0078
3C003C
70000E
200004
07FFE0
07FFE0
001800
001800
001800
001800
001800
001800
3FFFFC
3FFFFC
000000
000000
ENDCHAR

STARTCHAR jisx0208_2139
ENCODING 8505
SWIDTH 960 0
DWIDTH 24 0
BBX 24 24 0 -2
BITMAP
000000
000000
006000
006000
006000
00C020
00FFF0
01FFF8
018030
038070
070060
0600E0
0E01C0
1C0180
386380
10F700
003E00
000E00
000700
000380
0001C0
000080
000000
000000
ENDCHAR

STARTCHAR jisx0208_213A
ENCODING 8506
SWIDTH 960 0
DWIDTH 24 0
BBX 24 24 0 -2
BITMAP
000000
000000
000008
00001C
000038
000070
0000E0
0001C0
03C380
07F700
0E3E00
0C1F00
1C3BC0
1871E0
186070
38E020
31C000
338000
370000
3E0000
1C0000
000000
000000
000000
ENDCHAR

STARTCHAR jisx0208_213B
ENCODING 8507
SWIDTH 960 0
DWIDTH 24 0
BBX 24 24 0 -2
BITMAP
000000
000000
00FF00
03FFC0
0700E0
0C0030
180018
180018
30000C
30000C
30000C
30000C
30000C
30000C
30000C
30000C
180018
180018
0C0030
0700E0
03FFC0
00FF00
000000
000000
ENDCHAR

STARTCHAR jisx0208_213C
ENCODING 8508
SWIDTH 960 0
DWIDTH 24 0
BBX 24 24 0 -2
BITMAP
000000
000000
000000
000000
000000
000000
000000
000000
000000
000000
000000
1FFFF8
1FFFF8
000000
000000
000000
000000
000000
000000
000000
000000
000000
000000
000000
ENDCHAR

STARTCHAR jisx0208_213D
ENCODING 8509
SWIDTH 960 0
DWIDTH 24 0
BBX 24 24 0 -2
BITMAP
000000
000000
000000
000000
000000
000000
000000
000000
000000
000000
000000
7FFFFE
7FFFFE
000000
000000
000000
000000
000000
000000
000000
000000
000000
000000
000000
ENDCHAR

STARTCHAR jisx0208_213E
ENCODING 8510
SWIDTH 960 0
DWIDTH 24 0
BBX 24 24 0 -2
BITMAP
000000
000000
000000
000000
000000
000000
000000
000000
000000
000000
000000
007E00
007E00
000000
000000
000000
000000
000000
000000
000000
000000
000000
000000
000000
ENDCHAR

STARTCHAR jisx0208_213F
ENCODING 8511
SWIDTH 960 0
DWIDTH 24 0
BBX 24 24 0 -2
BITMAP
000000
000004
00000E
00001C
000038
000070
0000E0
0001C0
000380
000700
000E00
001C00
003800
007000
00E000
01C000
038000
070000
0E0000
1C0000
380000
700000
200000
000000
ENDCHAR

STARTCHAR jisx0208_2140
ENCODING 8512
SWIDTH 960 0
DWIDTH 24 0
BBX 24 24 0 -2
BITMAP
000000
200000
700000
380000
1C0000
0E0000
070000
038000
01C000
00E000
007000
003800
001C00
000E00
000700
000380
0001C0
0000E0
000070
000038
00001C
00000E
000004
000000
ENDCHAR

STARTCHAR jisx0208_2141
ENCODING 8513
SWIDTH 960 0
DWIDTH 24 0
BBX 24 24 0 -2
BITMAP
000000
000000
000000
000000
000000
000000
000000
000000
000000
03C004
0FF00E
1C381C
381C38
700FF0
2003C0
000000
000000
000000
000000
000000
000000
000000
000000
000000
ENDCHAR

STARTCHAR jisx0208_2142
ENCODING 8514
SWIDTH 960 0
DWIDTH 24 0
BBX 24 24 0 -2
BITMAP
000000
018180
018180
018180
018180
018180
018180
018180
018180
018180
018180
018180
018180
018180
018180
018180
018180
018180
018180
018180
018180
018180
018180
000000
ENDCHAR

STARTCHAR jisx0208_2143
ENCODING 8515
SWIDTH 960 0
DWIDTH 24 0
BBX 24 24 0 -2
BITMAP
000000
001800
001800
001800
001800
001800
001800
001800
001800
001800
001800
001800
001800
001800
001800
001800
001800
001800
001800
001800
001800
001800
001800
000000
ENDCHAR

STARTCHAR jisx0208_2144
ENCODING 8516
SWIDTH 960 0
DWIDTH 24 0
BBX 24 24 0 -2
BITMAP
000000
000000
000000
000000
000000
000000
000000
000000
000000
000000
1C3870
1C3870
1C3870
000000
000000
000000
000000
000000
000000
000000
000000
000000
000000
000000
ENDCHAR

STARTCHAR jisx0208_2145
ENCODING 8517
SWIDTH 960 0
DWIDTH 24 0
BBX 24 24 0 -2
BITMAP
000000
000000
000000
000000
000000
000000
000000
000000
000000
000000
0700E0
0700E0
0700E0
000000
000000
000000
000000
000000
000000
000000
000000
000000
000000
000000
ENDCHAR

STARTCHAR jisx0208_2146
ENCODING 8518
SWIDTH 960 0
DWIDTH 24 0
BBX 24 24 0 -2
BITMAP
000000
00000C
000018
00001C
00001C
00001C
000000
000000
000000
000000
000000
000000
000000
000000
000000
000000
000000
000000
000000
000000
000000
000000
000000
000000
ENDCHAR

STARTCHAR jisx0208_2147
ENCODING 8519
SWIDTH 960 0
DWIDTH 24 0
BBX 24 24 0 -2
BITMAP
000000
380000
380000
380000
180000
300000
000000
000000
000000
000000
000000
000000
000000
000000
000000
000000
000000
000000
000000
000000
000000
000000
000000
000000
ENDCHAR

STARTCHAR jisx0208_2148
ENCODING 8520
SWIDTH 960 0
DWIDTH 24 0
BBX 24 24 0 -2
BITMAP
000000
0000CC
000198
0001DC
0001DC
0001DC
000000
000000
000000
000000
000000
000000
000000
000000
000000
000000
000000
000000
000000
000000
000000
000000
000000
000000
ENDCHAR

STARTCHAR jisx0208_2149
ENCODING 8521
SWIDTH 960 0
DWIDTH 24 0
BBX 24 24 0 -2
BITMAP
000000
3B8000
3B8000
3B8000
198000
330000
000000
000000
000000
000000
000000
000000
000000
000000
000000
000000
000000
000000
000000
000000
000000
000000
000000
000000
ENDCHAR

STARTCHAR jisx0208_214A
ENCODING 8522
SWIDTH 960 0
DWIDTH 24 0
BBX 24 24 0 -2
BITMAP
000000
000004
00000C
00001C
000038
000030
000070
000060
0000E0
0000C0
0000C0
0000C0
0000C0
0000C0
0000C0
0000E0
000060
000070
000030
000038
00001C
00000C
000004
000000
ENDCHAR

STARTCHAR jisx0208_214B
ENCODING 8523
SWIDTH 960 0
DWIDTH 24 0
BBX 24 24 0 -2
BITMAP
000000
200000
300000
380000
1C0000
0C0000
0E0000
060000
070000
030000
030000
030000
030000
030000
030000
070000
060000
0E0000
0C0000
1C0000
380000
300000
200000
000000
ENDCHAR

STARTCHAR jisx0208_214C
ENCODING 8524
SWIDTH 960 0
DWIDTH 24 0
BBX 24 24 0 -2
BITMAP
000000
00000C
00003C
0000F0
0000C0
0000C0
0000C0
0000C0
0000C0
0000C0
0000C0
0000C0
0000C0
0000C0
0000C0
0000C0
0000C0
0000C0
0000C0
0000C0
0000F0
00003C
00000C
000000
ENDCHAR

STARTCHAR jisx0208_214D
ENCODING 8525
SWIDTH 960 0
DWIDTH 24 0
BBX 24 24 0 -2
BITMAP
000000
300000
3C0000
0F0000
030000
030000
030000
030000
030000
030000
030000
030000
030000
030000
030000
030000
030000
030000
030000
030000
0F0000
3C0000
300000
000000
ENDCHAR

STARTCHAR jisx0208_214E
ENCODING 8526
SWIDTH 960 0
DWIDTH 24 0
BBX 24 24 0 -2
BITMAP
000000
0000FC
0000FC
0000C0
0000C0
0000C0
0000C0
0000C0
0000C0
0000C0
0000C0
0000C0
0000C0
0000C0
0000C0
0000C0
0000C0
0000C0
0000C0
0000C0
0000C0
0000FC
0000FC
000000
ENDCHAR

STARTCHAR jisx0208_214F
ENCODING 8527
SWIDTH 960 0
DWIDTH 24 0
BBX 24 24 0 -2
BITMAP
000000
3F0000
3F0000
030000
030000
030000
030000
030000
030000
030000
030000
030000
030000
030000
030000
030000
030000
030000
030000
030000
030000
3F0000
3F0000
000000
ENDCHAR

STARTCHAR jisx0208_2150
ENCODING 8528
SWIDTH 960 0
DWIDTH 24 0
BBX 24 24 0 -2
BITMAP
000000
00001C
00003C
000070
000060
000060
000060
000060
000060
000060
000060
0001C0
0001C0
000060
000060
000060
000060
000060
000060
000060
000070
00003C
00001C
000000
ENDCHAR

STARTCHAR jisx0208_2151
ENCODING 8529
SWIDTH 960 0
DWIDTH 24 0
BBX 24 24 0 -2
BITMAP
000000
380000
3C0000
0E0000
060000
060000
060000
060000
060000
060000
060000
038000
038000
060000
060000
060000
060000
060000
060000
060000
0E0000
3C0000
380000
000000
ENDCHAR

STARTCHAR jisx0208_2152
ENCODING 8530
SWIDTH 960 0
DWIDTH 24 0
BBX 24 24 0 -2
BITMAP
000000
00000C
00000C
000018
000018
000030
000030
000060
000060
0000C0
0000C0
000180
000180
0000C0
0000C0
000060
000060
000030
000030
000018
000018
00000C
00000C
000000
ENDCHAR

STARTCHAR jisx0208_2153
ENCODING 8531
SWIDTH 960 0
DWIDTH 24 0
BBX 24 24 0 -2
BITMAP
000000
300000
300000
180000
180000
0C0000
0C0000
060000
060000
030000
030000
018000
018000
030000
030000
060000
060000
0C0000
0C0000
180000
180000
300000
300000
000000
ENDCHAR

STARTCHAR jisx0208_2154
ENCODING 8532
SWIDTH 960 0
DWIDTH 24 0
BBX 24 24 0 -2
BITMAP
000000
000066
000066
0000CC
0000CC
000198
000198
000330
000330
000660
000660
000CC0
000CC0
000660
000660
000330
000330
000198
000198
0000CC
0000CC
000066
000066
000000
ENDCHAR

STARTCHAR jisx0208_2155
ENCODING 8533
SWIDTH 960 0
DWIDTH 24 0
BBX 24 24 0 -2
BITMAP
000000
660000
660000
330000
330000
198000
198000
0CC000
0CC000
066000
066000
033000
033000
066000
066000
0CC000
0CC000
198000
198000
330000
330000
660000
660000
000000
ENDCHAR

STARTCHAR jisx0208_2156
ENCODING 8534
SWIDTH 960 0
DWIDTH 24 0
BBX 24 24 0 -2
BITMAP
000000
0003FC
0003FC
000300
000300
000300
000300
000300
000300
000300
000300
000300
000300
000300
000300
000300
000300
000300
000300
000300
000300
000300
000300
000000
ENDCHAR

STARTCHAR jisx0208_2157
ENCODING 8535
SWIDTH 960 0
DWIDTH 24 0
BBX 24 24 0 -2
BITMAP
000000
00C000
00C000
00C000
00C000
00C000
00C000
00C000
00C000
00C000
00C000
00C000
00C000
00C000
00C000
00C000
00C000
00C000
00C000
00C000
00C000
3FC000
3FC000
000000
ENDCHAR

STARTCHAR jisx0208_2158
ENCODING 8536
SWIDTH 960 0
DWIDTH 24 0
BBX 24 24 0 -2
BITMAP
000000
0007FC
0007FC
00060C
00060C
00067C
00067C
000660
000660
000660
000660
000660
000660
000660
000660
000660
000660
000660
000660
000660
000660
0007E0
0007E0
000000
ENDCHAR

STARTCHAR jisx0208_2159
ENCODING 8537
SWIDTH 960 0
DWIDTH 24 0
BBX 24 24 0 -2
BITMAP
000000
07E000
07E000
066000
066000
066000
066000
066000
066000
066000
066000
066000
066000
066000
066000
066000
066000
3E6000
3E6000
306000
306000
3FE000
3FE000
000000
ENDCHAR

STARTCHAR jisx0208_215A
ENCODING 8538
SWIDTH 960 0
DWIDTH 24 0
BBX 24 24 0 -2
BITMAP
000000
0000FC
0000F8
0000F0
0000F0
0000E0
0000E0
0000E0
0000C0
0000C0
0000C0
0000C0
0000C0
0000C0
0000C0
0000C0
0000E0
0000E0
0000E0
0000F0
0000F0
0000F8
0000FC
000000
ENDCHAR

STARTCHAR jisx0208_215B
ENCODING 8539
SWIDTH 960 0
DWIDTH 24 0
BBX 24 24 0 -2
BITMAP
000000
3F0000
1F0000
0F0000
0F0000
070000
070000
070000
030000
030000
030000
030000
030000
030000
030000
030000
070000
070000
070000
0F0000
0F0000
1F0000
3F0000
000000
ENDCHAR

STARTCHAR jisx0208_215C
ENCODING 8540
SWIDTH 960 0
DWIDTH 24 0
BBX 24 24 0 -2
BITMAP
000000
000000
000000
000000
001800
001800
001800
001800
001800
001800
001800
0FFFF0
0FFFF0
001800
001800
001800
001800
001800
001800
001800
000000
000000
000000
000000
ENDCHAR

STARTCHAR jisx0208_215D
ENCODING 8541
SWIDTH 960 0
DWIDTH 24 0
BBX 24 24 0 -2
BITMAP
000000
000000
000000
000000
000000
000000
000000
000000
000000
000000
000000
0FFFF0
0FFFF0
000000
000000
000000
000000
000000
000000
000000
000000
000000
000000
000000
ENDCHAR

STARTCHAR jisx0208_215E
ENCODING 8542
SWIDTH 960 0
DWIDTH 24 0
BBX 24 24 0 -2
BITMAP
000000
000000
000000
000000
001800
001800
001800
001800
001800
0FFFF0
0FFFF0
001800
001800
001800
001800
001800
000000
000000
0FFFF0
0FFFF0
000000
000000
000000
000000
ENDCHAR

STARTCHAR jisx0208_215F
ENCODING 8543
SWIDTH 960 0
DWIDTH 24 0
BBX 24 24 0 -2
BITMAP
000000
000000
000000
000000
000000
020040
0700E0
0381C0
01C380
00E700
007E00
003C00
003C00
007E00
00E700
01C380
0381C0
0700E0
020040
000000
000000
000000
000000
000000
ENDCHAR

STARTCHAR jisx0208_2160
ENCODING 8544
SWIDTH 960 0
DWIDTH 24 0
BBX 24 24 0 -2
BITMAP
000000
000000
000000
000000
000000
003800
003800
003800
000000
000000
000000
1FFFF0
1FFFF0
000000
000000
000000
003800
003800
003800
000000
000000
000000
000000
000000
ENDCHAR

STARTCHAR jisx0208_2161
ENCODING 8545
SWIDTH 960 0
DWIDTH 24 0
BBX 24 24 0 -2
BITMAP
000000
000000
000000
000000
000000
000000
000000
000000
0FFFF0
0FFFF0
000000
000000
000000
000000
0FFFF0
0FFFF0
000000
000000
000000
000000
000000
000000
000000
000000
ENDCHAR

STARTCHAR jisx0208_2162
ENCODING 8546
SWIDTH 960 0
DWIDTH 24 0
BBX 24 24 0 -2
BITMAP
000000
000000
000000
000000
000180
000300
000300
000600
0FFFF0
0FFFF0
000C00
001800
001800
003000
0FFFF0
0FFFF0
006000
00C000
00C000
018000
000000
000000
000000
000000
ENDCHAR

STARTCHAR jisx0208_2163
ENCODING 8547
SWIDTH 960 0
DWIDTH 24 0
BBX 24 24 0 -2
BITMAP
000000
000000
000000
000000
000030
0000F0
0003C0
000F00
003C00
00F000
03C000
0F0000
0F0000
03C000
00F000
003C00
000F00
0003C0
0000F0
000030
000000
000000
000000
000000
ENDCHAR

STARTCHAR jisx0208_2164
ENCODING 8548
SWIDTH 960 0
DWIDTH 24 0
BBX 24 24 0 -2
BITMAP
000000
000000
000000
000000
0C0000
0F0000
03C000
00F000
003C00
000F00
0003C0
0000F0
0000F0
0003C0
000F00
003C00
00F000
03C000
0F0000
0C0000
000000
000000
000000
000000
ENDCHAR

STARTCHAR jisx0208_2165
ENCODING 8549
SWIDTH 960 0
DWIDTH 24 0
BBX 24 24 0 -2
BITMAP
000000
000000
000000
000070
0007F0
003F80
01F800
0FC000
0FC000
01F800
003F80
0007F0
000070
000000
000000
0FFFF0
0FFFF0
000000
000000
0FFFF0
0FFFF0
000000
000000
000000
ENDCHAR

STARTCHAR jisx0208_2166
ENCODING 8550
SWIDTH 960 0
DWIDTH 24 0
BBX 24 24 0 -2
BITMAP
000000
000000
000000
0E0000
0FE000
01FC00
001F80
0003F0
0003F0
001F80
01FC00
0FE000
0E0000
000000
000000
0FFFF0
0FFFF0
000000
000000
0FFFF0
0FFFF0
000000
000000
000000
ENDCHAR

STARTCHAR jisx0208_2167
ENCODING 8551
SWIDTH 960 0
DWIDTH 24 0
BBX 24 24 0 -2
BITMAP
000000
000000
000000
000000
000000
000000
0F00F0
3FC3FC
30E70C
607E06
603C06
601806
603C06
607E06
30E70C
3FC3FC
0F00F0
000000
000000
000000
000000
000000
000000
000000
ENDCHAR

STARTCHAR jisx0208_2168
ENCODING 8552
SWIDTH 960 0
DWIDTH 24 0
BBX 24 24 0 -2
BITMAP
000000
000000
000000
000000
001800
003C00
003C00
001800
000000
000000
000000
000000
000000
000000
000000
000000
0C0030
1E0078
1E0078
0C0030
000000
000000
000000
000000
ENDCHAR

STARTCHAR jisx0208_2169
ENCODING 8553
SWIDTH 960 0
DWIDTH 24 0
BBX 24 24 0 -2
BITMAP
000000
000000
000FFC
000FFC
00003C
00007C
0000EC
0001CC
00038C
00070C
03CE0C
0FFC0C
1C3800
181800
300C00
300C00
300C00
300C00
181800
1C3800
0FF000
03C000
000000
000000
ENDCHAR

STARTCHAR jisx0208_216A
ENCODING 8554
SWIDTH 960 0
DWIDTH 24 0
BBX 24 24 0 -2
BITMAP
000000
000000
003C00
00FF00
01C380
018180
0300C0
0300C0
0300C0
0300C0
018180
01C380
00FF00
003C00
001800
001800
07FFE0
07FFE0
001800
001800
001800
001800
000000
000000
ENDCHAR

STARTCHAR jisx0208_216B
ENCODING 8555
SWIDTH 960 0
DWIDTH 24 0
BBX 24 24 0 -2
BITMAP
000000
380000
6C0000
440000
6C0000
380000
000000
000000
000000
000000
000000
000000
000000
000000
000000
000000
000000
000000
000000
000000
000000
000000
000000
000000
ENDCHAR

STARTCHAR jisx0208_216C
ENCODING 8556
SWIDTH 960 0
DWIDTH 24 0
BBX 24 24 0 -2
BITMAP
000000
180000
180000
300000
300000
600000
600000
000000
000000
000000
000000
000000
000000
000000
000000
000000
000000
000000
000000
000000
000000
000000
000000
000000
ENDCHAR

STARTCHAR jisx0208_216D
ENCODING 8557
SWIDTH 960 0
DWIDTH 24 0
BBX 24 24 0 -2
BITMAP
000000
1B0000
1B0000
360000
360000
6C0000
6C0000
000000
000000
000000
000000
000000
000000
000000
000000
000000
000000
000000
000000
000000
000000
000000
000000
000000
ENDCHAR

STARTCHAR jisx0208_216E
ENCODING 8558
SWIDTH 960 0
DWIDTH 24 0
BBX 24 24 0 -2
BITMAP
000000
1C0000
360000
220F80
363FE0
1C7070
00C038
00C018
018000
018000
018000
018000
018000
018000
01800C
01800C
00C018
00C018
007070
003FE0
000F80
000000
000000
000000
ENDCHAR

STARTCHAR jisx0208_216F
ENCODING 8559
SWIDTH 960 0
DWIDTH 24 0
BBX 24 24 0 -2
BITMAP
000000
000000
000000
060060
0300C0
0300C0
018180
018180
00C300
00C300
006600
006600
03FFC0
03FFC0
001800
001800
03FFC0
03FFC0
001800
001800
001800
000000
000000
000000
ENDCHAR

STARTCHAR jisx0208_2170
ENCODING 8560
SWIDTH 960 0
DWIDTH 24 0
BBX 24 24 0 -2
BITMAP
000000
001800
001800
00FE00
03FF80
031980
0618C0
0618C0
061800
039800
01F800
007E00
001F80
0019C0
001860
061860
061860
031860
0398C0
01FFC0
007F00
001800
001800
000000
ENDCHAR

STARTCHAR jisx0208_2171
ENCODING 8561
SWIDTH 960 0
DWIDTH 24 0
BBX 24 24 0 -2
BITMAP
000000
000000
000000
000000
000000
000100
000180
000300
003F00
00FF00
01C780
018DC0
030CC0
031800
031800
033000
0330C0
01E1C0
01E380
00FF00
00FC00
018000
008000
000000
ENDCHAR

STARTCHAR jisx0208_2172
ENCODING 8562
SWIDTH 960 0
DWIDTH 24 0
BBX 24 24 0 -2
BITMAP
000000
000000
000000
001F80
003FC0
0070E0
006060
006060
006000
006000
07FF80
07FF80
003000
003000
003000
07B000
0FF000
0C7030
0C3870
0FFFE0
07E7C0
000000
000000
000000
ENDCHAR

STARTCHAR jisx0208_2173
ENCODING 8563
SWIDTH 960 0
DWIDTH 24 0
BBX 24 24 0 -2
BITMAP
000000
000000
000000
070040
1FC0E0
18C1C0
306180
306300
306700
18C600
1FCC00
071C00
0038E0
0033F8
006318
00E60C
00C60C
01860C
038318
0703F8
0200E0
000000
000000
000000
ENDCHAR

STARTCHAR jisx0208_2174
ENCODING 8564
SWIDTH 960 0
DWIDTH 24 0
BBX 24 24 0 -2
BITMAP
000000
000000
000000
006180
006180
006180
006180
006180
07FFF0
07FFF0
00C300
00C300
00C300
00C300
0FFFE0
0FFFE0
018600
018600
018600
018600
018600
000000
000000
000000
ENDCHAR

STARTCHAR jisx0208_2175
ENCODING 8565
SWIDTH 960 0
DWIDTH 24 0
BBX 24 24 0 -2
BITMAP
000000
000000
000000
007000
00F800
018C00
018C00
018C00
019800
00F000
00E000
01F000
03B800
031860
060C60
060EC0
0607C0
060380
0307C0
03FEE0
00F840
000000
000000
000000
ENDCHAR

STARTCHAR jisx0208_2176
ENCODING 8566
SWIDTH 960 0
DWIDTH 24 0
BBX 24 24 0 -2
BITMAP
000000
000000
000000
000000
000000
001800
001800
011880
0399C0
03DBC0
00FF00
003C00
003C00
00FF00
03DBC0
0399C0
011880
001800
001800
000000
000000
000000
000000
000000
ENDCHAR

STARTCHAR jisx0208_2177
ENCODING 8567
SWIDTH 960 0
DWIDTH 24 0
BBX 24 24 0 -2
BITMAP
000000
000000
00FF00
03FFC0
0781E0
0E0070
1C0038
183D98
38FF9C
30C38C
31818C
31818C
31830C
318318
31C738
38FFF0
187DE0
1C0000
0E0000
078180
03FFC0
00FF00
000000
000000
ENDCHAR

STARTCHAR jisx0208_2178
ENCODING 8568
SWIDTH 960 0
DWIDTH 24 0
BBX 24 24 0 -2
BITMAP
000000
007E00
00FF00
01C380
018180
018000
01C000
00E000
00F800
01DE00
018700
018380
01C180
00E180
007B80
001F00
000700
000380
000180
018180
01C380
00FF00
007E00
000000
ENDCHAR

STARTCHAR jisx0208_2179
ENCODING 8569
SWIDTH 960 0
DWIDTH 24 0
BBX 24 24 0 -2
BITMAP
000000
000000
001800
001800
003C00
003C00
003C00
006600
006600
3FE7FC
1FC3F8
0E0070
0700E0
0381C0
018180
0300C0
0318C0
037EC0
07E7E0
0781E0
0E0070
0C0030
000000
000000
ENDCHAR

STARTCHAR jisx0208_217A
ENCODING 8570
SWIDTH 960 0
DWIDTH 24 0
BBX 24 24 0 -2
BITMAP
000000
000000
001800
001800
003C00
003C00
003C00
007E00
007E00
3FFFFC
1FFFF8
0FFFF0
07FFE0
03FFC0
01FF80
03FFC0
03FFC0
03FFC0
07E7E0
0781E0
0E0070
0C0030
000000
000000
ENDCHAR

STARTCHAR jisx0208_217B
ENCODING 8571
SWIDTH 960 0
DWIDTH 24 0
BBX 24 24 0 -2
BITMAP
000000
000000
00FF00
03FFC0
0781E0
0E0070
1C0038
180018
38001C
30000C
30000C
30000C
30000C
30000C
30000C
38001C
180018
1C0038
0E0070
0781E0
03FFC0
00FF00
000000
000000
ENDCHAR

STARTCHAR jisx0208_217C
ENCODING 8572
SWIDTH 960 0
DWIDTH 24 0
BBX 24 24 0 -2
BITMAP
000000
000000
00FF00
03FFC0
07FFE0
0FFFF0
1FFFF8
1FFFF8
3FFFFC
3FFFFC
3FFFFC
3FFFFC
3FFFFC
3FFFFC
3FFFFC
3FFFFC
1FFFF8
1FFFF8
0FFFF0
07FFE0
03FFC0
00FF00
000000
000000
ENDCHAR

STARTCHAR jisx0208_217D
ENCODING 8573
SWIDTH 960 0
DWIDTH 24 0
BBX 24 24 0 -2
BITMAP
000000
000000
00FF00
03FFC0
0781E0
0E0070
1C3C38
18FF18
39C39C
31818C
3300CC
3300CC
3300CC
3300CC
31818C
39C39C
18FF18
1C3C38
0E0070
0781E0
03FFC0
00FF00
000000
000000
ENDCHAR

STARTCHAR jisx0208_217E
ENCODING 8574
SWIDTH 960 0
DWIDTH 24 0
BBX 24 24 0 -2
BITMAP
000000
001800
003C00
007E00
00E700
01C380
0381C0
0700E0
0E0070
1C0038
38001C
70000E
70000E
38001C
1C0038
0E0070
0700E0
0381C0
01C380
00E700
007E00
003C00
001800
000000
ENDCHAR

STARTCHAR jisx0208_2221
ENCODING 8737
SWIDTH 960 0
DWIDTH 24 0
BBX 24 24 0 -2
BITMAP
000000
001800
003C00
007E00
00FF00
01FF80
03FFC0
07FFE0
0FFFF0
1FFFF8
3FFFFC
7FFFFE
7FFFFE
3FFFFC
1FFFF8
0FFFF0
07FFE0
03FFC0
01FF80
00FF00
007E00
003C00
001800
000000
ENDCHAR

STARTCHAR jisx0208_2222
ENCODING 8738
SWIDTH 960 0
DWIDTH 24 0
BBX 24 24 0 -2
BITMAP
000000
000000
000000
1FFFF8
1FFFF8
180018
180018
180018
180018
180018
180018
180018
180018
180018
180018
180018
180018
180018
180018
1FFFF8
1FFFF8
000000
000000
000000
ENDCHAR

STARTCHAR jisx0208_2223
ENCODING 8739
SWIDTH 960 0
DWIDTH 24 0
BBX 24 24 0 -2
BITMAP
000000
000000
000000
1FFFF8
1FFFF8
1FFFF8
1FFFF8
1FFFF8
1FFFF8
1FFFF8
1FFFF8
1FFFF8
1FFFF8
1FFFF8
1FFFF8
1FFFF8
1FFFF8
1FFFF8
1FFFF8
1FFFF8
1FFFF8
000000
000000
000000
ENDCHAR

STARTCHAR jisx0208_2224
ENCODING 8740
SWIDTH 960 0
DWIDTH 24 0
BBX 24 24 0 -2
BITMAP
000000
000000
000000
001800
001800
003C00
007E00
006600
00C300
00C300
018180
0381C0
0300C0
060060
060060
0C0030
1C0038
180018
3FFFFC
3FFFFC
000000
000000
000000
000000
ENDCHAR

STARTCHAR jisx0208_2225
ENCODING 8741
SWIDTH 960 0
DWIDTH 24 0
BBX 24 24 0 -2
BITMAP
000000
000000
000000
001800
001800
003C00
007E00
007E00
00FF00
00FF00
01FF80
03FFC0
03FFC0
07FFE0
07FFE0
0FFFF0
1FFFF8
1FFFF8
3FFFFC
3FFFFC
000000
000000
000000
000000
ENDCHAR

STARTCHAR jisx0208_2226
ENCODING 8742
SWIDTH 960 0
DWIDTH 24 0
BBX 24 24 0 -2
BITMAP
000000
000000
000000
000000
3FFFFC
3FFFFC
180018
1C0038
0C0030
060060
060060
0300C0
0381C0
018180
00C300
00C300
006600
007E00
003C00
001800
001800
000000
000000
000000
ENDCHAR

STARTCHAR jisx0208_2227
ENCODING 8743
SWIDTH 960 0
DWIDTH 24 0
BBX 24 24 0 -2
BITMAP
000000
000000
000000
000000
3FFFFC
3FFFFC
1FFFF8
1FFFF8
0FFFF0
07FFE0
07FFE0
03FFC0
03FFC0
01FF80
00FF00
00FF00
007E00
007E00
003C00
001800
001800
000000
000000
000000
ENDCHAR

STARTCHAR jisx0208_2228
ENCODING 8744
SWIDTH 960 0
DWIDTH 24 0
BBX 24 24 0 -2
BITMAP
000000
000000
000000
083820
1C3870
0E38E0
0701C0
038380
01C700
00EE00
1C7C70
1C3870
1C7C70
00EE00
01C700
038380
0701C0
0E38E0
1C3870
083820
000000
000000
000000
000000
ENDCHAR

STARTCHAR jisx0208_2229
ENCODING 8745
SWIDTH 960 0
DWIDTH 24 0
BBX 24 24 0 -2
BITMAP
000000
000000
000000
1FFFF0
1FFFF0
1FFFF0
000000
000000
000000
1FFFF0
1FFFF0
1FFFF0
003800
003800
003800
003800
003800
003800
003800
003800
003800
000000
000000
000000
ENDCHAR

STARTCHAR jisx0208_222A
ENCODING 8746
SWIDTH 960 0
DWIDTH 24 0
BBX 24 24 0 -2
BITMAP
000000
000000
000000
000000
000000
000000
000080
0001C0
0000E0
000070
00001C
7FFFFE
7FFFFE
00001C
000070
0000E0
0001C0
000080
000000
000000
000000
000000
000000
000000
ENDCHAR

STARTCHAR jisx0208_222B
ENCODING 8747
SWIDTH 960 0
DWIDTH 24 0
BBX 24 24 0 -2
BITMAP
000000
000000
000000
000000
000000
000000
010000
038000
070000
0E0000
380000
7FFFFE
7FFFFE
380000
0E0000
070000
038000
010000
000000
000000
000000
000000
000000
000000
ENDCHAR

STARTCHAR jisx0208_222C
ENCODING 8748
SWIDTH 960 0
DWIDTH 24 0
BBX 24 24 0 -2
BITMAP
000000
001800
003C00
003C00
007E00
00DB00
01DB80
0399C0
011880
001800
001800
001800
001800
001800
001800
001800
001800
001800
001800
001800
001800
001800
001800
000000
ENDCHAR

STARTCHAR jisx0208_222D
ENCODING 8749
SWIDTH 960 0
DWIDTH 24 0
BBX 24 24 0 -2
BITMAP
000000
001800
001800
001800
001800
001800
001800
001800
001800
001800
001800
001800
001800
001800
001800
011880
0399C0
01DB80
00DB00
007E00
003C00
003C00
001800
000000
ENDCHAR

STARTCHAR jisx0208_222E
ENCODING 8750
SWIDTH 960 0
DWIDTH 24 0
BBX 24 24 0 -2
BITMAP
000000
000000
000000
000000
000000
000000
000000
0FFFF0
0FFFF0
0FFFF0
000000
000000
000000
000000
0FFFF0
0FFFF0
0FFFF0
000000
000000
000000
000000
000000
000000
000000
ENDCHAR

STARTCHAR jisx0208_222F
ENCODING 8751
SWIDTH 960 0
DWIDTH 24 0
BBX 24 24 0 -2
BITMAP
000000
000000
200004
000000
000000
000000
000000
000000
000000
000000
000000
000000
000000
000000
000000
000000
000000
000000
000000
000000
000000
200004
000000
000000
ENDCHAR

STARTCHAR jisx0208_223A
ENCODING 8762
SWIDTH 960 0
DWIDTH 24 0
BBX 24 24 0 -2
BITMAP
000000
000000
000000
000000
000000
01FFF0
07FFF0
0E0000
0C0000
180000
180000
1FFFF0
1FFFF0
180000
180000
0C0000
0E0000
07FFF0
01FFF0
000000
000000
000000
000000
000000
ENDCHAR

STARTCHAR jisx0208_223B
ENCODING 8763
SWIDTH 960 0
DWIDTH 24 0
BBX 24 24 0 -2
BITMAP
000000
000000
000000
000000
000000
0FFF80
0FFFE0
000070
000030
000018
000018
0FFFF8
0FFFF8
000018
000018
000030
000070
0FFFE0
0FFF80
000000
000000
000000
000000
000000
ENDCHAR

STARTCHAR jisx0208_223C
ENCODING 8764
SWIDTH 960 0
DWIDTH 24 0
BBX 24 24 0 -2
BITMAP
000000
000000
000000
000000
00FFF0
03FFF0
070000
060000
0C0000
0C0000
0C0000
0C0000
060000
070000
03FFF0
00FFF0
000000
000000
0FFFF0
0FFFF0
000000
000000
000000
000000
ENDCHAR

STARTCHAR jisx0208_223D
ENCODING 8765
SWIDTH 960 0
DWIDTH 24 0
BBX 24 24 0 -2
BITMAP
000000
000000
000000
000000
0FFF00
0FFFC0
0000E0
000060
000030
000030
000030
000030
000060
0000E0
0FFFC0
0FFF00
000000
000000
0FFFF0
0FFFF0
000000
000000
000000
000000
ENDCHAR

STARTCHAR jisx0208_223E
ENCODING 8766
SWIDTH 960 0
DWIDTH 24 0
BBX 24 24 0 -2
BITMAP
000000
000000
000000
000000
000000
00FFF0
03FFF0
070000
060000
0C0000
0C0000
0C0000
0C0000
0C0000
0C0000
060000
070000
03FFF0
00FFF0
000000
000000
000000
000000
000000
ENDCHAR

STARTCHAR jisx0208_223F
ENCODING 8767
SWIDTH 960 0
DWIDTH 24 0
BBX 24 24 0 -2
BITMAP
000000
000000
000000
000000
000000
0FFF00
0FFFC0
0000E0
000060
000030
000030
000030
000030
000030
000030
000060
0000E0
0FFFC0
0FFF00
000000
000000
000000
000000
000000
ENDCHAR

STARTCHAR jisx0208_2240
ENCODING 8768
SWIDTH 960 0
DWIDTH 24 0
BBX 24 24 0 -2
BITMAP
000000
000000
000000
000000
060060
060060
060060
060060
060060
060060
060060
060060
060060
060060
060060
060060
0300C0
0381C0
01FF80
007E00
000000
000000
000000
000000
ENDCHAR

STARTCHAR jisx0208_2241
ENCODING 8769
SWIDTH 960 0
DWIDTH 24 0
BBX 24 24 0 -2
BITMAP
000000
000000
000000
000000
007E00
01FF80
0381C0
0300C0
060060
060060
060060
060060
060060
060060
060060
060060
060060
060060
060060
060060
000000
000000
000000
000000
ENDCHAR

STARTCHAR jisx0208_224A
ENCODING 8778
SWIDTH 960 0
DWIDTH 24 0
BBX 24 24 0 -2
BITMAP
000000
000000
000000
000000
001800
001800
003C00
003C00
006600
006600
00C300
00C300
018180
018180
0300C0
0300C0
060060
060060
0C0030
0C0030
000000
000000
000000
000000
ENDCHAR

STARTCHAR jisx0208_224B
ENCODING 8779
SWIDTH 960 0
DWIDTH 24 0
BBX 24 24 0 -2
BITMAP
000000
000000
000000
000000
0C0030
0C0030
060060
060060
0300C0
0300C0
018180
018180
00C300
00C300
006600
006600
003C00
003C00
001800
001800
000000
000000
000000
000000
ENDCHAR

STARTCHAR jisx0208_224C
ENCODING 8780
SWIDTH 960 0
DWIDTH 24 0
BBX 24 24 0 -2
BITMAP
000000
000000
000000
000000
000000
000000
000000
000000
000000
1FFFF8
1FFFF8
000018
000018
000018
000018
000018
000000
000000
000000
000000
000000
000000
000000
000000
ENDCHAR

STARTCHAR jisx0208_224D
ENCODING 8781
SWIDTH 960 0
DWIDTH 24 0
BBX 24 24 0 -2
BITMAP
000000
000000
000000
000200
000300
000380
0001C0
0000E0
7FFFF0
7FFFF8
00001C
00000E
00000E
00001C
7FFFF8
7FFFF0
0000E0
0001C0
000380
000300
000200
000000
000000
000000
ENDCHAR

STARTCHAR jisx0208_224E
ENCODING 8782
SWIDTH 960 0
DWIDTH 24 0
BBX 24 24 0 -2
BITMAP
000000
000000
000000
004200
00C300
01C380
0381C0
0700E0
0FFFF0
1FFFF8
38001C
70000E
70000E
38001C
1FFFF8
0FFFF0
0700E0
0381C0
01C380
00C300
004200
000000
000000
000000
ENDCHAR

STARTCHAR jisx0208_224F
ENCODING 8783
SWIDTH 960 0
DWIDTH 24 0
BBX 24 24 0 -2
BITMAP
000000
000000
000000
000000
0C0030
0C0030
060060
07FFE0
03FFC0
0300C0
018180
018180
00C300
00C300
006600
006600
003C00
003C00
001800
001800
000000
000000
000000
000000
ENDCHAR

STARTCHAR jisx0208_2250
ENCODING 8784
SWIDTH 960 0
DWIDTH 24 0
BBX 24 24 0 -2
BITMAP
000000
000000
000000
000000
07FFC0
07FFC0
0000C0
0000C0
0000C0
0000C0
0000C0
07FFC0
07FFC0
0000C0
0000C0
0000C0
0000C0
0000C0
07FFC0
07FFC0
000000
000000
000000
000000
ENDCHAR

STARTCHAR jisx0208_225C
ENCODING 8796
SWIDTH 960 0
DWIDTH 24 0
BBX 24 24 0 -2
BITMAP
000000
000000
000000
000020
000060
0000E0
0001C0
000380
000700
000E00
001C00
001800
003800
007000
00E000
01C000
038000
070000
0FFFF0
0FFFF0
000000
000000
000000
000000
ENDCHAR

STARTCHAR jisx0208_225D
ENCODING 8797
SWIDTH 960 0
DWIDTH 24 0
BBX 24 24 0 -2
BITMAP
000000
000000
000000
000000
001800
001800
001800
001800
001800
001800
001800
001800
001800
001800
001800
001800
001800
001800
0FFFF0
0FFFF0
000000
000000
000000
000000
ENDCHAR

STARTCHAR jisx0208_225E
ENCODING 8798
SWIDTH 960 0
DWIDTH 24 0
BBX 24 24 0 -2
BITMAP
000000
00FF00
07FFE0
1F81F8
3C003C
70000E
200004
000000
000000
000000
000000
000000
000000
000000
000000
000000
000000
000000
000000
000000
000000
000000
000000
000000
ENDCHAR

STARTCHAR jisx0208_225F
ENCODING 8799
SWIDTH 960 0
DWIDTH 24 0
BBX 24 24 0 -2
BITMAP
000000
000000
000000
003C00
00FE00
01C300
008300
000180
000180
003D80
00FF80
01C380
018180
030180
030180
030180
030180
030300
018700
01FE00
007800
000000
000000
000000
ENDCHAR

STARTCHAR jisx0208_2260
ENCODING 8800
SWIDTH 960 0
DWIDTH 24 0
BBX 24 24 0 -2
BITMAP
000000
000000
000000
000000
1FFFF8
1FFFF8
0C0010
0C0030
060020
070060
0300C0
018080
018180
00C100
00E300
006600
003400
003C00
001800
001800
000000
000000
000000
000000
ENDCHAR

STARTCHAR jisx0208_2261
ENCODING 8801
SWIDTH 960 0
DWIDTH 24 0
BBX 24 24 0 -2
BITMAP
000000
000000
000000
000000
000000
000000
000000
0FFFF0
0FFFF0
000000
000000
0FFFF0
0FFFF0
000000
000000
0FFFF0
0FFFF0
000000
000000
000000
000000
000000
000000
000000
ENDCHAR

STARTCHAR jisx0208_2262
ENCODING 8802
SWIDTH 960 0
DWIDTH 24 0
BBX 24 24 0 -2
BITMAP
000000
000000
000000
000000
01C000
01C000
01C000
000000
000000
0FFFF0
0FFFF0
000000
000000
0FFFF0
0FFFF0
000000
000000
000380
000380
000380
000000
000000
000000
000000
ENDCHAR

STARTCHAR jisx0208_2263
ENCODING 8803
SWIDTH 960 0
DWIDTH 24 0
BBX 24 24 0 -2
BITMAP
000000
000000
000000
000820
001C70
0038E0
0071C0
00E380
01C700
038E00
071C00
0E3800
0E3800
071C00
038E00
01C700
00E380
0071C0
0038E0
001C70
000820
000000
000000
000000
ENDCHAR

STARTCHAR jisx0208_2264
ENCODING 8804
SWIDTH 960 0
DWIDTH 24 0
BBX 24 24 0 -2
BITMAP
000000
000000
000000
041000
0E3800
071C00
038E00
01C700
00E380
0071C0
0038E0
001C70
001C70
0038E0
0071C0
00E380
01C700
038E00
071C00
0E3800
041000
000000
000000
000000
ENDCHAR

STARTCHAR jisx0208_2265
ENCODING 8805
SWIDTH 960 0
DWIDTH 24 0
BBX 24 24 0 -2
BITMAP
000000
000FFE
000FFE
000C00
001800
001800
001800
001800
003000
003000
003000
006000
006000
0C6000
1C6000
3EC000
76C000
23C000
038000
018000
018000
000000
000000
000000
ENDCHAR

STARTCHAR jisx0208_2266
ENCODING 8806
SWIDTH 960 0
DWIDTH 24 0
BBX 24 24 0 -2
BITMAP
000000
000000
000000
000000
000000
000000
0E00F0
3F83FC
31C70C
608E06
601C06
601806
603806
607106
30E38C
3FC1FC
0F0070
000000
000000
000000
000000
000000
000000
000000
ENDCHAR

STARTCHAR jisx0208_2267
ENCODING 8807
SWIDTH 960 0
DWIDTH 24 0
BBX 24 24 0 -2
BITMAP
000000
000000
000000
000000
000000
000000
0F00F0
3FC3FC
30E70C
607E00
603C00
601800
603C00
607E00
30E70C
3FC3FC
0F00F0
000000
000000
000000
000000
000000
000000
000000
ENDCHAR

STARTCHAR jisx0208_2268
ENCODING 8808
SWIDTH 960 0
DWIDTH 24 0
BBX 24 24 0 -2
BITMAP
000000
000000
000000
000000
0C0030
1E0078
1E0078
0C0030
000000
000000
000000
000000
000000
000000
000000
000000
001800
003C00
003C00
001800
000000
000000
000000
000000
ENDCHAR

STARTCHAR jisx0208_2269
ENCODING 8809
SWIDTH 960 0
DWIDTH 24 0
BBX 24 24 0 -2
BITMAP
000000
001E00
003F00
007380
006100
006000
006000
003000
003000
003000
003000
003000
001800
001800
001800
001800
001800
000C00
000C00
010C00
039C00
01F800
00F000
000000
ENDCHAR

STARTCHAR jisx0208_226A
ENCODING 8810
SWIDTH 960 0
DWIDTH 24 0
BBX 24 24 0 -2
BITMAP
000000
01E0F0
03F1F8
073B9C
061308
060300
060300
030180
030180
030180
030180
030180
0180C0
0180C0
0180C0
0180C0
0180C0
00C060
00C060
10C860
39DCE0
1F8FC0
0F0780
000000
ENDCHAR

STARTCHAR jisx0208_2272
ENCODING 8818
SWIDTH 960 0
DWIDTH 24 0
BBX 24 24 0 -2
BITMAP
000000
001800
002400
002400
001800
000000
001800
003C00
003C00
006600
006600
00C300
00C300
018180
018180
03FFC0
03FFC0
060060
060060
0C0030
0C0030
000000
000000
000000
ENDCHAR

STARTCHAR jisx0208_2273
ENCODING 8819
SWIDTH 960 0
DWIDTH 24 0
BBX 24 24 0 -2
BITMAP
000000
000000
000000
1C0800
3E1C00
631800
633000
633000
3E6000
1CE000
00C000
018000
018000
030000
073838
067C7C
0CC6C6
0CC6C6
18C6C6
387C7C
103838
000000
000000
000000
ENDCHAR

STARTCHAR jisx0208_2274
ENCODING 8820
SWIDTH 960 0
DWIDTH 24 0
BBX 24 24 0 -2
BITMAP
000000
000000
000180
000180
018180
018180
0181F0
01FFF0
0FFF80
0F8180
018180
018180
018180
018180
0181F0
01FFF0
0FFF80
0F8180
018180
018180
018000
018000
000000
000000
ENDCHAR

STARTCHAR jisx0208_2275
ENCODING 8821
SWIDTH 960 0
DWIDTH 24 0
BBX 24 24 0 -2
BITMAP
000000
000000
00C000
00C000
00C000
00C000
00C000
00C000
00C000
00DF00
00FF80
00E1C0
00C0C0
00C0C0
00C0C0
00C1C0
00C380
00C700
00DE00
00FC00
00F000
00C000
000000
000000
ENDCHAR

STARTCHAR jisx0208_2276
ENCODING 8822
SWIDTH 960 0
DWIDTH 24 0
BBX 24 24 0 -2
BITMAP
000000
000000
001800
001C00
001E00
001F00
001B80
0019C0
0018C0
0018E0
001860
001860
001860
0018E0
0018C0
0019C0
001B80
00F900
01F800
03F800
03F000
01E000
000000
000000
ENDCHAR

STARTCHAR jisx0208_2277
ENCODING 8823
SWIDTH 960 0
DWIDTH 24 0
BBX 24 24 0 -2
BITMAP
000000
001000
003800
003800
001000
019300
03FF80
019300
001000
003800
003800
003800
003800
001000
001000
001000
001000
001000
001000
001000
003800
003800
003800
000000
ENDCHAR

STARTCHAR jisx0208_2278
ENCODING 8824
SWIDTH 960 0
DWIDTH 24 0
BBX 24 24 0 -2
BITMAP
000000
001000
003800
003800
001000
019300
03FF80
019300
001000
003800
003800
001000
001000
003800
003800
001000
019300
03FF80
019300
001000
003800
003800
001000
000000
ENDCHAR

STARTCHAR jisx0208_2279
ENCODING 8825
SWIDTH 960 0
DWIDTH 24 0
BBX 24 24 0 -2
BITMAP
000000
007FC0
01FFC0
01F980
03F980
03F980
03F980
03F980
01F980
01F980
007980
001980
001980
001980
001980
001980
001980
001980
001980
001980
001980
001980
001980
000000
ENDCHAR

STARTCHAR jisx0208_227E
ENCODING 8830
SWIDTH 960 0
DWIDTH 24 0
BBX 24 24 0 -2
BITMAP
000000
00FF00
03FFC0
0781E0
0E0070
1C0038
38001C
30000C
70000E
600006
600006
600006
600006
600006
600006
70000E
30000C
38001C
1C0038
0E0070
0781E0
03FFC0
00FF00
000000
ENDCHAR

STARTCHAR jisx0208_2330
ENCODING 9008
SWIDTH 960 0
DWIDTH 24 0
BBX 24 24 0 -2
BITMAP
000000
000000
000000
007E00
01FF80
0381C0
0300C0
060060
060060
060060
060060
060060
060060
060060
060060
060060
060060
0300C0
0381C0
01FF80
007E00
000000
000000
000000
ENDCHAR

STARTCHAR jisx0208_2331
ENCODING 9009
SWIDTH 960 0
DWIDTH 24 0
BBX 24 24 0 -2
BITMAP
000000
000000
000000
001800
007800
01F800
019800
001800
001800
001800
001800
001800
001800
001800
001800
001800
001800
001800
001800
001800
001800
000000
000000
000000
ENDCHAR

STARTCHAR jisx0208_2332
ENCODING 9010
SWIDTH 960 0
DWIDTH 24 0
BBX 24 24 0 -2
BITMAP
000000
000000
000000
007C00
01FF00
038380
030180
0600C0
0600C0
0000C0
000180
000380
000F00
003C00
00F000
01C000
038000
030000
060000
07FFC0
07FFC0
000000
000000
000000
ENDCHAR

STARTCHAR jisx0208_2333
ENCODING 9011
SWIDTH 960 0
DWIDTH 24 0
BBX 24 24 0 -2
BITMAP
000000
000000
000000
00FE00
03FF80
030180
0600C0
0600C0
0000C0
000180
007F00
007F80
0001C0
0000C0
000060
0C0060
0C0060
0600C0
0701C0
03FF80
00FE00
000000
000000
000000
ENDCHAR

STARTCHAR jisx0208_2334
ENCODING 9012
SWIDTH 960 0
DWIDTH 24 0
BBX 24 24 0 -2
BITMAP
000000
000000
000000
000300
000700
000F00
001F00
001B00
003300
007300
00E300
00C300
018300
038300
070300
0E0300
0FFFE0
0FFFE0
000300
000300
000300
000000
000000
000000
ENDCHAR

STARTCHAR jisx0208_2335
ENCODING 9013
SWIDTH 960 0
DWIDTH 24 0
BBX 24 24 0 -2
BITMAP
000000
000000
000000
01FFC0
01FFC0
018000
018000
018000
030000
037E00
03FF80
0381C0
0300C0
000060
000060
000060
060060
0700C0
0381C0
01FF80
007E00
000000
000000
000000
ENDCHAR

STARTCHAR jisx0208_2336
ENCODING 9014
SWIDTH 960 0
DWIDTH 24 0
BBX 24 24 0 -2
BITMAP
000000
000000
000000
007E00
01FF80
0381C0
0300C0
060000
060000
067E00
07FF80
0781C0
0700C0
060060
060060
060060
060060
0300C0
0381C0
01FF80
007E00
000000
000000
000000
ENDCHAR

STARTCHAR jisx0208_2337
ENCODING 9015
SWIDTH 960 0
DWIDTH 24 0
BBX 24 24 0 -2
BITMAP
000000
000000
000000
07FFE0
07FFE0
0000C0
000180
000180
000300
000300
000600
000600
000C00
000C00
000C00
001800
001800
001800
003000
003000
003000
000000
000000
000000
ENDCHAR

STARTCHAR jisx0208_2338
ENCODING 9016
SWIDTH 960 0
DWIDTH 24 0
BBX 24 24 0 -2
BITMAP
000000
000000
000000
00FE00
03FF80
030180
0600C0
0600C0
0600C0
030180
01FF00
03FF80
0701C0
0600C0
0C0060
0C0060
0C0060
0600C0
0701C0
03FF80
00FE00
000000
000000
000000
ENDCHAR

STARTCHAR jisx0208_2339
ENCODING 9017
SWIDTH 960 0
DWIDTH 24 0
BBX 24 24 0 -2
BITMAP
000000
000000
000000
007E00
01FF80
0381C0
0300C0
060060
060060
060060
060060
0300E0
0381E0
01FFE0
007E60
000060
000060
0300C0
0381C0
01FF80
007E00
000000
000000
000000
ENDCHAR

STARTCHAR jisx0208_2341
ENCODING 9025
SWIDTH 960 0
DWIDTH 24 0
BBX 24 24 0 -2
BITMAP
000000
000000
000000
001800
001800
003C00
003C00
006600
006600
006600
00C300
00C300
018180
018180
0300C0
03FFC0
03FFC0
060060
060060
0C0030
0C0030
000000
000000
000000
ENDCHAR

STARTCHAR jisx0208_2342
ENCODING 9026
SWIDTH 960 0
DWIDTH 24 0
BBX 24 24 0 -2
BITMAP
000000
000000
000000
07FE00
07FF80
060180
0600C0
0600C0
0600C0
060180
07FF00
07FF80
0601C0
0600C0
060060
060060
060060
060060
0600C0
07FFC0
07FF00
000000
000000
000000
ENDCHAR

STARTCHAR jisx0208_2343
ENCODING 9027
SWIDTH 960 0
DWIDTH 24 0
BBX 24 24 0 -2
BITMAP
000000
000000
000000
007C00
01FF00
038380
0601C0
0600C0
0C0000
0C0000
0C0000
0C0000
0C0000
0C0000
0C0060
0C0060
0600C0
0600C0
038380
01FF00
007C00
000000
000000
000000
ENDCHAR

STARTCHAR jisx0208_2344
ENCODING 9028
SWIDTH 960 0
DWIDTH 24 0
BBX 24 24 0 -2
BITMAP
000000
000000
000000
07FC00
07FF00
060380
0600C0
0600C0
060060
060060
060060
060060
060060
060060
060060
060060
0600C0
0600C0
060380
07FF00
07FC00
000000
000000
000000
ENDCHAR

STARTCHAR jisx0208_2345
ENCODING 9029
SWIDTH 960 0
DWIDTH 24 0
BBX 24 24 0 -2
BITMAP
000000
000000
000000
03FFE0
03FFE0
030000
030000
030000
030000
030000
03FF80
03FF80
030000
030000
030000
030000
030000
030000
030000
03FFE0
03FFE0
000000
000000
000000
ENDCHAR

STARTCHAR jisx0208_2346
ENCODING 9030
SWIDTH 960 0
DWIDTH 24 0
BBX 24 24 0 -2
BITMAP
000000
000000
000000
03FFE0
03FFE0
030000
030000
030000
030000
030000
03FF80
03FF80
030000
030000
030000
030000
030000
030000
030000
030000
030000
000000
000000
000000
ENDCHAR

STARTCHAR jisx0208_2347
ENCODING 9031
SWIDTH 960 0
DWIDTH 24 0
BBX 24 24 0 -2
BITMAP
000000
000000
000000
007C00
01FF00
038380
0601C0
0600C0
0C0000
0C0000
0C0000
0C0000
0C0FE0
0C0FE0
0C0060
0C0060
060060
0600E0
0383E0
01FF60
007C60
000000
000000
000000
ENDCHAR

STARTCHAR jisx0208_2348
ENCODING 9032
SWIDTH 960 0
DWIDTH 24 0
BBX 24 24 0 -2
BITMAP
000000
000000
000000
060060
060060
060060
060060
060060
060060
060060
07FFE0
07FFE0
060060
060060
060060
060060
060060
060060
060060
060060
060060
000000
000000
000000
ENDCHAR

STARTCHAR jisx0208_2349
ENCODING 9033
SWIDTH 960 0
DWIDTH 24 0
BBX 24 24 0 -2
BITMAP
000000
000000
000000
007E00
007E00
001800
001800
001800
001800
001800
001800
001800
001800
001800
001800
001800
001800
001800
001800
007E00
007E00
000000
000000
000000
ENDCHAR

STARTCHAR jisx0208_234A
ENCODING 9034
SWIDTH 960 0
DWIDTH 24 0
BBX 24 24 0 -2
BITMAP
000000
000000
000000
000180
000180
000180
000180
000180
000180
000180
000180
000180
000180
000180
000180
030180
030180
030180
018300
01FF00
007C00
000000
000000
000000
ENDCHAR

STARTCHAR jisx0208_234B
ENCODING 9035
SWIDTH 960 0
DWIDTH 24 0
BBX 24 24 0 -2
BITMAP
000000
000000
000000
0601C0
060380
060700
060E00
061C00
063800
067000
06E000
07F000
07B800
071800
060C00
060E00
060700
060300
060180
0601C0
0600E0
000000
000000
000000
ENDCHAR

STARTCHAR jisx0208_234C
ENCODING 9036
SWIDTH 960 0
DWIDTH 24 0
BBX 24 24 0 -2
BITMAP
000000
000000
000000
030000
030000
030000
030000
030000
030000
030000
030000
030000
030000
030000
030000
030000
030000
030000
030000
03FFE0
03FFE0
000000
000000
000000
ENDCHAR

STARTCHAR jisx0208_234D
ENCODING 9037
SWIDTH 960 0
DWIDTH 24 0
BBX 24 24 0 -2
BITMAP
000000
000000
000000
0C0030
0C0030
0E0070
0E0070
0F00F0
0F00F0
0F00F0
0D81B0
0D81B0
0CC330
0CC330
0C6630
0C6630
0C6630
0C3C30
0C3C30
0C1830
0C1830
000000
000000
000000
ENDCHAR

STARTCHAR jisx0208_234E
ENCODING 9038
SWIDTH 960 0
DWIDTH 24 0
BBX 24 24 0 -2
BITMAP
000000
000000
000000
060060
070060
078060
078060
06C060
06E060
066060
063060
063860
061C60
060C60
060660
060760
060360
0601E0
0601E0
0600E0
060060
000000
000000
000000
ENDCHAR

STARTCHAR jisx0208_234F
ENCODING 9039
SWIDTH 960 0
DWIDTH 24 0
BBX 24 24 0 -2
BITMAP
000000
000000
000000
007C00
01FF00
038380
0600C0
0600C0
0C0060
0C0060
0C0060
0C0060
0C0060
0C0060
0C0060
0C0060
0600C0
0600C0
038380
01FF00
007C00
000000
000000
000000
ENDCHAR

STARTCHAR jisx0208_2350
ENCODING 9040
SWIDTH 960 0
DWIDTH 24 0
BBX 24 24 0 -2
BITMAP
000000
000000
000000
03FF00
03FFC0
0300C0
030060
030060
030060
030060
030060
0300C0
03FFC0
03FF00
030000
030000
030000
030000
030000
030000
030000
000000
000000
000000
ENDCHAR

STARTCHAR jisx0208_2351
ENCODING 9041
SWIDTH 960 0
DWIDTH 24 0
BBX 24 24 0 -2
BITMAP
000000
000000
000000
007C00
01FF00
038380
0600C0
0600C0
0C0060
0C0060
0C0060
0C0060
0C0060
0C0060
0C0060
0C0460
060EC0
0607C0
038380
01FFC0
007C80
000000
000000
000000
ENDCHAR

STARTCHAR jisx0208_2352
ENCODING 9042
SWIDTH 960 0
DWIDTH 24 0
BBX 24 24 0 -2
BITMAP
000000
000000
000000
07FE00
07FF80
060180
0600C0
0600C0
0600C0
0600C0
0600C0
060180
07FF80
07FF00
060300
060180
060180
0600C0
0600C0
060060
060060
000000
000000
000000
ENDCHAR

STARTCHAR jisx0208_2353
ENCODING 9043
SWIDTH 960 0
DWIDTH 24 0
BBX 24 24 0 -2
BITMAP
000000
000000
000000
00FE00
03FF80
030180
0600C0
0600C0
060000
038000
01F000
007E00
000F80
0001C0
000060
060060
060060
030060
0380C0
01FFC0
007F00
000000
000000
000000
ENDCHAR

STARTCHAR jisx0208_2354
ENCODING 9044
SWIDTH 960 0
DWIDTH 24 0
BBX 24 24 0 -2
BITMAP
000000
000000
000000
0FFFF0
0FFFF0
001800
001800
001800
001800
001800
001800
001800
001800
001800
001800
001800
001800
001800
001800
001800
001800
000000
000000
000000
ENDCHAR

STARTCHAR jisx0208_2355
ENCODING 9045
SWIDTH 960 0
DWIDTH 24 0
BBX 24 24 0 -2
BITMAP
000000
000000
000000
060060
060060
060060
060060
060060
060060
060060
060060
060060
060060
060060
060060
060060
060060
0300C0
0381C0
01FF80
007E00
000000
000000
000000
ENDCHAR

STARTCHAR jisx0208_2356
ENCODING 9046
SWIDTH 960 0
DWIDTH 24 0
BBX 24 24 0 -2
BITMAP
000000
000000
000000
0C0030
0C0030
060060
060060
0300C0
0300C0
0300C0
018180
018180
00C300
00C300
006600
006600
006600
003C00
003C00
001800
001800
000000
000000
000000
ENDCHAR

STARTCHAR jisx0208_2357
ENCODING 9047
SWIDTH 960 0
DWIDTH 24 0
BBX 24 24 0 -2
BITMAP
000000
000000
000000
30180C
30180C
30180C
183C18
183C18
183C18
0C3C30
0C6630
0C6630
066660
066660
06C360
03C3C0
03C3C0
03C3C0
018180
018180
018180
000000
000000
000000
ENDCHAR

STARTCHAR jisx0208_2358
ENCODING 9048
SWIDTH 960 0
DWIDTH 24 0
BBX 24 24 0 -2
BITMAP
000000
000000
000000
0700E0
0381C0
018180
00C300
00E700
006600
003C00
003C00
001800
003C00
007E00
006600
00C300
01C380
018180
0300C0
0700E0
0E0070
000000
000000
000000
ENDCHAR

STARTCHAR jisx0208_2359
ENCODING 9049
SWIDTH 960 0
DWIDTH 24 0
BBX 24 24 0 -2
BITMAP
000000
000000
000000
060060
060060
0300C0
0300C0
018180
018180
00C300
00C300
006600
006600
003C00
003C00
001800
001800
001800
001800
001800
001800
000000
000000
000000
ENDCHAR

STARTCHAR jisx0208_235A
ENCODING 9050
SWIDTH 960 0
DWIDTH 24 0
BBX 24 24 0 -2
BITMAP
000000
000000
000000
03FFC0
03FFC0
000180
000300
000700
000600
000C00
001C00
001800
003000
007000
006000
00C000
01C000
018000
030000
07FFC0
07FFC0
000000
000000
000000
ENDCHAR

STARTCHAR jisx0208_2361
ENCODING 9057
SWIDTH 960 0
DWIDTH 24 0
BBX 24 24 0 -2
BITMAP
000000
000000
000000
000000
000000
000000
000000
000000
007C00
01FF00
038300
030180
000180
007F80
01FF80
018180
030180
030180
038780
01FF80
00F980
000000
000000
000000
ENDCHAR

STARTCHAR jisx0208_2362
ENCODING 9058
SWIDTH 960 0
DWIDTH 24 0
BBX 24 24 0 -2
BITMAP
000000
000000
000000
030000
030000
030000
030000
030000
033C00
03FF00
03C380
038180
0300C0
0300C0
0300C0
0300C0
0300C0
038180
03C380
03FF00
033C00
000000
000000
000000
ENDCHAR

STARTCHAR jisx0208_2363
ENCODING 9059
SWIDTH 960 0
DWIDTH 24 0
BBX 24 24 0 -2
BITMAP
000000
000000
000000
000000
000000
000000
000000
000000
003C00
00FF00
01C380
0181C0
0300C0
030000
030000
030000
0300C0
0181C0
01C380
00FF00
003C00
000000
000000
000000
ENDCHAR

STARTCHAR jisx0208_2364
ENCODING 9060
SWIDTH 960 0
DWIDTH 24 0
BBX 24 24 0 -2
BITMAP
000000
000000
000000
0000C0
0000C0
0000C0
0000C0
0000C0
003CC0
00FFC0
01C3C0
0181C0
0300C0
0300C0
0300C0
0300C0
0300C0
0181C0
01C3C0
00FFC0
003CC0
000000
000000
000000
ENDCHAR

STARTCHAR jisx0208_2365
ENCODING 9061
SWIDTH 960 0
DWIDTH 24 0
BBX 24 24 0 -2
BITMAP
000000
000000
000000
000000
000000
000000
000000
000000
003C00
00FF00
01C380
018180
0300C0
03FFC0
03FFC0
030000
030000
0180C0
01C1C0
00FF80
003E00
000000
000000
000000
ENDCHAR

STARTCHAR jisx0208_2366
ENCODING 9062
SWIDTH 960 0
DWIDTH 24 0
BBX 24 24 0 -2
BITMAP
000000
000000
000000
001F00
003F00
003000
003000
003000
01FF00
01FF00
003000
003000
003000
003000
003000
003000
003000
003000
003000
003000
003000
000000
000000
000000
ENDCHAR

STARTCHAR jisx0208_2367
ENCODING 9063
SWIDTH 960 0
DWIDTH 24 0
BBX 24 24 0 -2
BITMAP
000000
000000
000000
000000
000000
000000
000000
000000
007D80
01FF80
018380
030180
030180
030180
030180
018380
01FF80
007D80
000180
030180
038300
01FF00
007C00
000000
ENDCHAR

STARTCHAR jisx0208_2368
ENCODING 9064
SWIDTH 960 0
DWIDTH 24 0
BBX 24 24 0 -2
BITMAP
000000
000000
000000
030000
030000
030000
030000
030000
033E00
037F00
03C380
038180
030180
030180
030180
030180
030180
030180
030180
030180
030180
000000
000000
000000
ENDCHAR

STARTCHAR jisx0208_2369
ENCODING 9065
SWIDTH 960 0
DWIDTH 24 0
BBX 24 24 0 -2
BITMAP
000000
000000
000000
001800
001800
001800
000000
000000
001800
001800
001800
001800
001800
001800
001800
001800
001800
001800
001800
001800
001800
000000
000000
000000
ENDCHAR

STARTCHAR jisx0208_236A
ENCODING 9066
SWIDTH 960 0
DWIDTH 24 0
BBX 24 24 0 -2
BITMAP
000000
000000
000000
000C00
000C00
000C00
000000
000000
000C00
000C00
000C00
000C00
000C00
000C00
000C00
000C00
000C00
000C00
000C00
000C00
000C00
00FC00
00F800
000000
ENDCHAR

STARTCHAR jisx0208_236B
ENCODING 9067
SWIDTH 960 0
DWIDTH 24 0
BBX 24 24 0 -2
BITMAP
000000
000000
000000
030000
030000
030000
030000
030000
030700
030E00
031C00
033800
037000
03F800
03D800
038C00
030E00
030600
030300
030380
030180
000000
000000
000000
ENDCHAR

STARTCHAR jisx0208_236C
ENCODING 9068
SWIDTH 960 0
DWIDTH 24 0
BBX 24 24 0 -2
BITMAP
000000
000000
000000
001800
001800
001800
001800
001800
001800
001800
001800
001800
001800
001800
001800
001800
001800
001800
001800
001E00
001E00
000000
000000
000000
ENDCHAR

STARTCHAR jisx0208_236D
ENCODING 9069
SWIDTH 960 0
DWIDTH 24 0
BBX 24 24 0 -2
BITMAP
000000
000000
000000
000000
000000
000000
000000
000000
0DE3C0
0FF7E0
0E3C70
0C1830
0C1830
0C1830
0C1830
0C1830
0C1830
0C1830
0C1830
0C1830
0C1830
000000
000000
000000
ENDCHAR

STARTCHAR jisx0208_236E
ENCODING 9070
SWIDTH 960 0
DWIDTH 24 0
BBX 24 24 0 -2
BITMAP
000000
000000
000000
000000
000000
000000
000000
000000
033E00
037F00
03C380
038180
030180
030180
030180
030180
030180
030180
030180
030180
030180
000000
000000
000000
ENDCHAR

STARTCHAR jisx0208_236F
ENCODING 9071
SWIDTH 960 0
DWIDTH 24 0
BBX 24 24 0 -2
BITMAP
000000
000000
000000
000000
000000
000000
000000
000000
007C00
01FF00
038380
030180
0600C0
0600C0
0600C0
0600C0
0600C0
030180
038380
01FF00
007C00
000000
000000
000000
ENDCHAR

STARTCHAR jisx0208_2370
ENCODING 9072
SWIDTH 960 0
DWIDTH 24 0
BBX 24 24 0 -2
BITMAP
000000
000000
000000
000000
000000
000000
000000
000000
01BE00
01FF80
01C180
0180C0
0180C0
0180C0
0180C0
0180C0
0180C0
01C180
01FF80
01BE00
018000
018000
018000
000000
ENDCHAR

STARTCHAR jisx0208_2371
ENCODING 9073
SWIDTH 960 0
DWIDTH 24 0
BBX 24 24 0 -2
BITMAP
000000
000000
000000
000000
000000
000000
000000
000000
007D80
01FF80
018380
030180
030180
030180
030180
030180
030180
018380
01FF80
007D80
000180
000180
000180
000000
ENDCHAR

STARTCHAR jisx0208_2372
ENCODING 9074
SWIDTH 960 0
DWIDTH 24 0
BBX 24 24 0 -2
BITMAP
000000
000000
000000
000000
000000
000000
000000
000000
006380
006F80
007C00
007000
006000
006000
006000
006000
006000
006000
006000
006000
006000
000000
000000
000000
ENDCHAR

STARTCHAR jisx0208_2373
ENCODING 9075
SWIDTH 960 0
DWIDTH 24 0
BBX 24 24 0 -2
BITMAP
000000
000000
000000
000000
000000
000000
000000
000000
00FC00
01FE00
030300
030300
038000
01F000
007C00
000F00
000380
030180
038180
01FF00
007E00
000000
000000
000000
ENDCHAR

STARTCHAR jisx0208_2374
ENCODING 9076
SWIDTH 960 0
DWIDTH 24 0
BBX 24 24 0 -2
BITMAP
000000
000000
000000
003000
003000
003000
003000
003000
01FF00
01FF00
003000
003000
003000
003000
003000
003000
003000
003000
003000
003F00
001F00
000000
000000
000000
ENDCHAR

STARTCHAR jisx0208_2375
ENCODING 9077
SWIDTH 960 0
DWIDTH 24 0
BBX 24 24 0 -2
BITMAP
000000
000000
000000
000000
000000
000000
000000
000000
030180
030180
030180
030180
030180
030180
030180
030180
030180
030380
038780
01FD80
00F980
000000
000000
000000
ENDCHAR

STARTCHAR jisx0208_2376
ENCODING 9078
SWIDTH 960 0
DWIDTH 24 0
BBX 24 24 0 -2
BITMAP
000000
000000
000000
000000
000000
000000
000000
000000
0300C0
0300C0
018180
018180
00C300
00C300
00C300
006600
006600
003C00
003C00
001800
001800
000000
000000
000000
ENDCHAR

STARTCHAR jisx0208_2377
ENCODING 9079
SWIDTH 960 0
DWIDTH 24 0
BBX 24 24 0 -2
BITMAP
000000
000000
000000
000000
000000
000000
000000
000000
0C1830
0C1830
061860
063C60
063C60
033CC0
0366C0
0366C0
01E780
01E780
01C380
00C300
00C300
000000
000000
000000
ENDCHAR

STARTCHAR jisx0208_2378
ENCODING 9080
SWIDTH 960 0
DWIDTH 24 0
BBX 24 24 0 -2
BITMAP
000000
000000
000000
000000
000000
000000
000000
000000
030180
038380
01C700
00C600
006C00
007C00
003800
007C00
00EE00
00C600
018300
038380
030180
000000
000000
000000
ENDCHAR

STARTCHAR jisx0208_2379
ENCODING 9081
SWIDTH 960 0
DWIDTH 24 0
BBX 24 24 0 -2
BITMAP
000000
000000
000000
000000
000000
000000
000000
000000
030180
030180
018300
018300
00C600
00C600
00C600
006C00
006C00
003800
003800
003000
007000
03E000
03C000
000000
ENDCHAR

STARTCHAR jisx0208_237A
ENCODING 9082
SWIDTH 960 0
DWIDTH 24 0
BBX 24 24 0 -2
BITMAP
000000
000000
000000
000000
000000
000000
000000
000000
01FF80
01FF80
000700
000600
000C00
001C00
003800
003000
006000
00E000
01C000
03FF80
03FF80
000000
000000
000000
ENDCHAR

STARTCHAR jisx0208_2421
ENCODING 9249
SWIDTH 960 0
DWIDTH 24 0
BBX 24 24 0 -2
BITMAP
000000
000000
000000
000000
000000
000000
006000
006000
006700
07FF00
07F800
00C600
00FE00
01FF80
03CDC0
07CCE0
06D860
0CF860
0C7060
0CE0E0
0FF1C0
072F80
000E00
000000
ENDCHAR

STARTCHAR jisx0208_2422
ENCODING 9250
SWIDTH 960 0
DWIDTH 24 0
BBX 24 24 0 -2
BITMAP
000000
006000
006000
0063C0
0FFFC0
0FFC00
00C000
00C300
00FF80
01FFE0
07C670
0EC618
1CCC18
18CC0C
30D80C
30F80C
30700C
30E018
31F038
3FA070
1E01E0
000F80
000E00
000000
ENDCHAR

STARTCHAR jisx0208_2423
ENCODING 9251
SWIDTH 960 0
DWIDTH 24 0
BBX 24 24 0 -2
BITMAP
000000
000000
000000
000000
000000
000000
000000
000000
060000
060080
0E01C0
0C00C0
0C00E0
0C0060
0C0070
0C0030
0C0030
0E3030
063000
076000
03E000
01C000
000000
000000
ENDCHAR

STARTCHAR jisx0208_2424
ENCODING 9252
SWIDTH 960 0
DWIDTH 24 0
BBX 24 24 0 -2
BITMAP
000000
000000
000000
180000
180000
180020
380070
300030
300038
300018
300018
30001C
30000C
30000C
38000C
18000C
18600C
1C6000
0C6000
0EC000
07C000
038000
000000
000000
ENDCHAR

STARTCHAR jisx0208_2425
ENCODING 9253
SWIDTH 960 0
DWIDTH 24 0
BBX 24 24 0 -2
BITMAP
000000
000000
000000
000000
000000
000000
000000
00E000
00FF00
001F00
000000
003F00
07FF80
07C1C0
0000C0
0000C0
0000C0
0000C0
000180
000380
000F00
007E00
007800
000000
ENDCHAR

STARTCHAR jisx0208_2426
ENCODING 9254
SWIDTH 960 0
DWIDTH 24 0
BBX 24 24 0 -2
BITMAP
000000
01E000
01FF80
001F80
000000
000000
003F80
1FFFE0
1FC060
000030
000030
000030
000030
000030
000070
000060
0000E0
0001C0
000780
001F00
00FC00
00F000
000000
000000
ENDCHAR

STARTCHAR jisx0208_2427
ENCODING 9255
SWIDTH 960 0
DWIDTH 24 0
BBX 24 24 0 -2
BITMAP
000000
000000
000000
000000
000000
000000
00E000
00FF00
001F00
000000
001F00
03FF80
03E700
000E00
001C00
003800
007C00
00FE00
01C600
038600
070600
0E07F0
0403F0
000000
ENDCHAR

STARTCHAR jisx0208_2428
ENCODING 9256
SWIDTH 960 0
DWIDTH 24 0
BBX 24 24 0 -2
BITMAP
000000
01E000
01FF00
001F00
000000
000000
001F80
07FFC0
07E380
000700
000E00
001C00
003800
007C00
00FE00
01C600
038600
070600
0E0600
1C0600
3807FC
1003FC
000000
000000
ENDCHAR

STARTCHAR jisx0208_2429
ENCODING 9257
SWIDTH 960 0
DWIDTH 24 0
BBX 24 24 0 -2
BITMAP
000000
000000
000000
000000
000000
000000
000000
018000
018000
01B880
0FF9E0
0FC070
018020
018F80
01BFC0
01F0E0
03C060
0F8060
1D8060
0D88E0
079FC0
038F80
010000
000000
ENDCHAR

STARTCHAR jisx0208_242A
ENCODING 9258
SWIDTH 960 0
DWIDTH 24 0
BBX 24 24 0 -2
BITMAP
000000
030000
030000
030000
030080
0379E0
3FF878
3F801C
030008
030000
030FC0
033FF0
03F038
03C018
07000C
1F000C
7B000C
73000C
1B0818
0F1C38
070FF0
0303C0
020000
000000
ENDCHAR

STARTCHAR jisx0208_242B
ENCODING 9259
SWIDTH 960 0
DWIDTH 24 0
BBX 24 24 0 -2
BITMAP
000000
018000
018000
018000
018080
0301C0
03F8E0
7FFC70
7F0E38
06061C
06060C
06060E
0C0606
0C0606
0C0E0E
180C3C
180C18
381C00
311800
73B800
61F000
20E000
000000
000000
ENDCHAR

STARTCHAR jisx0208_242C
ENCODING 9260
SWIDTH 960 0
DWIDTH 24 0
BBX 24 24 0 -2
BITMAP
000000
018008
01802C
018034
018090
0301C0
03F8E0
7FFC70
7F0E38
06061C
06060C
06060E
0C0606
0C0606
0C0E0E
180C3C
180C18
381C00
311800
73B800
61F000
20E000
000000
000000
ENDCHAR

STARTCHAR jisx0208_242D
ENCODING 9261
SWIDTH 960 0
DWIDTH 24 0
BBX 24 24 0 -2
BITMAP
000000
001800
001800
000DE0
0FFFE0
0FFC00
000600
0006F8
1FFFF8
1FFF00
000300
000180
01FD80
07FFC0
0603E0
0C00C0
0C0000
0C0000
0E0000
0780C0
03FFC0
00FF00
000000
000000
ENDCHAR

STARTCHAR jisx0208_242E
ENCODING 9262
SWIDTH 960 0
DWIDTH 24 0
BBX 24 24 0 -2
BITMAP
000000
001804
001816
000DFA
0FFFE8
0FFC00
000600
0006F8
1FFFF8
1FFF00
000300
000180
01FD80
07FFC0
0603E0
0C00C0
0C0000
0C0000
0E0000
0780C0
03FFC0
00FF00
000000
000000
ENDCHAR

STARTCHAR jisx0208_242F
ENCODING 9263
SWIDTH 960 0
DWIDTH 24 0
BBX 24 24 0 -2
BITMAP
000000
000100
000380
000700
000E00
003C00
007800
00E000
03C000
078000
0E0000
0C0000
0E0000
078000
03C000
00E000
007800
003C00
000E00
000700
000380
0001C0
000080
000000
ENDCHAR

STARTCHAR jisx0208_2430
ENCODING 9264
SWIDTH 960 0
DWIDTH 24 0
BBX 24 24 0 -2
BITMAP
000000
000100
000388
00070C
000E24
003C30
007810
00E000
03C000
078000
0E0000
0C0000
0E0000
078000
03C000
00E000
007800
003C00
000E00
000700
000380
0001C0
000080
000000
ENDCHAR

STARTCHAR jisx0208_2431
ENCODING 9265
SWIDTH 960 0
DWIDTH 24 0
BBX 24 24 0 -2
BITMAP
000000
000000
180060
180060
180060
180060
300060
307FFC
307FFC
300060
300060
300060
300060
300060
300060
300060
3000E0
3000C0
1801C0
180380
180700
000E00
000400
000000
ENDCHAR

STARTCHAR jisx0208_2432
ENCODING 9266
SWIDTH 960 0
DWIDTH 24 0
BBX 24 24 0 -2
BITMAP
000000
000004
180066
18006A
18006C
180064
300060
307FFC
307FFC
300060
300060
300060
300060
300060
300060
300060
3000E0
3000C0
1801C0
180380
180700
000E00
000400
000000
ENDCHAR

STARTCHAR jisx0208_2433
ENCODING 9267
SWIDTH 960 0
DWIDTH 24 0
BBX 24 24 0 -2
BITMAP
000000
000000
000000
03FF80
03FF80
000000
000000
000000
000000
000000
000000
000000
040000
0E0000
1C0000
180000
180000
180000
1C0070
0FFFF0
03FF80
000000
000000
000000
ENDCHAR

STARTCHAR jisx0208_2434
ENCODING 9268
SWIDTH 960 0
DWIDTH 24 0
BBX 24 24 0 -2
BITMAP
000000
000004
000016
03FF9A
03FF88
000000
000000
000000
000000
000000
000000
000000
040000
0E0000
1C0000
180000
180000
180000
1C0070
0FFFF0
03FF80
000000
000000
000000
ENDCHAR

STARTCHAR jisx0208_2435
ENCODING 9269
SWIDTH 960 0
DWIDTH 24 0
BBX 24 24 0 -2
BITMAP
000000
001800
001800
001800
000C70
000FF0
1FFF80
1FFE00
000600
000300
000300
00FD80
03FFC0
0703E0
0E00C0
0C0000
0C0000
0C0000
0E0000
0700C0
03FFC0
00FF00
000000
000000
ENDCHAR

STARTCHAR jisx0208_2436
ENCODING 9270
SWIDTH 960 0
DWIDTH 24 0
BBX 24 24 0 -2
BITMAP
000000
001804
001816
00181A
000CE8
000FE0
1FFF00
1FFE00
000600
000300
000300
00FD80
03FFC0
0703E0
0E00C0
0C0000
0C0000
0C0000
0E0000
0700C0
03FFC0
00FF00
000000
000000
ENDCHAR

STARTCHAR jisx0208_2437
ENCODING 9271
SWIDTH 960 0
DWIDTH 24 0
BBX 24 24 0 -2
BITMAP
000000
000000
060000
060000
060000
060000
060000
060000
060000
060000
0C0000
0C0000
0C0000
0C0000
0C0000
0C0010
0C0038
0C0070
0600E0
0703C0
03FF80
00FE00
000000
000000
ENDCHAR

STARTCHAR jisx0208_2438
ENCODING 9272
SWIDTH 960 0
DWIDTH 24 0
BBX 24 24 0 -2
BITMAP
000000
000000
060000
060080
0602C0
060340
060100
060000
060000
060000
0C0000
0C0000
0C0000
0C0000
0C0000
0C0010
0C0038
0C0070
0600E0
0703C0
03FF80
00FE00
000000
000000
ENDCHAR

STARTCHAR jisx0208_2439
ENCODING 9273
SWIDTH 960 0
DWIDTH 24 0
BBX 24 24 0 -2
BITMAP
000000
000C00
000C00
000C00
01FFFC
7FFFFC
7E0C00
000C00
00FC00
01FC00
039C00
030E00
030E00
030E00
039E00
01F600
00EE00
000C00
001C00
003800
00F000
01E000
008000
000000
ENDCHAR

STARTCHAR jisx0208_243A
ENCODING 9274
SWIDTH 960 0
DWIDTH 24 0
BBX 24 24 0 -2
BITMAP
000000
000C24
000C36
000C12
01FFFC
7FFFFC
7E0C00
000C00
00FC00
01FC00
039C00
030E00
030E00
030E00
039E00
01F600
00EE00
000C00
001C00
003800
00F000
01E000
008000
000000
ENDCHAR

STARTCHAR jisx0208_243B
ENCODING 9275
SWIDTH 960 0
DWIDTH 24 0
BBX 24 24 0 -2
BITMAP
000000
0000C0
0000C0
0600C0
0600C0
0600C0
0600C0
061FFE
7FFFFE
7FE0C0
0600C0
0600C0
0600C0
0600C0
060FC0
060780
060000
060000
060000
070070
03FFF0
01FF80
000000
000000
ENDCHAR

STARTCHAR jisx0208_243C
ENCODING 9276
SWIDTH 960 0
DWIDTH 24 0
BBX 24 24 0 -2
BITMAP
000000
0000C4
0000C6
0600D2
0600D8
0600C8
0600C0
061FFE
7FFFFE
7FE0C0
0600C0
0600C0
0600C0
0600C0
060FC0
060780
060000
060000
060000
070070
03FFF0
01FF80
000000
000000
ENDCHAR

STARTCHAR jisx0208_243D
ENCODING 9277
SWIDTH 960 0
DWIDTH 24 0
BBX 24 24 0 -2
BITMAP
000000
000000
003F80
07FF80
07CE00
001C00
007000
00E000
0383FC
0F7FFC
7FFE00
7C3800
007000
006000
00C000
00C000
00C000
00C000
006000
007000
003F80
000F80
000000
000000
ENDCHAR

STARTCHAR jisx0208_243E
ENCODING 9278
SWIDTH 960 0
DWIDTH 24 0
BBX 24 24 0 -2
BITMAP
000000
000004
003F86
07FF92
07CF18
001C08
007000
00E000
0383FC
0F7FFC
7FFE00
7C3800
007000
006000
00C000
00C000
00C000
00C000
006000
007000
003F80
000F80
000000
000000
ENDCHAR

STARTCHAR jisx0208_243F
ENCODING 9279
SWIDTH 960 0
DWIDTH 24 0
BBX 24 24 0 -2
BITMAP
000000
018000
018000
018000
01F800
3FF800
3F8000
030000
0307F8
0307F8
060000
060000
060000
060000
0C0800
0C1C00
0C3800
183000
183000
383800
301FFC
100FFC
000000
000000
ENDCHAR

STARTCHAR jisx0208_2440
ENCODING 9280
SWIDTH 960 0
DWIDTH 24 0
BBX 24 24 0 -2
BITMAP
000000
018008
01800C
018024
01F830
3FF810
3F8000
030000
0307F8
0307F8
060000
060000
060000
060000
0C0800
0C1C00
0C3800
183000
183000
383800
301FFC
100FFC
000000
000000
ENDCHAR

STARTCHAR jisx0208_2441
ENCODING 9281
SWIDTH 960 0
DWIDTH 24 0
BBX 24 24 0 -2
BITMAP
000000
00C000
00C000
00C000
018780
1FFF80
1FF800
018000
030000
030000
031F80
067FE0
07E070
0F8038
1E0018
0C0018
000018
000038
000030
0300E0
03FFC0
00FF00
000000
000000
ENDCHAR

STARTCHAR jisx0208_2442
ENCODING 9282
SWIDTH 960 0
DWIDTH 24 0
BBX 24 24 0 -2
BITMAP
000000
00C008
00C02C
00C034
018790
1FFF80
1FF800
018000
030000
030000
031F80
067FE0
07E070
0F8038
1E0018
0C0018
000018
000038
000030
0300E0
03FFC0
00FF00
000000
000000
ENDCHAR

STARTCHAR jisx0208_2443
ENCODING 9283
SWIDTH 960 0
DWIDTH 24 0
BBX 24 24 0 -2
BITMAP
000000
000000
000000
000000
000000
000000
000000
000000
003F80
1FFFE0
1FC060
000030
000030
000030
000030
000070
000060
0000E0
0003C0
007F80
007E00
000000
000000
000000
ENDCHAR

STARTCHAR jisx0208_2444
ENCODING 9284
SWIDTH 960 0
DWIDTH 24 0
BBX 24 24 0 -2
BITMAP
000000
000000
000000
000000
000000
000FC0
01FFF0
7FF038
7E0018
00000C
00000C
00000C
00000C
00000C
00000C
000018
000038
000070
0003E0
007F80
007C00
000000
000000
000000
ENDCHAR

STARTCHAR jisx0208_2445
ENCODING 9285
SWIDTH 960 0
DWIDTH 24 0
BBX 24 24 0 -2
BITMAP
000000
000004
000016
00001A
000008
000FC0
01FFF0
7FF038
7E0018
00000C
00000C
00000C
00000C
00000C
00000C
000018
000038
000070
0003E0
007F80
007C00
000000
000000
000000
ENDCHAR

STARTCHAR jisx0208_2446
ENCODING 9286
SWIDTH 960 0
DWIDTH 24 0
BBX 24 24 0 -2
BITMAP
000000
000000
000000
0001FC
007FFC
3FFF00
3F8C00
001800
003000
006000
006000
00C000
00C000
00C000
00C000
00C000
00E000
006000
007000
003C00
001FC0
0007C0
000000
000000
ENDCHAR

STARTCHAR jisx0208_2447
ENCODING 9287
SWIDTH 960 0
DWIDTH 24 0
BBX 24 24 0 -2
BITMAP
000000
000000
000000
0001FC
007FFC
3FFF00
3F8C00
001808
00300C
006024
006030
00C010
00C000
00C000
00C000
00C000
00E000
006000
007000
003C00
001FC0
0007C0
000000
000000
ENDCHAR

STARTCHAR jisx0208_2448
ENCODING 9288
SWIDTH 960 0
DWIDTH 24 0
BBX 24 24 0 -2
BITMAP
000000
00C000
00C000
00C000
00C000
00C000
00C000
00C0E0
00C7E0
007F00
007800
01E000
038000
070000
060000
0C0000
0C0000
0C0000
0C0000
060070
07FFF0
01FF80
000000
000000
ENDCHAR

STARTCHAR jisx0208_2449
ENCODING 9289
SWIDTH 960 0
DWIDTH 24 0
BBX 24 24 0 -2
BITMAP
000000
00C010
00C018
00C048
00C060
00C020
00C000
00C0E0
00C7E0
007F00
007800
01E000
038000
070000
060000
0C0000
0C0000
0C0000
0C0000
060070
07FFF0
01FF80
000000
000000
ENDCHAR

STARTCHAR jisx0208_244A
ENCODING 9290
SWIDTH 960 0
DWIDTH 24 0
BBX 24 24 0 -2
BITMAP
000000
030000
030000
030000
037080
3FF1E0
3F8078
06001C
060008
0C0080
0C01C0
0C0180
180180
180180
380180
307F80
70FF80
6181E0
2181F8
01C19C
00FF88
003F00
000000
000000
ENDCHAR

STARTCHAR jisx0208_244B
ENCODING 9291
SWIDTH 960 0
DWIDTH 24 0
BBX 24 24 0 -2
BITMAP
000000
000000
0C0000
0C0000
0C3FF8
183FF8
180000
180000
180000
180000
180000
180000
180000
181000
183800
187000
186000
186000
187000
0C3FFC
0C1FFC
0C0000
000000
000000
ENDCHAR

STARTCHAR jisx0208_244C
ENCODING 9292
SWIDTH 960 0
DWIDTH 24 0
BBX 24 24 0 -2
BITMAP
000000
001800
001800
001800
181800
183F80
18FFE0
1BF0F0
0F3038
0E3018
1C301C
1C600C
36600C
36600C
36C00C
63C00C
63C7EC
618FF8
63CC1C
67EC3E
3E47F4
1C03E0
000000
000000
ENDCHAR

STARTCHAR jisx0208_244D
ENCODING 9293
SWIDTH 960 0
DWIDTH 24 0
BBX 24 24 0 -2
BITMAP
000000
060000
060000
060000
0703E0
3F8FF8
3F3C18
06700C
06E00C
07C00C
07800C
0F000C
0E000C
1E000C
1E000C
3607EC
760FF8
260C1C
060C3E
0607F4
0603C0
060000
000000
000000
ENDCHAR

STARTCHAR jisx0208_244E
ENCODING 9294
SWIDTH 960 0
DWIDTH 24 0
BBX 24 24 0 -2
BITMAP
000000
000000
000000
00FF00
03FFC0
07A1E0
0E3070
1C3038
383018
30301C
70600C
60600C
60600C
60C00C
60C00C
60C01C
618018
738038
3F0070
1E01E0
0007C0
000700
000000
000000
ENDCHAR

STARTCHAR jisx0208_244F
ENCODING 9295
SWIDTH 960 0
DWIDTH 24 0
BBX 24 24 0 -2
BITMAP
000000
000000
180180
180180
180180
3001FC
30FFFC
30FFC0
3000C0
3000C0
3000C0
3000C0
3000C0
3000C0
3000C0
303FC0
307FC0
30C0F0
30C0FC
18E0CE
187FC4
181F80
000000
000000
ENDCHAR

STARTCHAR jisx0208_2450
ENCODING 9296
SWIDTH 960 0
DWIDTH 24 0
BBX 24 24 0 -2
BITMAP
000000
000004
180196
18019A
180188
3001FC
30FFFC
30FFC0
3000C0
3000C0
3000C0
3000C0
3000C0
3000C0
3000C0
303FC0
307FC0
30C0F0
30C0FC
18E0CE
187FC4
181F80
000000
000000
ENDCHAR

STARTCHAR jisx0208_2451
ENCODING 9297
SWIDTH 960 0
DWIDTH 24 0
BBX 24 24 0 -2
BITMAP
000000
00001C
1801B6
1801A2
1801B6
3001FC
30FFFC
30FFC0
3000C0
3000C0
3000C0
3000C0
3000C0
3000C0
3000C0
303FC0
307FC0
30C0F0
30C0FC
18E0CE
187FC4
181F80
000000
000000
ENDCHAR

STARTCHAR jisx0208_2452
ENCODING 9298
SWIDTH 960 0
DWIDTH 24 0
BBX 24 24 0 -2
BITMAP
000000
000000
000000
004080
3FE180
3FC0C0
0380C0
0700E0
0E00F0
0C00F0
1800D8
1800DC
3000CE
3000C4
3000C0
300180
300180
300300
180700
1C1E00
0FFC00
03F000
000000
000000
ENDCHAR

STARTCHAR jisx0208_2453
ENCODING 9299
SWIDTH 960 0
DWIDTH 24 0
BBX 24 24 0 -2
BITMAP
000000
000000
000004
004096
3FE19A
3FC0C8
0380C0
0700E0
0E00F0
0C00F0
1800D8
1800DC
3000CE
3000C4
3000C0
300180
300180
300300
180700
1C1E00
0FFC00
03F000
000000
000000
ENDCHAR

STARTCHAR jisx0208_2454
ENCODING 9300
SWIDTH 960 0
DWIDTH 24 0
BBX 24 24 0 -2
BITMAP
000000
00001C
000036
0040A2
3FE1B6
3FC0DC
0380C0
0700E0
0E00F0
0C00F0
1800D8
1800DC
3000CE
3000C4
3000C0
300180
300180
300300
180700
1C1E00
0FFC00
03F000
000000
000000
ENDCHAR

STARTCHAR jisx0208_2455
ENCODING 9301
SWIDTH 960 0
DWIDTH 24 0
BBX 24 24 0 -2
BITMAP
000000
004000
00F000
003C00
000F00
000200
000000
003000
003000
003000
003000
003000
003820
041C70
060E38
0E071C
0C030C
1C030E
388306
71C704
20FE00
007C00
000000
000000
ENDCHAR

STARTCHAR jisx0208_2456
ENCODING 9302
SWIDTH 960 0
DWIDTH 24 0
BBX 24 24 0 -2
BITMAP
000000
004008
00F00C
003C24
000F30
000210
000000
003000
003000
003000
003000
003000
003820
041C70
060E38
0E071C
0C030C
1C030E
388306
71C704
20FE00
007C00
000000
000000
ENDCHAR

STARTCHAR jisx0208_2457
ENCODING 9303
SWIDTH 960 0
DWIDTH 24 0
BBX 24 24 0 -2
BITMAP
000000
004000
00F000
003C38
000F6C
000244
00006C
003038
003000
003000
003000
003000
003820
041C70
060E38
0E071C
0C030C
1C030E
388306
71C704
20FE00
007C00
000000
000000
ENDCHAR

STARTCHAR jisx0208_2458
ENCODING 9304
SWIDTH 960 0
DWIDTH 24 0
BBX 24 24 0 -2
BITMAP
000000
000000
000000
000000
000000
000000
01C000
03E000
077000
0E3800
1C1C00
380F00
700780
2001C0
0000E0
000078
00003C
00000E
000004
000000
000000
000000
000000
000000
ENDCHAR

STARTCHAR jisx0208_2459
ENCODING 9305
SWIDTH 960 0
DWIDTH 24 0
BBX 24 24 0 -2
BITMAP
000000
000000
000000
000010
000098
0000C8
01C040
03E000
077000
0E3800
1C1C00
380F00
700780
2001C0
0000E0
000078
00003C
00000E
000004
000000
000000
000000
000000
000000
ENDCHAR

STARTCHAR jisx0208_245A
ENCODING 9306
SWIDTH 960 0
DWIDTH 24 0
BBX 24 24 0 -2
BITMAP
000000
000000
000000
000000
000070
0000D8
01C088
03E0D8
077070
0E3800
1C1C00
380F00
700780
2001C0
0000E0
000078
00003C
00000E
000004
000000
000000
000000
000000
000000
ENDCHAR

STARTCHAR jisx0208_245B
ENCODING 9307
SWIDTH 960 0
DWIDTH 24 0
BBX 24 24 0 -2
BITMAP
000000
000000
180000
18FFF8
18FFF8
3000C0
3000C0
3000C0
3000C0
30FFFC
30FFFC
3000C0
3000C0
3000C0
3000C0
303FC0
307FC0
30C0F0
30C0FC
18E0CE
187FC4
181F80
000000
000000
ENDCHAR

STARTCHAR jisx0208_245C
ENCODING 9308
SWIDTH 960 0
DWIDTH 24 0
BBX 24 24 0 -2
BITMAP
000000
000004
180016
18FFFA
18FFE8
3000C0
3000C0
3000C0
3000C0
30FFFC
30FFFC
3000C0
3000C0
3000C0
3000C0
303FC0
307FC0
30C0F0
30C0FC
18E0CE
187FC4
181F80
000000
000000
ENDCHAR

STARTCHAR jisx0208_245D
ENCODING 9309
SWIDTH 960 0
DWIDTH 24 0
BBX 24 24 0 -2
BITMAP
000000
00001C
180036
18FFE2
18FFF6
3000DC
3000C0
3000C0
3000C0
30FFFC
30FFFC
3000C0
3000C0
3000C0
3000C0
303FC0
307FC0
30C0F0
30C0FC
18E0CE
187FC4
181F80
000000
000000
ENDCHAR

STARTCHAR jisx0208_245E
ENCODING 9310
SWIDTH 960 0
DWIDTH 24 0
BBX 24 24 0 -2
BITMAP
000000
001800
001800
001800
001870
1FFFF0
1FFF80
001800
001800
0018E0
0FFFE0
0FFF00
001800
001800
001800
07F800
0FFE00
181FC0
1819F0
1C3878
0FF010
03E000
000000
000000
ENDCHAR

STARTCHAR jisx0208_245F
ENCODING 9311
SWIDTH 960 0
DWIDTH 24 0
BBX 24 24 0 -2
BITMAP
000000
000000
003C00
07FE00
07CC00
000C00
001800
001800
001830
003030
003030
03FC30
0FFFB0
1CC3F0
38C078
31803E
618066
630060
6700C0
7E01C0
3C0380
000F00
000C00
000000
ENDCHAR

STARTCHAR jisx0208_2460
ENCODING 9312
SWIDTH 960 0
DWIDTH 24 0
BBX 24 24 0 -2
BITMAP
000000
018000
018000
018000
01B840
3FF8F0
3FC078
03001C
0F000E
1F0004
318000
318000
318000
338000
1F0020
0E0070
060038
060018
060018
070038
03FFF0
01FFE0
000000
000000
ENDCHAR

STARTCHAR jisx0208_2461
ENCODING 9313
SWIDTH 960 0
DWIDTH 24 0
BBX 24 24 0 -2
BITMAP
000000
000C00
000C00
180C00
180C00
187F80
19FFE0
0F98F0
0E1838
1C1818
1E301C
36300C
36300C
63600C
63600C
61C01C
61C018
61E038
634070
3E01E0
1C0FC0
000F00
000000
000000
ENDCHAR

STARTCHAR jisx0208_2462
ENCODING 9314
SWIDTH 960 0
DWIDTH 24 0
BBX 24 24 0 -2
BITMAP
000000
00C000
00C000
00C000
1CC000
1FFC00
03FC00
018000
018000
018000
398040
3FFCE0
07FC60
030030
030030
030018
030018
030018
030018
018030
01FFF0
007FC0
000000
000000
ENDCHAR

STARTCHAR jisx0208_2463
ENCODING 9315
SWIDTH 960 0
DWIDTH 24 0
BBX 24 24 0 -2
BITMAP
000000
000000
000000
000000
000000
000000
001800
031800
030FC0
033FE0
01FC70
03C630
1F8630
1CC030
00C070
00C7E0
0067C0
006000
006000
003000
003000
003000
003000
000000
ENDCHAR

STARTCHAR jisx0208_2464
ENCODING 9316
SWIDTH 960 0
DWIDTH 24 0
BBX 24 24 0 -2
BITMAP
000000
001800
001800
0C0C00
0C0FE0
0C3FF8
06FE1C
07C60C
7F0306
7B0306
030006
01800C
01801C
0183F8
00C3E0
00C000
00C000
006000
006000
006000
003000
003000
003000
000000
ENDCHAR

STARTCHAR jisx0208_2465
ENCODING 9317
SWIDTH 960 0
DWIDTH 24 0
BBX 24 24 0 -2
BITMAP
000000
000000
000000
000000
000000
000000
001800
001800
060C00
061F00
0C7FC0
0CECC0
0DCC60
0D8C60
0F0C60
0F0C60
0E4C60
0EECC0
067FC0
061F00
003800
007000
002000
000000
ENDCHAR

STARTCHAR jisx0208_2466
ENCODING 9318
SWIDTH 960 0
DWIDTH 24 0
BBX 24 24 0 -2
BITMAP
000000
000800
001C00
000E00
180600
181FC0
187FF0
18E338
31C30C
33830C
330306
360306
360306
3C0306
3C8306
3DC30C
38E30C
387338
183FF0
180FC0
181C00
007800
006000
000000
ENDCHAR

STARTCHAR jisx0208_2467
ENCODING 9319
SWIDTH 960 0
DWIDTH 24 0
BBX 24 24 0 -2
BITMAP
000000
000000
000000
000000
000000
000000
001800
001800
001800
001800
001FC0
001FC0
001800
001800
001800
001800
03F800
07FE00
0C1F80
0C19E0
07F860
03F000
000000
000000
ENDCHAR

STARTCHAR jisx0208_2468
ENCODING 9320
SWIDTH 960 0
DWIDTH 24 0
BBX 24 24 0 -2
BITMAP
000000
001800
001800
001800
001800
001800
001870
001FF0
001F80
001800
001800
001800
001800
001800
001800
07F800
0FFE00
181FC0
1819F0
1C3878
0FF010
03E000
000000
000000
ENDCHAR

STARTCHAR jisx0208_2469
ENCODING 9321
SWIDTH 960 0
DWIDTH 24 0
BBX 24 24 0 -2
BITMAP
000000
01E000
01FC00
001F00
000300
000000
060000
060000
060000
0C3F80
0CFFE0
0DC070
0F0030
1E0018
1C0018
080018
000018
000030
000070
0001E0
00FF80
00FE00
000000
000000
ENDCHAR

STARTCHAR jisx0208_246A
ENCODING 9322
SWIDTH 960 0
DWIDTH 24 0
BBX 24 24 0 -2
BITMAP
000000
000000
0600C0
0600C0
0600C0
0C0060
0C0060
0C0060
0C8060
0CC060
0D8060
0D8060
0F0060
0F0060
0E0060
060060
0600E0
0000C0
0001C0
000380
000F00
007E00
007800
000000
ENDCHAR

STARTCHAR jisx0208_246B
ENCODING 9323
SWIDTH 960 0
DWIDTH 24 0
BBX 24 24 0 -2
BITMAP
000000
000000
001F00
03FF80
03E700
000E00
001C00
003800
006000
00DF80
01FFE0
03E070
078030
0E0018
1C0018
380018
10F018
01FC30
018E70
0187E0
00FFC0
007F00
000000
000000
ENDCHAR

STARTCHAR jisx0208_246C
ENCODING 9324
SWIDTH 960 0
DWIDTH 24 0
BBX 24 24 0 -2
BITMAP
000000
060000
060000
060000
070780
3F9FC0
3F3860
067060
06E060
07C060
078060
0F0060
0E0060
1E0060
1E0060
360060
760064
26006E
06007C
060078
060030
060000
000000
000000
ENDCHAR

STARTCHAR jisx0208_246D
ENCODING 9325
SWIDTH 960 0
DWIDTH 24 0
BBX 24 24 0 -2
BITMAP
000000
000000
001F00
03FF80
03E700
000E00
001C00
003800
006000
00DF80
01FFE0
03E070
078030
0E0018
1C0018
380018
100018
000030
000070
0001E0
00FFC0
00FF00
000000
000000
ENDCHAR

STARTCHAR jisx0208_246E
ENCODING 9326
SWIDTH 960 0
DWIDTH 24 0
BBX 24 24 0 -2
BITMAP
000000
000000
000000
000000
000000
000000
018000
018000
018000
01C780
0FDFE0
0FBC60
01F030
01E030
03C030
038030
078030
0F8030
1D8060
0980E0
0187C0
018700
018000
000000
ENDCHAR

STARTCHAR jisx0208_246F
ENCODING 9327
SWIDTH 960 0
DWIDTH 24 0
BBX 24 24 0 -2
BITMAP
000000
060000
060000
060000
070000
3F87C0
3F1FF0
067838
06E018
07C00C
07800C
0F000C
0E000C
1E000C
1E000C
36001C
760018
260038
0600F0
0607E0
060780
060000
000000
000000
ENDCHAR

STARTCHAR jisx0208_2470
ENCODING 9328
SWIDTH 960 0
DWIDTH 24 0
BBX 24 24 0 -2
BITMAP
000000
000000
007C00
07FC00
078C00
001800
001800
007F80
01FFE0
03B070
073018
0E6018
1C600C
18C00C
39C00C
31800C
331E0C
373F98
3E31D8
1C30F0
001FE0
000F80
000000
000000
ENDCHAR

STARTCHAR jisx0208_2471
ENCODING 9329
SWIDTH 960 0
DWIDTH 24 0
BBX 24 24 0 -2
BITMAP
000000
000000
007E00
07FE00
079C00
003800
00FE00
01FF80
0781C0
0E00C0
1CF0C0
0999C0
019B80
01FF00
00FC00
03C000
0701C0
0F87F0
1FCE38
38FC1C
70780C
20300C
000000
000000
ENDCHAR

STARTCHAR jisx0208_2472
ENCODING 9330
SWIDTH 960 0
DWIDTH 24 0
BBX 24 24 0 -2
BITMAP
000000
006000
006000
0063C0
0FFFC0
0FFC00
018000
018000
037C18
03FE7C
0787E0
0E0780
1C1E00
387E00
10E600
01C600
038600
030000
030000
038038
01FFF8
00FFC0
000000
000000
ENDCHAR

STARTCHAR jisx0208_2473
ENCODING 9331
SWIDTH 960 0
DWIDTH 24 0
BBX 24 24 0 -2
BITMAP
000000
001000
003800
003000
007000
006000
00E000
00C000
01C000
018000
038000
037800
07FC00
078C0C
0E0C0C
0C0C0C
1C0C0C
180C18
380C18
300C30
7007E0
2003C0
000000
000000
ENDCHAR

STARTCHAR jisx0208_2521
ENCODING 9505
SWIDTH 960 0
DWIDTH 24 0
BBX 24 24 0 -2
BITMAP
000000
000000
000000
000000
000000
000000
000000
000040
0FFFE0
0FFFF0
0000E0
0001C0
003380
003700
003200
003000
003000
007000
006000
00E000
01C000
038000
010000
000000
ENDCHAR

STARTCHAR jisx0208_2522
ENCODING 9506
SWIDTH 960 0
DWIDTH 24 0
BBX 24 24 0 -2
BITMAP
000000
000000
000000
000010
3FFFF8
3FFFFC
000038
000030
000070
0030E0
0031C0
003380
003100
003000
003000
006000
006000
00C000
01C000
038000
070000
0E0000
040000
000000
ENDCHAR

STARTCHAR jisx0208_2523
ENCODING 9507
SWIDTH 960 0
DWIDTH 24 0
BBX 24 24 0 -2
BITMAP
000000
000000
000000
000000
000000
000000
000080
0001C0
000380
000700
000E00
001C00
007C00
00FC00
03CC00
0F8C00
060C00
000C00
000C00
000C00
000C00
000C00
000C00
000000
ENDCHAR

STARTCHAR jisx0208_2524
ENCODING 9508
SWIDTH 960 0
DWIDTH 24 0
BBX 24 24 0 -2
BITMAP
000000
000020
000070
0000E0
0001C0
000380
000700
000E00
001E00
003E00
00F600
01E600
078600
1F0600
0C0600
000600
000600
000600
000600
000600
000600
000600
000600
000000
ENDCHAR

STARTCHAR jisx0208_2525
ENCODING 9509
SWIDTH 960 0
DWIDTH 24 0
BBX 24 24 0 -2
BITMAP
000000
000000
000000
000000
000000
000000
001800
001800
001800
07FFE0
07FFE0
060060
060060
060060
060060
0600E0
0000C0
0001C0
000380
000700
001E00
007C00
007000
000000
ENDCHAR

STARTCHAR jisx0208_2526
ENCODING 9510
SWIDTH 960 0
DWIDTH 24 0
BBX 24 24 0 -2
BITMAP
000000
003000
003000
003000
003000
1FFFF0
1FFFF0
180030
180030
180030
180030
180030
180030
000060
000060
0000C0
0001C0
000380
000700
001E00
00FC00
00F000
000000
000000
ENDCHAR

STARTCHAR jisx0208_2527
ENCODING 9511
SWIDTH 960 0
DWIDTH 24 0
BBX 24 24 0 -2
BITMAP
000000
000000
000000
000000
000000
000000
000000
000000
000000
03FFC0
03FFC0
001800
001800
001800
001800
001800
001800
001800
001800
0FFFF0
0FFFF0
000000
000000
000000
ENDCHAR

STARTCHAR jisx0208_2528
ENCODING 9512
SWIDTH 960 0
DWIDTH 24 0
BBX 24 24 0 -2
BITMAP
000000
000000
000000
000000
000000
0FFFF0
0FFFF0
001800
001800
001800
001800
001800
001800
001800
001800
001800
001800
001800
3FFFFC
3FFFFC
000000
000000
000000
000000
ENDCHAR

STARTCHAR jisx0208_2529
ENCODING 9513
SWIDTH 960 0
DWIDTH 24 0
BBX 24 24 0 -2
BITMAP
000000
000000
000000
000000
000000
000000
000600
000600
000600
000600
0FFFE0
0FFFE0
001E00
003E00
007600
00E600
01C600
078600
1F0600
1C0600
000600
003E00
003C00
000000
ENDCHAR

STARTCHAR jisx0208_252A
ENCODING 9514
SWIDTH 960 0
DWIDTH 24 0
BBX 24 24 0 -2
BITMAP
000000
000300
000300
000300
000300
000300
1FFFFC
1FFFFC
000F00
001F00
003B00
007300
00E300
01C300
038300
0F0300
3E0300
380300
000300
000300
001F00
001E00
000000
000000
ENDCHAR

STARTCHAR jisx0208_252B
ENCODING 9515
SWIDTH 960 0
DWIDTH 24 0
BBX 24 24 0 -2
BITMAP
000000
006000
006000
006000
006000
006000
1FFFF0
1FFFF0
006030
006030
00E030
00C030
00C030
01C030
018030
038030
030070
070060
0E0060
1C00E0
380FC0
100F80
000000
000000
ENDCHAR

STARTCHAR jisx0208_252C
ENCODING 9516
SWIDTH 960 0
DWIDTH 24 0
BBX 24 24 0 -2
BITMAP
000000
006008
00602C
006034
006010
006000
1FFFF0
1FFFF0
006030
006030
00E030
00C030
00C030
01C030
018030
038030
030070
070060
0E0060
1C00E0
380FC0
100F80
000000
000000
ENDCHAR

STARTCHAR jisx0208_252D
ENCODING 9517
SWIDTH 960 0
DWIDTH 24 0
BBX 24 24 0 -2
BITMAP
000000
003000
003000
003000
003000
003FE0
1FFFE0
1FF000
003000
003000
003000
003000
003FF8
3FFFF8
3FF800
001800
001800
001800
001800
001800
001800
001800
001800
000000
ENDCHAR

STARTCHAR jisx0208_252E
ENCODING 9518
SWIDTH 960 0
DWIDTH 24 0
BBX 24 24 0 -2
BITMAP
000000
003004
003016
00301A
003008
003FE0
1FFFE0
1FF000
003000
003000
003000
003000
003FF8
3FFFF8
3FF800
001800
001800
001800
001800
001800
001800
001800
001800
000000
ENDCHAR

STARTCHAR jisx0208_252F
ENCODING 9519
SWIDTH 960 0
DWIDTH 24 0
BBX 24 24 0 -2
BITMAP
000000
003000
003000
007000
006020
00FFF0
01FFF8
038030
070030
0E0070
1C0060
0800E0
0001C0
000180
000380
000700
000E00
001C00
003800
00F000
03E000
038000
000000
000000
ENDCHAR

STARTCHAR jisx0208_2530
ENCODING 9520
SWIDTH 960 0
DWIDTH 24 0
BBX 24 24 0 -2
BITMAP
000000
003004
003016
00701A
006028
00FFF0
01FFF8
038030
070030
0E0070
1C0060
0800E0
0001C0
000180
000380
000700
000E00
001C00
003800
00F000
03E000
038000
000000
000000
ENDCHAR

STARTCHAR jisx0208_2531
ENCODING 9521
SWIDTH 960 0
DWIDTH 24 0
BBX 24 24 0 -2
BITMAP
000000
018000
018000
018000
030000
030000
07FFFC
07FFFC
0C0600
1C0600
380600
700600
200600
000600
000E00
000C00
001C00
003800
007000
01E000
03C000
010000
000000
000000
ENDCHAR

STARTCHAR jisx0208_2532
ENCODING 9522
SWIDTH 960 0
DWIDTH 24 0
BBX 24 24 0 -2
BITMAP
000000
018008
01802C
018034
030010
030000
07FFFC
07FFFC
0C0600
1C0600
380600
700600
200600
000600
000E00
000C00
001C00
003800
007000
01E000
03C000
010000
000000
000000
ENDCHAR

STARTCHAR jisx0208_2533
ENCODING 9523
SWIDTH 960 0
DWIDTH 24 0
BBX 24 24 0 -2
BITMAP
000000
000000
000000
000000
000000
0FFFF0
0FFFF0
000030
000030
000030
000030
000030
000030
000030
000030
000030
000030
000030
0FFFF0
0FFFF0
000030
000000
000000
000000
ENDCHAR

STARTCHAR jisx0208_2534
ENCODING 9524
SWIDTH 960 0
DWIDTH 24 0
BBX 24 24 0 -2
BITMAP
000000
000008
00002C
000034
000010
0FFFF0
0FFFF0
000030
000030
000030
000030
000030
000030
000030
000030
000030
000030
000030
0FFFF0
0FFFF0
000030
000000
000000
000000
ENDCHAR

STARTCHAR jisx0208_2535
ENCODING 9525
SWIDTH 960 0
DWIDTH 24 0
BBX 24 24 0 -2
BITMAP
000000
000000
030180
030180
030180
030180
030180
7FFFFE
7FFFFE
030180
030180
030180
030180
030180
000180
000380
000300
000700
000E00
003C00
00F800
00E000
000000
000000
ENDCHAR

STARTCHAR jisx0208_2536
ENCODING 9526
SWIDTH 960 0
DWIDTH 24 0
BBX 24 24 0 -2
BITMAP
000000
000008
0301AC
0301B4
030190
030180
030180
7FFFFE
7FFFFE
030180
030180
030180
030180
030180
000180
000380
000300
000700
000E00
003C00
00F800
00E000
000000
000000
ENDCHAR

STARTCHAR jisx0208_2537
ENCODING 9527
SWIDTH 960 0
DWIDTH 24 0
BBX 24 24 0 -2
BITMAP
000000
000000
000000
020000
078000
03C000
00E000
004000
100018
3C0018
1E0038
070030
020070
0000E0
0001C0
000380
000700
001E00
003C00
01F000
0FE000
0F0000
000000
000000
ENDCHAR

STARTCHAR jisx0208_2538
ENCODING 9528
SWIDTH 960 0
DWIDTH 24 0
BBX 24 24 0 -2
BITMAP
000000
000008
00002C
020034
078010
03C000
00E000
004000
100018
3C0018
1E0038
070030
020070
0000E0
0001C0
000380
000700
001E00
003C00
01F000
0FE000
0F0000
000000
000000
ENDCHAR

STARTCHAR jisx0208_2539
ENCODING 9529
SWIDTH 960 0
DWIDTH 24 0
BBX 24 24 0 -2
BITMAP
000000
000000
000000
000080
0FFFC0
0FFFE0
0000C0
0001C0
000180
000380
000300
000700
000E00
001F00
003B80
0071C0
01E0E0
03C070
0F0030
3E0038
380010
000000
000000
000000
ENDCHAR

STARTCHAR jisx0208_253A
ENCODING 9530
SWIDTH 960 0
DWIDTH 24 0
BBX 24 24 0 -2
BITMAP
000000
000004
000016
00009A
0FFFC8
0FFFE0
0000C0
0001C0
000180
000380
000300
000700
000E00
001F00
003B80
0071C0
01E0E0
03C070
0F0030
3E0038
380010
000000
000000
000000
ENDCHAR

STARTCHAR jisx0208_253B
ENCODING 9531
SWIDTH 960 0
DWIDTH 24 0
BBX 24 24 0 -2
BITMAP
000000
000000
018000
018000
018000
018010
0183F8
01FFFC
3FFC18
3F8038
018070
0180E0
0181C0
018380
018100
018000
018000
018000
01C000
00FFF0
007FF0
000000
000000
000000
ENDCHAR

STARTCHAR jisx0208_253C
ENCODING 9532
SWIDTH 960 0
DWIDTH 24 0
BBX 24 24 0 -2
BITMAP
000000
000004
018016
01801A
018008
018010
0183F8
01FFFC
3FFC18
3F8038
018070
0180E0
0181C0
018380
018100
018000
018000
018000
01C000
00FFF0
007FF0
000000
000000
000000
ENDCHAR

STARTCHAR jisx0208_253D
ENCODING 9533
SWIDTH 960 0
DWIDTH 24 0
BBX 24 24 0 -2
BITMAP
000000
000000
000000
000000
080000
1C0018
0E0018
070018
030038
038030
010030
000070
0000E0
0000C0
0001C0
000380
000700
000E00
003C00
00F800
03E000
038000
000000
000000
ENDCHAR

STARTCHAR jisx0208_253E
ENCODING 9534
SWIDTH 960 0
DWIDTH 24 0
BBX 24 24 0 -2
BITMAP
000000
000028
00003C
000014
080000
1C0018
0E0018
070018
030038
038030
010030
000070
0000E0
0000C0
0001C0
000380
000700
000E00
003C00
00F800
03E000
038000
000000
000000
ENDCHAR

STARTCHAR jisx0208_253F
ENCODING 9535
SWIDTH 960 0
DWIDTH 24 0
BBX 24 24 0 -2
BITMAP
000000
003000
003000
007000
006020
00FFF0
01FFF8
038030
070030
0E0070
1C4060
08F0E0
0078C0
001DC0
000F80
000700
000F80
001DC0
003880
00F000
07E000
078000
000000
000000
ENDCHAR

STARTCHAR jisx0208_2540
ENCODING 9536
SWIDTH 960 0
DWIDTH 24 0
BBX 24 24 0 -2
BITMAP
000000
003024
003036
007012
006020
00FFF0
01FFF8
038030
070030
0E0070
1C4060
08F0E0
0078C0
001DC0
000F80
000700
000F80
001DC0
003880
00F000
07E000
078000
000000
000000
ENDCHAR

STARTCHAR jisx0208_2541
ENCODING 9537
SWIDTH 960 0
DWIDTH 24 0
BBX 24 24 0 -2
BITMAP
000000
000000
0000E0
000FE0
0FFF00
0FFC00
000C00
000C00
000C00
000C00
3FFFFC
3FFFFC
000C00
000C00
000C00
001C00
001800
003800
007000
01E000
03C000
010000
000000
000000
ENDCHAR

STARTCHAR jisx0208_2542
ENCODING 9538
SWIDTH 960 0
DWIDTH 24 0
BBX 24 24 0 -2
BITMAP
000000
000000
0000E0
000FE8
0FFF0C
0FFC14
000C18
000C08
000C00
000C00
3FFFFC
3FFFFC
000C00
000C00
000C00
001C00
001800
003800
007000
01E000
03C000
010000
000000
000000
ENDCHAR

STARTCHAR jisx0208_2543
ENCODING 9539
SWIDTH 960 0
DWIDTH 24 0
BBX 24 24 0 -2
BITMAP
000000
000000
000000
000000
000000
000000
000000
002000
047000
0E3060
063860
071860
0310E0
0200C0
0001C0
000380
000700
000E00
001C00
007800
03F000
03C000
000000
000000
ENDCHAR

STARTCHAR jisx0208_2544
ENCODING 9540
SWIDTH 960 0
DWIDTH 24 0
BBX 24 24 0 -2
BITMAP
000000
000000
000000
002000
086000
187018
1C3018
0C3818
0E1838
061030
040030
000070
0000E0
0000C0
0001C0
000380
000700
000E00
003C00
00F800
03E000
038000
000000
000000
ENDCHAR

STARTCHAR jisx0208_2545
ENCODING 9541
SWIDTH 960 0
DWIDTH 24 0
BBX 24 24 0 -2
BITMAP
000000
000024
000036
002012
086000
187018
1C3018
0C3818
0E1838
061030
040030
000070
0000E0
0000C0
0001C0
000380
000700
000E00
003C00
00F800
03E000
038000
000000
000000
ENDCHAR

STARTCHAR jisx0208_2546
ENCODING 9542
SWIDTH 960 0
DWIDTH 24 0
BBX 24 24 0 -2
BITMAP
000000
000000
000000
03FFE0
03FFE0
000000
000000
000000
000000
1FFFFC
1FFFFC
000C00
000C00
000C00
000C00
001C00
001800
003800
007000
01E000
03C000
010000
000000
000000
ENDCHAR

STARTCHAR jisx0208_2547
ENCODING 9543
SWIDTH 960 0
DWIDTH 24 0
BBX 24 24 0 -2
BITMAP
000000
000004
000016
03FFDA
03FFC8
000000
000000
000000
000000
1FFFFC
1FFFFC
000C00
000C00
000C00
000C00
001C00
001800
003800
007000
01E000
03C000
010000
000000
000000
ENDCHAR

STARTCHAR jisx0208_2548
ENCODING 9544
SWIDTH 960 0
DWIDTH 24 0
BBX 24 24 0 -2
BITMAP
000000
00C000
00C000
00C000
00C000
00C000
00C000
00C000
00D000
00FC00
00DF00
00C780
00C1C0
00C080
00C000
00C000
00C000
00C000
00C000
00C000
00C000
00C000
00C000
000000
ENDCHAR

STARTCHAR jisx0208_2549
ENCODING 9545
SWIDTH 960 0
DWIDTH 24 0
BBX 24 24 0 -2
BITMAP
000000
00C020
00C030
00C090
00C0C0
00C040
00C000
00C000
00D000
00FC00
00DF00
00C780
00C1C0
00C080
00C000
00C000
00C000
00C000
00C000
00C000
00C000
00C000
00C000
000000
ENDCHAR

STARTCHAR jisx0208_254A
ENCODING 9546
SWIDTH 960 0
DWIDTH 24 0
BBX 24 24 0 -2
BITMAP
000000
000C00
000C00
000C00
000C00
000C00
000C00
1FFFFC
1FFFFC
000C00
000C00
000C00
000C00
000C00
001C00
001800
003800
007000
00E000
03C000
078000
020000
000000
000000
ENDCHAR

STARTCHAR jisx0208_254B
ENCODING 9547
SWIDTH 960 0
DWIDTH 24 0
BBX 24 24 0 -2
BITMAP
000000
000000
000000
000000
000000
07FFE0
07FFE0
000000
000000
000000
000000
000000
000000
000000
000000
000000
000000
000000
3FFFFC
3FFFFC
000000
000000
000000
000000
ENDCHAR

STARTCHAR jisx0208_254C
ENCODING 9548
SWIDTH 960 0
DWIDTH 24 0
BBX 24 24 0 -2
BITMAP
000000
000000
000000
000040
07FFE0
07FFF0
000060
000060
0000E0
0000C0
0181C0
03E180
00FB80
003F00
000E00
001F80
0039C0
00F0E0
01E040
078000
1F0000
1C0000
000000
000000
ENDCHAR

STARTCHAR jisx0208_254D
ENCODING 9549
SWIDTH 960 0
DWIDTH 24 0
BBX 24 24 0 -2
BITMAP
000000
00F000
00FE00
000E00
000000
000100
07FF80
07FFC0
000380
000700
000E00
001C00
007880
00F9E0
03D8F0
0F9838
3E181C
181808
001800
001800
001800
001800
001800
000000
ENDCHAR

STARTCHAR jisx0208_254E
ENCODING 9550
SWIDTH 960 0
DWIDTH 24 0
BBX 24 24 0 -2
BITMAP
000000
000000
000000
000030
000030
000030
000070
000060
0000E0
0001C0
000180
000380
000700
000E00
001C00
003800
00F000
01E000
078000
1F0000
1C0000
000000
000000
000000
ENDCHAR

STARTCHAR jisx0208_254F
ENCODING 9551
SWIDTH 960 0
DWIDTH 24 0
BBX 24 24 0 -2
BITMAP
000000
000000
000000
000000
000000
00C000
00C100
00C380
01C1C0
0180E0
018060
038070
030038
070018
0E001C
0C000C
1C000E
380006
700006
200004
000000
000000
000000
000000
ENDCHAR

STARTCHAR jisx0208_2550
ENCODING 9552
SWIDTH 960 0
DWIDTH 24 0
BBX 24 24 0 -2
BITMAP
000000
000000
000010
000018
000028
00C030
00C110
00C380
01C1C0
0180E0
018060
038070
030038
070018
0E001C
0C000C
1C000E
380006
700006
200004
000000
000000
000000
000000
ENDCHAR

STARTCHAR jisx0208_2551
ENCODING 9553
SWIDTH 960 0
DWIDTH 24 0
BBX 24 24 0 -2
BITMAP
000000
000000
00001C
000036
000022
00C036
00C11C
00C380
01C1C0
0180E0
018060
038070
030038
070018
0E001C
0C000C
1C000E
380006
700006
200004
000000
000000
000000
000000
ENDCHAR

STARTCHAR jisx0208_2552
ENCODING 9554
SWIDTH 960 0
DWIDTH 24 0
BBX 24 24 0 -2
BITMAP
000000
000000
060000
060000
060000
060000
060060
0603F0
061FC0
07FE00
07E000
060000
060000
060000
060000
060000
060000
060000
070000
03FFF0
01FFF0
000000
000000
000000
ENDCHAR

STARTCHAR jisx0208_2553
ENCODING 9555
SWIDTH 960 0
DWIDTH 24 0
BBX 24 24 0 -2
BITMAP
000000
000008
06002C
060034
060010
060000
060060
0603F0
061FC0
07FE00
07E000
060000
060000
060000
060000
060000
060000
060000
070000
03FFF0
01FFF0
000000
000000
000000
ENDCHAR

STARTCHAR jisx0208_2554
ENCODING 9556
SWIDTH 960 0
DWIDTH 24 0
BBX 24 24 0 -2
BITMAP
000000
00001C
060036
060022
060036
06001C
060060
0603F0
061FC0
07FE00
07E000
060000
060000
060000
060000
060000
060000
060000
070000
03FFF0
01FFF0
000000
000000
000000
ENDCHAR

STARTCHAR jisx0208_2555
ENCODING 9557
SWIDTH 960 0
DWIDTH 24 0
BBX 24 24 0 -2
BITMAP
000000
000000
000000
000000
000020
1FFFF0
1FFFF8
000030
000030
000070
000060
000060
0000E0
0000C0
0001C0
000380
000700
000E00
003C00
00F800
03E000
038000
000000
000000
ENDCHAR

STARTCHAR jisx0208_2556
ENCODING 9558
SWIDTH 960 0
DWIDTH 24 0
BBX 24 24 0 -2
BITMAP
000000
000014
00001E
00000A
000020
1FFFF0
1FFFF8
000030
000030
000070
000060
000060
0000E0
0000C0
0001C0
000380
000700
000E00
003C00
00F800
03E000
038000
000000
000000
ENDCHAR

STARTCHAR jisx0208_2557
ENCODING 9559
SWIDTH 960 0
DWIDTH 24 0
BBX 24 24 0 -2
BITMAP
000000
00001C
000036
000022
000036
1FFFFC
1FFFF0
000030
000030
000070
000060
000060
0000E0
0000C0
0001C0
000380
000700
000E00
003C00
00F800
03E000
038000
000000
000000
ENDCHAR

STARTCHAR jisx0208_2558
ENCODING 9560
SWIDTH 960 0
DWIDTH 24 0
BBX 24 24 0 -2
BITMAP
000000
000000
000000
000000
000000
000000
00C000
01E000
03F000
073800
0E1C00
1C0F00
380780
7001C0
2000E0
000078
00003C
00000E
000004
000000
000000
000000
000000
000000
ENDCHAR

STARTCHAR jisx0208_2559
ENCODING 9561
SWIDTH 960 0
DWIDTH 24 0
BBX 24 24 0 -2
BITMAP
000000
000000
000000
000000
000040
000060
00C120
01E180
03F080
073800
0E1C00
1C0F00
380780
7001C0
2000E0
000078
00003C
00000E
000004
000000
000000
000000
000000
000000
ENDCHAR

STARTCHAR jisx0208_255A
ENCODING 9562
SWIDTH 960 0
DWIDTH 24 0
BBX 24 24 0 -2
BITMAP
000000
000000
000000
000000
0000E0
0001B0
00C110
01E1B0
03F0E0
073800
0E1C00
1C0F00
380780
7001C0
2000E0
000078
00003C
00000E
000004
000000
000000
000000
000000
000000
ENDCHAR

STARTCHAR jisx0208_255B
ENCODING 9563
SWIDTH 960 0
DWIDTH 24 0
BBX 24 24 0 -2
BITMAP
000000
001800
001800
001800
001800
001800
3FFFFC
3FFFFC
001800
001800
061840
0618E0
0E1870
0C1830
1C1838
181818
38181C
70180C
201808
001800
00F800
00F000
000000
000000
ENDCHAR

STARTCHAR jisx0208_255C
ENCODING 9564
SWIDTH 960 0
DWIDTH 24 0
BBX 24 24 0 -2
BITMAP
000000
001808
00182C
001834
001810
001800
3FFFFC
3FFFFC
001800
001800
061840
0618E0
0E1870
0C1830
1C1838
181818
38181C
70180C
201808
001800
00F800
00F000
000000
000000
ENDCHAR

STARTCHAR jisx0208_255D
ENCODING 9565
SWIDTH 960 0
DWIDTH 24 0
BBX 24 24 0 -2
BITMAP
000000
001838
00186C
001844
00186C
001838
3FFFFC
3FFFFC
001800
001800
061840
0618E0
0E1870
0C1830
1C1838
181818
38181C
70180C
201808
001800
00F800
00F000
000000
000000
ENDCHAR

STARTCHAR jisx0208_255E
ENCODING 9566
SWIDTH 960 0
DWIDTH 24 0
BBX 24 24 0 -2
BITMAP
000000
000000
000000
000000
000010
3FFFF8
3FFFFC
000038
000030
000070
0000E0
0001C0
010380
038700
01CE00
00FC00
007800
003800
001C00
000C00
000E00
000400
000000
000000
ENDCHAR

STARTCHAR jisx0208_255F
ENCODING 9567
SWIDTH 960 0
DWIDTH 24 0
BBX 24 24 0 -2
BITMAP
000000
000000
000000
01F000
01FE00
001F80
0003C0
000080
000000
01E000
01FC00
003F00
000780
000100
000000
000000
0F0000
0FE000
01FC00
003F00
0007C0
0001E0
000040
000000
ENDCHAR

STARTCHAR jisx0208_2560
ENCODING 9568
SWIDTH 960 0
DWIDTH 24 0
BBX 24 24 0 -2
BITMAP
000000
000000
000000
001800
001800
003800
003000
003000
007000
006000
00E000
00C000
01C080
0181C0
0380E0
030070
070030
060FF8
3FFFF8
1FF01C
10000C
000008
000000
000000
ENDCHAR

STARTCHAR jisx0208_2561
ENCODING 9569
SWIDTH 960 0
DWIDTH 24 0
BBX 24 24 0 -2
BITMAP
000000
000000
000000
000060
000060
0000E0
0000C0
0001C0
00C180
01F380
007F00
001E00
000F00
001F80
0039C0
0070E0
01E040
03C000
0F0000
3E0000
380000
000000
000000
000000
ENDCHAR

STARTCHAR jisx0208_2562
ENCODING 9570
SWIDTH 960 0
DWIDTH 24 0
BBX 24 24 0 -2
BITMAP
000000
000000
000000
000000
0FFFE0
0FFFE0
006000
006000
006000
006000
3FFFFC
3FFFFC
006000
006000
006000
006000
006000
006000
006000
007FF0
003FF0
000000
000000
000000
ENDCHAR

STARTCHAR jisx0208_2563
ENCODING 9571
SWIDTH 960 0
DWIDTH 24 0
BBX 24 24 0 -2
BITMAP
000000
000000
000000
000000
000000
000000
00C000
00C000
00C000
00C040
00CFE0
01FFF0
1FF0E0
1E61C0
006380
006700
006200
003000
003000
003000
003000
003000
003000
000000
ENDCHAR

STARTCHAR jisx0208_2564
ENCODING 9572
SWIDTH 960 0
DWIDTH 24 0
BBX 24 24 0 -2
BITMAP
000000
00C000
00C000
00C000
00C000
00C008
0063FC
01FFFE
7FFC1C
7E6018
006038
006070
0030E0
0031C0
003080
003000
003000
001800
001800
001800
001800
001800
001800
000000
ENDCHAR

STARTCHAR jisx0208_2565
ENCODING 9573
SWIDTH 960 0
DWIDTH 24 0
BBX 24 24 0 -2
BITMAP
000000
000000
000000
000000
000000
000000
000000
000000
000000
07FF00
07FF00
000300
000300
000300
000300
000600
000600
000600
000600
1FFFF0
1FFFF0
000000
000000
000000
ENDCHAR

STARTCHAR jisx0208_2566
ENCODING 9574
SWIDTH 960 0
DWIDTH 24 0
BBX 24 24 0 -2
BITMAP
000000
000000
000000
000000
000000
0FFF80
0FFF80
000180
000180
000180
000180
000180
000180
000300
000300
000300
000300
000300
7FFFFC
7FFFFC
000000
000000
000000
000000
ENDCHAR

STARTCHAR jisx0208_2567
ENCODING 9575
SWIDTH 960 0
DWIDTH 24 0
BBX 24 24 0 -2
BITMAP
000000
000000
000000
000000
000000
000000
000000
000000
03FFC0
03FFC0
0000C0
0000C0
0000C0
01FFC0
01FFC0
0000C0
0000C0
0000C0
0000C0
03FFC0
03FFC0
0000C0
000000
000000
ENDCHAR

STARTCHAR jisx0208_2568
ENCODING 9576
SWIDTH 960 0
DWIDTH 24 0
BBX 24 24 0 -2
BITMAP
000000
000000
000000
000000
0FFFE0
0FFFE0
000060
000060
000060
000060
000060
07FFE0
07FFE0
000060
000060
000060
000060
000060
000060
0FFFE0
0FFFE0
000060
000000
000000
ENDCHAR

STARTCHAR jisx0208_2569
ENCODING 9577
SWIDTH 960 0
DWIDTH 24 0
BBX 24 24 0 -2
BITMAP
000000
000000
000000
07FFC0
07FFC0
000000
000000
000020
1FFFF0
1FFFF8
000030
000030
000060
000060
0000C0
0001C0
000380
000700
000E00
003C00
01F800
01E000
000000
000000
ENDCHAR

STARTCHAR jisx0208_256A
ENCODING 9578
SWIDTH 960 0
DWIDTH 24 0
BBX 24 24 0 -2
BITMAP
000000
000000
0600C0
0600C0
0600C0
0600C0
0600C0
0600C0
0600C0
0600C0
0600C0
0600C0
0600C0
0600C0
0000C0
0001C0
000180
000380
000700
001E00
00FC00
00F000
000000
000000
ENDCHAR

STARTCHAR jisx0208_256B
ENCODING 9579
SWIDTH 960 0
DWIDTH 24 0
BBX 24 24 0 -2
BITMAP
000000
000000
000000
000C00
030C00
030C00
030C00
030C00
030C00
030C00
030C00
030C00
030C04
070C0E
060C1C
060C38
0E0C70
0C0DE0
1C1FC0
380F00
700400
200000
000000
000000
ENDCHAR

STARTCHAR jisx0208_256C
ENCODING 9580
SWIDTH 960 0
DWIDTH 24 0
BBX 24 24 0 -2
BITMAP
000000
000000
000000
060000
060000
060000
060000
060000
060000
060000
060000
060000
060010
060038
060070
0601E0
0603C0
060F00
067E00
0FF800
07C000
020000
000000
000000
ENDCHAR

STARTCHAR jisx0208_256D
ENCODING 9581
SWIDTH 960 0
DWIDTH 24 0
BBX 24 24 0 -2
BITMAP
000000
000000
000000
000000
000000
0FFFF0
0FFFF0
0C0030
0C0030
0C0030
0C0030
0C0030
0C0030
0C0030
0C0030
0C0030
0C0030
0C0030
0FFFF0
0FFFF0
0C0030
000000
000000
000000
ENDCHAR

STARTCHAR jisx0208_256E
ENCODING 9582
SWIDTH 960 0
DWIDTH 24 0
BBX 24 24 0 -2
BITMAP
000000
000000
000000
000000
000000
000000
000000
000000
07FFC0
07FFC0
0600C0
0600C0
0600C0
0600C0
0600C0
0601C0
000180
000380
000700
001E00
007C00
007000
000000
000000
ENDCHAR

STARTCHAR jisx0208_256F
ENCODING 9583
SWIDTH 960 0
DWIDTH 24 0
BBX 24 24 0 -2
BITMAP
000000
000000
000000
000000
1FFFF0
1FFFF0
180030
180030
180030
180030
180030
180030
180030
000060
000060
0000C0
0001C0
000380
000700
001E00
00FC00
00F000
000000
000000
ENDCHAR

STARTCHAR jisx0208_2570
ENCODING 9584
SWIDTH 960 0
DWIDTH 24 0
BBX 24 24 0 -2
BITMAP
000000
000C00
000C00
000C00
000C00
0FFFF0
0FFFF0
0C0C00
0C0C00
0C0C00
0C0C00
0C0C00
0C0C00
0C0C00
7FFFFC
7FFFFC
000C00
000C00
000C00
000C00
000C00
000C00
000C00
000000
ENDCHAR

STARTCHAR jisx0208_2571
ENCODING 9585
SWIDTH 960 0
DWIDTH 24 0
BBX 24 24 0 -2
BITMAP
000000
000000
000000
000000
000040
07FFE0
07FFF0
0000E0
0001C0
000380
000700
001E00
001C00
001800
001800
001800
001800
001800
3FFFFC
3FFFFC
000000
000000
000000
000000
ENDCHAR

STARTCHAR jisx0208_2572
ENCODING 9586
SWIDTH 960 0
DWIDTH 24 0
BBX 24 24 0 -2
BITMAP
000000
000000
000000
000040
1FFFE0
1FFFF0
000060
000060
000060
000060
0FFFE0
0FFFC0
0000C0
0001C0
000180
000380
000700
000E00
001C00
007800
03F000
03C000
000000
000000
ENDCHAR

STARTCHAR jisx0208_2573
ENCODING 9587
SWIDTH 960 0
DWIDTH 24 0
BBX 24 24 0 -2
BITMAP
000000
000000
000000
080000
1E0000
0F0000
038000
010018
000018
000038
000030
000070
0000E0
0001C0
000380
000700
001E00
003C00
01F000
0FE000
0F0000
000000
000000
000000
ENDCHAR

STARTCHAR jisx0208_2574
ENCODING 9588
SWIDTH 960 0
DWIDTH 24 0
BBX 24 24 0 -2
BITMAP
000000
003004
003016
00301A
003008
1FFFF0
1FFFF0
180030
180030
180030
180030
180030
180030
000060
000060
0000C0
0001C0
000380
000700
001E00
00FC00
00F000
000000
000000
ENDCHAR

STARTCHAR jisx0208_2575
ENCODING 9589
SWIDTH 960 0
DWIDTH 24 0
BBX 24 24 0 -2
BITMAP
000000
000000
000000
000000
000000
000000
006000
006000
006000
006000
0FFFC0
0FFFC0
0060C0
0060C0
00E0C0
00C0C0
00C0C0
01C0C0
0180C0
0380C0
070180
0E0F80
040F00
000000
ENDCHAR

STARTCHAR jisx0208_2576
ENCODING 9590
SWIDTH 960 0
DWIDTH 24 0
BBX 24 24 0 -2
BITMAP
000000
000000
000000
000000
000000
000000
00C000
00C000
00C000
018000
01FFF0
03FFF0
070600
0E0600
1C0600
080600
000E00
000C00
001C00
003800
00F000
01E000
008000
000000
ENDCHAR

STARTCHAR jisx0208_2621
ENCODING 9761
SWIDTH 960 0
DWIDTH 24 0
BBX 24 24 0 -2
BITMAP
000000
000000
000000
001800
001800
003C00
003C00
006600
006600
006600
00C300
00C300
018180
018180
0300C0
03FFC0
03FFC0
060060
060060
0C0030
0C0030
000000
000000
000000
ENDCHAR

STARTCHAR jisx0208_2622
ENCODING 9762
SWIDTH 960 0
DWIDTH 24 0
BBX 24 24 0 -2
BITMAP
000000
000000
000000
07FE00
07FF80
060180
0600C0
0600C0
0600C0
060180
07FF00
07FF80
0601C0
0600C0
060060
060060
060060
060060
0600C0
07FFC0
07FF00
000000
000000
000000
ENDCHAR

STARTCHAR jisx0208_2623
ENCODING 9763
SWIDTH 960 0
DWIDTH 24 0
BBX 24 24 0 -2
BITMAP
000000
000000
000000
03FFE0
03FFE0
030000
030000
030000
030000
030000
030000
030000
030000
030000
030000
030000
030000
030000
030000
030000
030000
000000
000000
000000
ENDCHAR

STARTCHAR jisx0208_2624
ENCODING 9764
SWIDTH 960 0
DWIDTH 24 0
BBX 24 24 0 -2
BITMAP
000000
000000
000000
001800
001800
003C00
003C00
006600
006600
00C300
00C300
00C300
018180
018180
0300C0
0300C0
060060
060060
0C0030
0FFFF0
0FFFF0
000000
000000
000000
ENDCHAR

STARTCHAR jisx0208_2625
ENCODING 9765
SWIDTH 960 0
DWIDTH 24 0
BBX 24 24 0 -2
BITMAP
000000
000000
000000
03FFE0
03FFE0
030000
030000
030000
030000
030000
03FF80
03FF80
030000
030000
030000
030000
030000
030000
030000
03FFE0
03FFE0
000000
000000
000000
ENDCHAR

STARTCHAR jisx0208_2626
ENCODING 9766
SWIDTH 960 0
DWIDTH 24 0
BBX 24 24 0 -2
BITMAP
000000
000000
000000
03FFC0
03FFC0
000180
000300
000700
000600
000C00
001C00
001800
003000
007000
006000
00C000
01C000
018000
030000
07FFC0
07FFC0
000000
000000
000000
ENDCHAR

STARTCHAR jisx0208_2627
ENCODING 9767
SWIDTH 960 0
DWIDTH 24 0
BBX 24 24 0 -2
BITMAP
000000
000000
000000
060060
060060
060060
060060
060060
060060
060060
07FFE0
07FFE0
060060
060060
060060
060060
060060
060060
060060
060060
060060
000000
000000
000000
ENDCHAR

STARTCHAR jisx0208_2628
ENCODING 9768
SWIDTH 960 0
DWIDTH 24 0
BBX 24 24 0 -2
BITMAP
000000
000000
000000
007C00
01FF00
038380
0600C0
0600C0
0C0060
0C0060
0C0060
0DFF60
0DFF60
0C0060
0C0060
0C0060
0600C0
0600C0
038380
01FF00
007C00
000000
000000
000000
ENDCHAR

STARTCHAR jisx0208_2629
ENCODING 9769
SWIDTH 960 0
DWIDTH 24 0
BBX 24 24 0 -2
BITMAP
000000
000000
000000
001800
001800
001800
001800
001800
001800
001800
001800
001800
001800
001800
001800
001800
001800
001800
001800
001800
001800
000000
000000
000000
ENDCHAR

STARTCHAR jisx0208_262A
ENCODING 9770
SWIDTH 960 0
DWIDTH 24 0
BBX 24 24 0 -2
BITMAP
000000
000000
000000
0301C0
030380
030700
030E00
031C00
033800
037000
03E000
03F000
03B800
031800
030C00
030E00
030700
030300
030180
0301C0
0300E0
000000
000000
000000
ENDCHAR

STARTCHAR jisx0208_262B
ENCODING 9771
SWIDTH 960 0
DWIDTH 24 0
BBX 24 24 0 -2
BITMAP
000000
000000
000000
001800
001800
003C00
003C00
006600
006600
006600
00C300
00C300
018180
018180
0300C0
0300C0
0300C0
060060
060060
0C0030
0C0030
000000
000000
000000
ENDCHAR

STARTCHAR jisx0208_262C
ENCODING 9772
SWIDTH 960 0
DWIDTH 24 0
BBX 24 24 0 -2
BITMAP
000000
000000
000000
0C0030
0C0030
0E0070
0E0070
0F00F0
0F00F0
0F00F0
0D81B0
0D81B0
0CC330
0CC330
0C6630
0C6630
0C6630
0C3C30
0C3C30
0C1830
0C1830
000000
000000
000000
ENDCHAR

STARTCHAR jisx0208_262D
ENCODING 9773
SWIDTH 960 0
DWIDTH 24 0
BBX 24 24 0 -2
BITMAP
000000
000000
000000
060060
070060
078060
078060
06C060
06E060
066060
063060
063860
061C60
060C60
060660
060760
060360
0601E0
0601E0
0600E0
060060
000000
000000
000000
ENDCHAR

STARTCHAR jisx0208_262E
ENCODING 9774
SWIDTH 960 0
DWIDTH 24 0
BBX 24 24 0 -2
BITMAP
000000
000000
000000
07FFE0
07FFE0
000000
000000
000000
000000
000000
03FFC0
03FFC0
000000
000000
000000
000000
000000
000000
000000
07FFE0
07FFE0
000000
000000
000000
ENDCHAR

STARTCHAR jisx0208_262F
ENCODING 9775
SWIDTH 960 0
DWIDTH 24 0
BBX 24 24 0 -2
BITMAP
000000
000000
000000
007C00
01FF00
038380
0600C0
0600C0
0C0060
0C0060
0C0060
0C0060
0C0060
0C0060
0C0060
0C0060
0600C0
0600C0
038380
01FF00
007C00
000000
000000
000000
ENDCHAR

STARTCHAR jisx0208_2630
ENCODING 9776
SWIDTH 960 0
DWIDTH 24 0
BBX 24 24 0 -2
BITMAP
000000
000000
000000
07FFE0
07FFE0
060060
060060
060060
060060
060060
060060
060060
060060
060060
060060
060060
060060
060060
060060
060060
060060
000000
000000
000000
ENDCHAR

STARTCHAR jisx0208_2631
ENCODING 9777
SWIDTH 960 0
DWIDTH 24 0
BBX 24 24 0 -2
BITMAP
000000
000000
000000
03FF00
03FFC0
0300C0
030060
030060
030060
030060
030060
0300C0
03FFC0
03FF00
030000
030000
030000
030000
030000
030000
030000
000000
000000
000000
ENDCHAR

STARTCHAR jisx0208_2632
ENCODING 9778
SWIDTH 960 0
DWIDTH 24 0
BBX 24 24 0 -2
BITMAP
000000
000000
000000
07FFC0
07FFC0
038000
01C000
00E000
007000
003800
001C00
001C00
003800
007000
006000
00C000
01C000
038000
070000
07FFC0
07FFC0
000000
000000
000000
ENDCHAR

STARTCHAR jisx0208_2633
ENCODING 9779
SWIDTH 960 0
DWIDTH 24 0
BBX 24 24 0 -2
BITMAP
000000
000000
000000
0FFFF0
0FFFF0
001800
001800
001800
001800
001800
001800
001800
001800
001800
001800
001800
001800
001800
001800
001800
001800
000000
000000
000000
ENDCHAR

STARTCHAR jisx0208_2634
ENCODING 9780
SWIDTH 960 0
DWIDTH 24 0
BBX 24 24 0 -2
BITMAP
000000
000000
000000
03C3C0
07E7E0
0E7E70
0C3C30
0C1830
001800
001800
001800
001800
001800
001800
001800
001800
001800
001800
001800
001800
001800
000000
000000
000000
ENDCHAR

STARTCHAR jisx0208_2635
ENCODING 9781
SWIDTH 960 0
DWIDTH 24 0
BBX 24 24 0 -2
BITMAP
000000
000000
000000
001800
001800
007E00
01FF80
0399C0
061860
061860
0C1830
0C1830
0C1830
0C1830
061860
061860
0399C0
01FF80
007E00
001800
001800
000000
000000
000000
ENDCHAR

STARTCHAR jisx0208_2636
ENCODING 9782
SWIDTH 960 0
DWIDTH 24 0
BBX 24 24 0 -2
BITMAP
000000
000000
000000
0700E0
0381C0
018180
00C300
00E700
006600
003C00
003C00
001800
003C00
007E00
006600
00C300
01C380
018180
0300C0
0700E0
0E0070
000000
000000
000000
ENDCHAR

STARTCHAR jisx0208_2637
ENCODING 9783
SWIDTH 960 0
DWIDTH 24 0
BBX 24 24 0 -2
BITMAP
000000
000000
000000
061860
061860
061860
061860
061860
061860
061860
061860
061860
061860
061860
061860
0318C0
03FFC0
00FF00
001800
001800
001800
000000
000000
000000
ENDCHAR

STARTCHAR jisx0208_2638
ENCODING 9784
SWIDTH 960 0
DWIDTH 24 0
BBX 24 24 0 -2
BITMAP
000000
000000
000000
007C00
01FF00
038380
0600C0
0600C0
0C0060
0C0060
0C0060
0C0060
0C0060
0C0060
0600C0
0600C0
030180
018300
00C600
07C7C0
07C7C0
000000
000000
000000
ENDCHAR

STARTCHAR jisx0208_2641
ENCODING 9793
SWIDTH 960 0
DWIDTH 24 0
BBX 24 24 0 -2
BITMAP
000000
000000
000000
000000
000000
000000
000000
000000
007C60
00FE60
018760
030360
0303C0
0603C0
060380
060380
060300
060720
070F70
03FBE0
01F1C0
000000
000000
000000
ENDCHAR

STARTCHAR jisx0208_2642
ENCODING 9794
SWIDTH 960 0
DWIDTH 24 0
BBX 24 24 0 -2
BITMAP
000000
000000
000000
001F00
007FC0
0060C0
00C060
00C060
018060
0180C0
019F80
031F00
030180
0300C0
0300C0
0600C0
0600C0
0700C0
078180
0CFF80
0C7E00
0C0000
0C0000
000000
ENDCHAR

STARTCHAR jisx0208_2643
ENCODING 9795
SWIDTH 960 0
DWIDTH 24 0
BBX 24 24 0 -2
BITMAP
000000
000000
000000
000000
000000
000000
000000
000000
01E0E0
03F1E0
011B00
000E00
000C00
000C00
001800
001800
001800
003000
003000
003000
006000
006000
006000
000000
ENDCHAR

STARTCHAR jisx0208_2644
ENCODING 9796
SWIDTH 960 0
DWIDTH 24 0
BBX 24 24 0 -2
BITMAP
000000
000000
000000
003E00
007F80
0071E0
003840
001C00
003E00
00FF80
01C180
0380C0
0300C0
0600C0
0600C0
0600C0
060180
060380
030700
03FE00
00F800
000000
000000
000000
ENDCHAR

STARTCHAR jisx0208_2645
ENCODING 9797
SWIDTH 960 0
DWIDTH 24 0
BBX 24 24 0 -2
BITMAP
000000
000000
000000
000000
000000
000000
000000
000000
003E00
007F80
00C1C0
00C080
00C000
007C00
00FC00
018000
030080
0301C0
030380
01FF00
00FC00
000000
000000
000000
ENDCHAR

STARTCHAR jisx0208_2646
ENCODING 9798
SWIDTH 960 0
DWIDTH 24 0
BBX 24 24 0 -2
BITMAP
000000
000000
000000
007FC0
007FC0
000700
000C00
001800
003000
006000
00C000
018000
018000
030000
030000
030000
038000
01FE00
007F00
000180
004180
00FF80
007F00
000000
ENDCHAR

STARTCHAR jisx0208_2647
ENCODING 9799
SWIDTH 960 0
DWIDTH 24 0
BBX 24 24 0 -2
BITMAP
000000
000000
000000
000000
000000
000000
000000
000000
03CF80
07FFC0
027060
006060
00C060
00C060
00C0C0
0180C0
0180C0
018180
030180
030180
030300
000300
000300
000000
ENDCHAR

STARTCHAR jisx0208_2648
ENCODING 9800
SWIDTH 960 0
DWIDTH 24 0
BBX 24 24 0 -2
BITMAP
000000
000000
000000
001F00
007FC0
00E0C0
00C060
018060
018060
030060
030060
03FFE0
07FFC0
0600C0
0600C0
060180
060180
060300
030700
03FE00
00F800
000000
000000
000000
ENDCHAR

STARTCHAR jisx0208_2649
ENCODING 9801
SWIDTH 960 0
DWIDTH 24 0
BBX 24 24 0 -2
BITMAP
000000
000000
000000
000000
000000
000000
000000
000000
001800
001800
001800
003000
003000
003000
006000
006000
006000
00C400
00CE00
00FC00
007800
000000
000000
000000
ENDCHAR

STARTCHAR jisx0208_264A
ENCODING 9802
SWIDTH 960 0
DWIDTH 24 0
BBX 24 24 0 -2
BITMAP
000000
000000
000000
000000
000000
000000
000000
000000
00C1C0
00C3E0
00C640
018C00
019800
01F000
01F800
031800
030C00
030CC0
060CC0
060F80
060700
000000
000000
000000
ENDCHAR

STARTCHAR jisx0208_264B
ENCODING 9803
SWIDTH 960 0
DWIDTH 24 0
BBX 24 24 0 -2
BITMAP
000000
000000
000000
007800
007C00
000C00
000C00
000C00
000C00
000C00
001C00
003E00
007600
006600
00C600
01C600
018600
030600
030600
0607C0
0603C0
000000
000000
000000
ENDCHAR

STARTCHAR jisx0208_264C
ENCODING 9804
SWIDTH 960 0
DWIDTH 24 0
BBX 24 24 0 -2
BITMAP
000000
000000
000000
000000
000000
000000
000000
000000
00C0C0
00C0C0
00C0C0
018180
018180
018180
030300
030300
030300
060600
070E40
07FFE0
0CF3C0
0C0000
0C0000
000000
ENDCHAR

STARTCHAR jisx0208_264D
ENCODING 9805
SWIDTH 960 0
DWIDTH 24 0
BBX 24 24 0 -2
BITMAP
000000
000000
000000
000000
000000
000000
000000
000000
0100C0
0380C0
0180C0
00C0C0
00C180
00C180
006300
006700
006E00
007C00
007800
007000
006000
000000
000000
000000
ENDCHAR

STARTCHAR jisx0208_264E
ENCODING 9806
SWIDTH 960 0
DWIDTH 24 0
BBX 24 24 0 -2
BITMAP
000000
000000
000000
00FFC0
00FFC0
003000
006000
006000
006000
003F00
007F00
00C000
018000
030000
030000
030000
030000
01FE00
00FF00
000180
002180
007F80
003F00
000000
ENDCHAR

STARTCHAR jisx0208_264F
ENCODING 9807
SWIDTH 960 0
DWIDTH 24 0
BBX 24 24 0 -2
BITMAP
000000
000000
000000
000000
000000
000000
000000
000000
003E00
00FF80
01C180
0380C0
0300C0
0600C0
0600C0
0600C0
060180
060380
030700
03FE00
00F800
000000
000000
000000
ENDCHAR

STARTCHAR jisx0208_2650
ENCODING 9808
SWIDTH 960 0
DWIDTH 24 0
BBX 24 24 0 -2
BITMAP
000000
000000
000000
000000
000000
000000
000000
000020
03FFF0
07FFE0
026300
006300
00C300
00C600
00C600
018600
018C00
030C40
070CE0
0E0FC0
040780
000000
000000
000000
ENDCHAR

STARTCHAR jisx0208_2651
ENCODING 9809
SWIDTH 960 0
DWIDTH 24 0
BBX 24 24 0 -2
BITMAP
000000
000000
000000
000000
000000
000000
000000
000000
001F00
007FC0
00E0C0
01C060
018060
030060
030060
030060
0700C0
0701C0
078380
0DFF00
0C7C00
0C0000
0C0000
000000
ENDCHAR

STARTCHAR jisx0208_2652
ENCODING 9810
SWIDTH 960 0
DWIDTH 24 0
BBX 24 24 0 -2
BITMAP
000000
000000
000000
000000
000000
000000
000000
000020
003FF0
00FFE0
01C180
0380C0
0300C0
0600C0
0600C0
0600C0
060180
060380
030700
03FE00
00F800
000000
000000
000000
ENDCHAR

STARTCHAR jisx0208_2653
ENCODING 9811
SWIDTH 960 0
DWIDTH 24 0
BBX 24 24 0 -2
BITMAP
000000
000000
000000
000000
000000
000000
000000
000080
01FFC0
03FF80
011800
003000
003000
003000
006000
006000
006000
00C400
00CE00
00FC00
007800
000000
000000
000000
ENDCHAR

STARTCHAR jisx0208_2654
ENCODING 9812
SWIDTH 960 0
DWIDTH 24 0
BBX 24 24 0 -2
BITMAP
000000
000000
000000
000000
000000
000000
000000
000000
018100
018380
0181C0
0180C0
0180C0
0180C0
0300C0
0300C0
030180
030180
030700
01FE00
00F800
000000
000000
000000
ENDCHAR

STARTCHAR jisx0208_2655
ENCODING 9813
SWIDTH 960 0
DWIDTH 24 0
BBX 24 24 0 -2
BITMAP
000000
000000
000000
000000
000000
000600
000600
000400
003E00
00FF80
01CD80
0318C0
0318C0
0618C0
0630C0
063180
063180
036700
03FE00
00F800
004000
00C000
00C000
000000
ENDCHAR

STARTCHAR jisx0208_2656
ENCODING 9814
SWIDTH 960 0
DWIDTH 24 0
BBX 24 24 0 -2
BITMAP
000000
000000
000000
000000
000000
000000
000000
000000
01C070
03E0E0
0761C0
023380
003700
003E00
001C00
001800
003800
007C00
00EC00
01CC40
0386E0
0707C0
0E0380
000000
ENDCHAR

STARTCHAR jisx0208_2657
ENCODING 9815
SWIDTH 960 0
DWIDTH 24 0
BBX 24 24 0 -2
BITMAP
000000
000000
000000
000000
000000
000600
000600
000600
070C40
0F8CE0
058C60
019860
031860
031860
0630C0
0630C0
063180
066700
03FE00
01F800
004000
00C000
00C000
000000
ENDCHAR

STARTCHAR jisx0208_2658
ENCODING 9816
SWIDTH 960 0
DWIDTH 24 0
BBX 24 24 0 -2
BITMAP
000000
000000
000000
000000
000000
000000
000000
000000
004080
00E1C0
01C0E0
038C60
070C30
060C30
0C1830
0C1830
0C1830
0C3060
0E78E0
07FFC0
03CF00
000000
000000
000000
ENDCHAR

STARTCHAR jisx0208_2721
ENCODING 10017
SWIDTH 960 0
DWIDTH 24 0
BBX 24 24 0 -2
BITMAP
000000
000000
000000
001800
001800
003C00
003C00
006600
006600
006600
00C300
00C300
018180
018180
0300C0
03FFC0
03FFC0
060060
060060
0C0030
0C0030
000000
000000
000000
ENDCHAR

STARTCHAR jisx0208_2722
ENCODING 10018
SWIDTH 960 0
DWIDTH 24 0
BBX 24 24 0 -2
BITMAP
000000
000000
000000
03FFC0
03FFC0
030000
030000
030000
030000
030000
03FE00
03FF80
0301C0
0300C0
030060
030060
030060
0300C0
0301C0
03FF80
03FE00
000000
000000
000000
ENDCHAR

STARTCHAR jisx0208_2723
ENCODING 10019
SWIDTH 960 0
DWIDTH 24 0
BBX 24 24 0 -2
BITMAP
000000
000000
000000
03FE00
03FF80
030180
0300C0
0300C0
0300C0
030180
03FF00
03FF80
0301C0
0300C0
030060
030060
030060
0300C0
0301C0
03FF80
03FE00
000000
000000
000000
ENDCHAR

STARTCHAR jisx0208_2724
ENCODING 10020
SWIDTH 960 0
DWIDTH 24 0
BBX 24 24 0 -2
BITMAP
000000
000000
000000
03FFC0
03FFC0
030000
030000
030000
030000
030000
030000
030000
030000
030000
030000
030000
030000
030000
030000
030000
030000
000000
000000
000000
ENDCHAR

STARTCHAR jisx0208_2725
ENCODING 10021
SWIDTH 960 0
DWIDTH 24 0
BBX 24 24 0 -2
BITMAP
000000
000000
000000
01FF80
01FF80
018180
018180
018180
018180
018180
018180
018180
018180
018180
018180
030180
030180
030180
060180
1FFFE0
1FFFE0
180060
180060
000000
ENDCHAR

STARTCHAR jisx0208_2726
ENCODING 10022
SWIDTH 960 0
DWIDTH 24 0
BBX 24 24 0 -2
BITMAP
000000
000000
000000
03FFC0
03FFC0
030000
030000
030000
030000
030000
03FF80
03FF80
030000
030000
030000
030000
030000
030000
030000
03FFC0
03FFC0
000000
000000
000000
ENDCHAR

STARTCHAR jisx0208_2727
ENCODING 10023
SWIDTH 960 0
DWIDTH 24 0
BBX 24 24 0 -2
BITMAP
000000
00C600
00C600
000000
03FFC0
03FFC0
030000
030000
030000
030000
030000
03FF80
03FF80
030000
030000
030000
030000
030000
030000
03FFC0
03FFC0
000000
000000
000000
ENDCHAR

STARTCHAR jisx0208_2728
ENCODING 10024
SWIDTH 960 0
DWIDTH 24 0
BBX 24 24 0 -2
BITMAP
000000
000000
000000
0C1830
0E1870
0318C0
0318C0
019980
019980
00DB00
00FF00
01FF80
0399C0
0318C0
061860
061860
0C1830
0C1830
181818
181818
181818
000000
000000
000000
ENDCHAR

STARTCHAR jisx0208_2729
ENCODING 10025
SWIDTH 960 0
DWIDTH 24 0
BBX 24 24 0 -2
BITMAP
000000
000000
000000
00FE00
03FF80
030180
0600C0
0600C0
0000C0
000180
00FF80
00FF80
0001C0
0000C0
000060
0C0060
0C0060
0600C0
0701C0
03FF80
00FE00
000000
000000
000000
ENDCHAR

STARTCHAR jisx0208_272A
ENCODING 10026
SWIDTH 960 0
DWIDTH 24 0
BBX 24 24 0 -2
BITMAP
000000
000000
000000
060060
0600E0
0601E0
0601E0
060360
060760
060660
060C60
061C60
063860
063060
066060
06E060
06C060
078060
078060
070060
060060
000000
000000
000000
ENDCHAR

STARTCHAR jisx0208_272B
ENCODING 10027
SWIDTH 960 0
DWIDTH 24 0
BBX 24 24 0 -2
BITMAP
000000
00C600
00FE00
067C60
0600E0
0601E0
0601E0
060360
060760
060660
060C60
061C60
063860
063060
066060
06E060
06C060
078060
078060
070060
060060
000000
000000
000000
ENDCHAR

STARTCHAR jisx0208_272C
ENCODING 10028
SWIDTH 960 0
DWIDTH 24 0
BBX 24 24 0 -2
BITMAP
000000
000000
000000
0300E0
0301C0
030380
030300
030600
030E00
031C00
03F800
03F800
031C00
030C00
030600
030700
030380
030180
0300C0
0300E0
030070
000000
000000
000000
ENDCHAR

STARTCHAR jisx0208_272D
ENCODING 10029
SWIDTH 960 0
DWIDTH 24 0
BBX 24 24 0 -2
BITMAP
000000
000000
000000
01FFC0
01FFC0
0180C0
0180C0
0180C0
0180C0
0180C0
0180C0
0180C0
0180C0
0180C0
0180C0
0180C0
0180C0
0180C0
0180C0
0F80C0
0F00C0
000000
000000
000000
ENDCHAR

STARTCHAR jisx0208_272E
ENCODING 10030
SWIDTH 960 0
DWIDTH 24 0
BBX 24 24 0 -2
BITMAP
000000
000000
000000
0C0030
0C0030
0E0070
0E0070
0F00F0
0F00F0
0F00F0
0D81B0
0D81B0
0CC330
0CC330
0C6630
0C6630
0C6630
0C3C30
0C3C30
0C1830
0C1830
000000
000000
000000
ENDCHAR

STARTCHAR jisx0208_272F
ENCODING 10031
SWIDTH 960 0
DWIDTH 24 0
BBX 24 24 0 -2
BITMAP
000000
000000
000000
060060
060060
060060
060060
060060
060060
060060
07FFE0
07FFE0
060060
060060
060060
060060
060060
060060
060060
060060
060060
000000
000000
000000
ENDCHAR

STARTCHAR jisx0208_2730
ENCODING 10032
SWIDTH 960 0
DWIDTH 24 0
BBX 24 24 0 -2
BITMAP
000000
000000
000000
007C00
01FF00
038380
0600C0
0600C0
0C0060
0C0060
0C0060
0C0060
0C0060
0C0060
0C0060
0C0060
0600C0
0600C0
038380
01FF00
007C00
000000
000000
000000
ENDCHAR

STARTCHAR jisx0208_2731
ENCODING 10033
SWIDTH 960 0
DWIDTH 24 0
BBX 24 24 0 -2
BITMAP
000000
000000
000000
07FFE0
07FFE0
060060
060060
060060
060060
060060
060060
060060
060060
060060
060060
060060
060060
060060
060060
060060
060060
000000
000000
000000
ENDCHAR

STARTCHAR jisx0208_2732
ENCODING 10034
SWIDTH 960 0
DWIDTH 24 0
BBX 24 24 0 -2
BITMAP
000000
000000
000000
03FE00
03FF80
0301C0
0300C0
030060
030060
030060
030060
0300C0
0301C0
03FF80
03FE00
030000
030000
030000
030000
030000
030000
000000
000000
000000
ENDCHAR

STARTCHAR jisx0208_2733
ENCODING 10035
SWIDTH 960 0
DWIDTH 24 0
BBX 24 24 0 -2
BITMAP
000000
000000
000000
007C00
01FF00
038380
0601C0
0600C0
0C0000
0C0000
0C0000
0C0000
0C0000
0C0000
0C0060
0C0060
0600C0
0600C0
038380
01FF00
007C00
000000
000000
000000
ENDCHAR

STARTCHAR jisx0208_2734
ENCODING 10036
SWIDTH 960 0
DWIDTH 24 0
BBX 24 24 0 -2
BITMAP
000000
000000
000000
07FFE0
07FFE0
001800
001800
001800
001800
001800
001800
001800
001800
001800
001800
001800
001800
001800
001800
001800
001800
000000
000000
000000
ENDCHAR

STARTCHAR jisx0208_2735
ENCODING 10037
SWIDTH 960 0
DWIDTH 24 0
BBX 24 24 0 -2
BITMAP
000000
000000
000000
060060
060060
0300C0
0300C0
018180
018180
00C300
00C300
006600
006600
003C00
003C00
001800
001800
003000
007000
03E000
03C000
000000
000000
000000
ENDCHAR

STARTCHAR jisx0208_2736
ENCODING 10038
SWIDTH 960 0
DWIDTH 24 0
BBX 24 24 0 -2
BITMAP
000000
000000
000000
001800
001800
007E00
01FF80
0399C0
061860
061860
0C1830
0C1830
0C1830
0C1830
061860
061860
0399C0
01FF80
007E00
001800
001800
000000
000000
000000
ENDCHAR

STARTCHAR jisx0208_2737
ENCODING 10039
SWIDTH 960 0
DWIDTH 24 0
BBX 24 24 0 -2
BITMAP
000000
000000
000000
0700E0
0381C0
018180
00C300
00E700
006600
003C00
003C00
001800
003C00
007E00
006600
00C300
01C380
018180
0300C0
0700E0
0E0070
000000
000000
000000
ENDCHAR

STARTCHAR jisx0208_2738
ENCODING 10040
SWIDTH 960 0
DWIDTH 24 0
BBX 24 24 0 -2
BITMAP
000000
000000
000000
0600C0
0600C0
0600C0
0600C0
0600C0
0600C0
0600C0
0600C0
0600C0
0600C0
0600C0
0600C0
0600C0
0600C0
0600C0
0600C0
07FFE0
07FFF0
000030
000030
000000
ENDCHAR

STARTCHAR jisx0208_2739
ENCODING 10041
SWIDTH 960 0
DWIDTH 24 0
BBX 24 24 0 -2
BITMAP
000000
000000
000000
030180
030180
030180
030180
030180
030180
030180
030180
03FF80
01FF80
000180
000180
000180
000180
000180
000180
000180
000180
000000
000000
000000
ENDCHAR

STARTCHAR jisx0208_273A
ENCODING 10042
SWIDTH 960 0
DWIDTH 24 0
BBX 24 24 0 -2
BITMAP
000000
000000
000000
0C1830
0C1830
0C1830
0C1830
0C1830
0C1830
0C1830
0C1830
0C1830
0C1830
0C1830
0C1830
0C1830
0C1830
0C1830
0C1830
0FFFF0
0FFFF0
000000
000000
000000
ENDCHAR

STARTCHAR jisx0208_273B
ENCODING 10043
SWIDTH 960 0
DWIDTH 24 0
BBX 24 24 0 -2
BITMAP
000000
000000
000000
0C1830
0C1830
0C1830
0C1830
0C1830
0C1830
0C1830
0C1830
0C1830
0C1830
0C1830
0C1830
0C1830
0C1830
0C1830
0C1830
0FFFF8
0FFFFC
00000C
00000C
000000
ENDCHAR

STARTCHAR jisx0208_273C
ENCODING 10044
SWIDTH 960 0
DWIDTH 24 0
BBX 24 24 0 -2
BITMAP
000000
000000
000000
0F8000
0F8000
018000
018000
018000
018000
01FE00
01FF80
0181C0
0180C0
018060
018060
018060
018060
0180C0
0181C0
01FF80
01FE00
000000
000000
000000
ENDCHAR

STARTCHAR jisx0208_273D
ENCODING 10045
SWIDTH 960 0
DWIDTH 24 0
BBX 24 24 0 -2
BITMAP
000000
000000
000000
0C0060
0C0060
0C0060
0C0060
0C0060
0C0060
0FF060
0FFC60
0C0E60
0C0660
0C0360
0C0360
0C0360
0C0360
0C0660
0C0E60
0FFC60
0FF060
000000
000000
000000
ENDCHAR

STARTCHAR jisx0208_273E
ENCODING 10046
SWIDTH 960 0
DWIDTH 24 0
BBX 24 24 0 -2
BITMAP
000000
000000
000000
030000
030000
030000
030000
030000
030000
03FE00
03FF80
0301C0
0300C0
030060
030060
030060
030060
0300C0
0301C0
03FF80
03FE00
000000
000000
000000
ENDCHAR

STARTCHAR jisx0208_273F
ENCODING 10047
SWIDTH 960 0
DWIDTH 24 0
BBX 24 24 0 -2
BITMAP
000000
000000
000000
007C00
01FF00
038380
0700C0
0600C0
000060
000060
00FFE0
00FFE0
000060
000060
0C0060
0C0060
0600C0
0600C0
038380
01FF00
007C00
000000
000000
000000
ENDCHAR

STARTCHAR jisx0208_2740
ENCODING 10048
SWIDTH 960 0
DWIDTH 24 0
BBX 24 24 0 -2
BITMAP
000000
000000
000000
180F80
183FE0
187070
186030
18C018
18C018
18C018
1FC018
1FC018
18C018
18C018
18C018
18C018
18C018
186030
187070
183FE0
180F80
000000
000000
000000
ENDCHAR

STARTCHAR jisx0208_2741
ENCODING 10049
SWIDTH 960 0
DWIDTH 24 0
BBX 24 24 0 -2
BITMAP
000000
000000
000000
00FFC0
01FFC0
0380C0
0300C0
0300C0
0300C0
0380C0
01FFC0
00FFC0
00C0C0
0180C0
0180C0
0300C0
0300C0
0300C0
0600C0
0600C0
0600C0
000000
000000
000000
ENDCHAR

STARTCHAR jisx0208_2751
ENCODING 10065
SWIDTH 960 0
DWIDTH 24 0
BBX 24 24 0 -2
BITMAP
000000
000000
000000
000000
000000
000000
000000
000000
007C00
01FF00
038300
030180
000180
007F80
01FF80
018180
030180
030180
038780
01FF80
00F980
000000
000000
000000
ENDCHAR

STARTCHAR jisx0208_2752
ENCODING 10066
SWIDTH 960 0
DWIDTH 24 0
BBX 24 24 0 -2
BITMAP
000000
000000
000000
000180
003F80
00FE00
01C000
018000
037C00
03FF00
038300
030180
030180
030180
030180
030180
030180
030180
018300
01FF00
007C00
000000
000000
000000
ENDCHAR

STARTCHAR jisx0208_2753
ENCODING 10067
SWIDTH 960 0
DWIDTH 24 0
BBX 24 24 0 -2
BITMAP
000000
000000
000000
000000
000000
000000
000000
000000
01FE00
01FF00
018180
018180
018180
01FF00
01FF80
0181C0
0180C0
0180C0
0181C0
01FF80
01FF00
000000
000000
000000
ENDCHAR

STARTCHAR jisx0208_2754
ENCODING 10068
SWIDTH 960 0
DWIDTH 24 0
BBX 24 24 0 -2
BITMAP
000000
000000
000000
000000
000000
000000
000000
000000
00FF80
00FF80
00C000
00C000
00C000
00C000
00C000
00C000
00C000
00C000
00C000
00C000
00C000
000000
000000
000000
ENDCHAR

STARTCHAR jisx0208_2755
ENCODING 10069
SWIDTH 960 0
DWIDTH 24 0
BBX 24 24 0 -2
BITMAP
000000
000000
000000
000000
000000
000000
000000
000000
00FF00
00FF00
00C300
00C300
00C300
00C300
00C300
00C300
00C300
018300
018300
03FF80
07FFC0
0600C0
0600C0
000000
ENDCHAR

STARTCHAR jisx0208_2756
ENCODING 10070
SWIDTH 960 0
DWIDTH 24 0
BBX 24 24 0 -2
BITMAP
000000
000000
000000
000000
000000
000000
000000
000000
003C00
00FF00
01C380
018180
0300C0
03FFC0
03FFC0
030000
030000
0180C0
01C1C0
00FF80
003E00
000000
000000
000000
ENDCHAR

STARTCHAR jisx0208_2757
ENCODING 10071
SWIDTH 960 0
DWIDTH 24 0
BBX 24 24 0 -2
BITMAP
000000
000000
000000
000000
006600
006600
000000
000000
003C00
00FF00
01C380
018180
0300C0
03FFC0
03FFC0
030000
030000
0180C0
01C1C0
00FF80
003E00
000000
000000
000000
ENDCHAR

STARTCHAR jisx0208_2758
ENCODING 10072
SWIDTH 960 0
DWIDTH 24 0
BBX 24 24 0 -2
BITMAP
000000
000000
000000
000000
000000
000000
000000
000000
0718E0
0799E0
019980
00DB00
00DB00
007E00
00FF00
019980
019980
0318C0
0318C0
061860
061860
000000
000000
000000
ENDCHAR

STARTCHAR jisx0208_2759
ENCODING 10073
SWIDTH 960 0
DWIDTH 24 0
BBX 24 24 0 -2
BITMAP
000000
000000
000000
000000
000000
000000
000000
000000
007E00
00FF00
018180
018180
000180
003F00
003F80
0001C0
0300C0
0300C0
0181C0
01FF80
007F00
000000
000000
000000
ENDCHAR

STARTCHAR jisx0208_275A
ENCODING 10074
SWIDTH 960 0
DWIDTH 24 0
BBX 24 24 0 -2
BITMAP
000000
000000
000000
000000
000000
000000
000000
000000
030180
030380
030780
030780
030D80
031D80
033980
033180
036180
03E180
03C180
038180
030180
000000
000000
000000
ENDCHAR

STARTCHAR jisx0208_275B
ENCODING 10075
SWIDTH 960 0
DWIDTH 24 0
BBX 24 24 0 -2
BITMAP
000000
000000
000000
000000
000000
00C600
00FE00
007C00
030180
030380
030780
030780
030D80
031D80
033980
033180
036180
03E180
03C180
038180
030180
000000
000000
000000
ENDCHAR

STARTCHAR jisx0208_275C
ENCODING 10076
SWIDTH 960 0
DWIDTH 24 0
BBX 24 24 0 -2
BITMAP
000000
000000
000000
000000
000000
000000
000000
000000
018180
018380
018600
018600
018C00
01FC00
01FE00
018700
018300
018180
018180
0180C0
0180C0
000000
000000
000000
ENDCHAR

STARTCHAR jisx0208_275D
ENCODING 10077
SWIDTH 960 0
DWIDTH 24 0
BBX 24 24 0 -2
BITMAP
000000
000000
000000
000000
000000
000000
000000
000000
00FF80
00FF80
00C180
00C180
00C180
00C180
00C180
00C180
00C180
00C180
00C180
03C180
038180
000000
000000
000000
ENDCHAR

STARTCHAR jisx0208_275E
ENCODING 10078
SWIDTH 960 0
DWIDTH 24 0
BBX 24 24 0 -2
BITMAP
000000
000000
000000
000000
000000
000000
000000
000000
0300C0
0300C0
0381C0
0381C0
0381C0
03C3C0
03C3C0
0366C0
0366C0
033CC0
033CC0
0318C0
0318C0
000000
000000
000000
ENDCHAR

STARTCHAR jisx0208_275F
ENCODING 10079
SWIDTH 960 0
DWIDTH 24 0
BBX 24 24 0 -2
BITMAP
000000
000000
000000
000000
000000
000000
000000
000000
030180
030180
030180
030180
030180
03FF80
03FF80
030180
030180
030180
030180
030180
030180
000000
000000
000000
ENDCHAR

STARTCHAR jisx0208_2760
ENCODING 10080
SWIDTH 960 0
DWIDTH 24 0
BBX 24 24 0 -2
BITMAP
000000
000000
000000
000000
000000
000000
000000
000000
007C00
01FF00
038380
030180
0600C0
0600C0
0600C0
0600C0
0600C0
030180
038380
01FF00
007C00
000000
000000
000000
ENDCHAR

STARTCHAR jisx0208_2761
ENCODING 10081
SWIDTH 960 0
DWIDTH 24 0
BBX 24 24 0 -2
BITMAP
000000
000000
000000
000000
000000
000000
000000
000000
03FF80
03FF80
030180
030180
030180
030180
030180
030180
030180
030180
030180
030180
030180
000000
000000
000000
ENDCHAR

STARTCHAR jisx0208_2762
ENCODING 10082
SWIDTH 960 0
DWIDTH 24 0
BBX 24 24 0 -2
BITMAP
000000
000000
000000
000000
000000
000000
000000
000000
01BE00
01FF80
01C180
0180C0
0180C0
0180C0
0180C0
0180C0
0180C0
01C180
01FF80
01BE00
018000
018000
018000
000000
ENDCHAR

STARTCHAR jisx0208_2763
ENCODING 10083
SWIDTH 960 0
DWIDTH 24 0
BBX 24 24 0 -2
BITMAP
000000
000000
000000
000000
000000
000000
000000
000000
003C00
00FF00
01C380
0181C0
0300C0
030000
030000
030000
0300C0
0181C0
01C380
00FF00
003C00
000000
000000
000000
ENDCHAR

STARTCHAR jisx0208_2764
ENCODING 10084
SWIDTH 960 0
DWIDTH 24 0
BBX 24 24 0 -2
BITMAP
000000
000000
000000
000000
000000
000000
000000
000000
03FFC0
03FFC0
001800
001800
001800
001800
001800
001800
001800
001800
001800
001800
001800
000000
000000
000000
ENDCHAR

STARTCHAR jisx0208_2765
ENCODING 10085
SWIDTH 960 0
DWIDTH 24 0
BBX 24 24 0 -2
BITMAP
000000
000000
000000
000000
000000
000000
000000
000000
0180C0
0180C0
00C180
00C180
006300
006300
003600
003600
001C00
001C00
001800
001800
003000
00F000
00E000
000000
ENDCHAR

STARTCHAR jisx0208_2766
ENCODING 10086
SWIDTH 960 0
DWIDTH 24 0
BBX 24 24 0 -2
BITMAP
000000
000000
000000
001800
001800
001800
001800
001800
01DB80
07FFE0
063C60
0C1830
0C1830
0C1830
0C1830
0C1830
0C1830
063C60
07FFE0
01DB80
001800
001800
001800
000000
ENDCHAR

STARTCHAR jisx0208_2767
ENCODING 10087
SWIDTH 960 0
DWIDTH 24 0
BBX 24 24 0 -2
BITMAP
000000
000000
000000
000000
000000
000000
000000
000000
030180
038380
01C700
00C600
006C00
007C00
003800
007C00
00EE00
00C600
018300
038380
030180
000000
000000
000000
ENDCHAR

STARTCHAR jisx0208_2768
ENCODING 10088
SWIDTH 960 0
DWIDTH 24 0
BBX 24 24 0 -2
BITMAP
000000
000000
000000
000000
000000
000000
000000
000000
018180
018180
018180
018180
018180
018180
018180
018180
018180
018180
018180
01FFC0
01FFE0
000060
000060
000000
ENDCHAR

STARTCHAR jisx0208_2769
ENCODING 10089
SWIDTH 960 0
DWIDTH 24 0
BBX 24 24 0 -2
BITMAP
000000
000000
000000
000000
000000
000000
000000
000000
018180
018180
018180
018180
018180
018180
01FF80
00FF80
000180
000180
000180
000180
000180
000000
000000
000000
ENDCHAR

STARTCHAR jisx0208_276A
ENCODING 10090
SWIDTH 960 0
DWIDTH 24 0
BBX 24 24 0 -2
BITMAP
000000
000000
000000
000000
000000
000000
000000
000000
061860
061860
061860
061860
061860
061860
061860
061860
061860
061860
061860
07FFE0
07FFE0
000000
000000
000000
ENDCHAR

STARTCHAR jisx0208_276B
ENCODING 10091
SWIDTH 960 0
DWIDTH 24 0
BBX 24 24 0 -2
BITMAP
000000
000000
000000
000000
000000
000000
000000
000000
061860
061860
061860
061860
061860
061860
061860
061860
061860
061860
061860
07FFE0
07FFF0
000030
000030
000000
ENDCHAR

STARTCHAR jisx0208_276C
ENCODING 10092
SWIDTH 960 0
DWIDTH 24 0
BBX 24 24 0 -2
BITMAP
000000
000000
000000
000000
000000
000000
000000
000000
03C000
03C000
00C000
00C000
00FE00
00FF80
00C180
00C0C0
00C0C0
00C0C0
00C180
00FF80
00FE00
000000
000000
000000
ENDCHAR

STARTCHAR jisx0208_276D
ENCODING 10093
SWIDTH 960 0
DWIDTH 24 0
BBX 24 24 0 -2
BITMAP
000000
000000
000000
000000
000000
000000
000000
000000
060060
060060
060060
060060
07F060
07FC60
060C60
060660
060660
060660
060C60
07FC60
07F060
000000
000000
000000
ENDCHAR

STARTCHAR jisx0208_276E
ENCODING 10094
SWIDTH 960 0
DWIDTH 24 0
BBX 24 24 0 -2
BITMAP
000000
000000
000000
000000
000000
000000
000000
000000
018000
018000
018000
018000
01FC00
01FF00
018300
018180
018180
018180
018300
01FF00
01FC00
000000
000000
000000
ENDCHAR

STARTCHAR jisx0208_276F
ENCODING 10095
SWIDTH 960 0
DWIDTH 24 0
BBX 24 24 0 -2
BITMAP
000000
000000
000000
000000
000000
000000
000000
000000
003C00
00FF00
01C380
038180
0300C0
003FC0
003FC0
0000C0
0300C0
038180
01C380
00FF00
003C00
000000
000000
000000
ENDCHAR

STARTCHAR jisx0208_2770
ENCODING 10096
SWIDTH 960 0
DWIDTH 24 0
BBX 24 24 0 -2
BITMAP
000000
000000
000000
000000
000000
000000
000000
000000
060780
061FE0
061860
063030
063030
07F030
07F030
063030
063030
063030
061860
061FE0
060780
000000
000000
000000
ENDCHAR

STARTCHAR jisx0208_2771
ENCODING 10097
SWIDTH 960 0
DWIDTH 24 0
BBX 24 24 0 -2
BITMAP
000000
000000
000000
000000
000000
000000
000000
000000
007F80
00FF80
018180
018180
018180
018180
00FF80
00FF80
00C180
018180
018180
030180
030180
000000
000000
000000
ENDCHAR

STARTCHAR jisx0208_2821
ENCODING 10273
SWIDTH 960 0
DWIDTH 24 0
BBX 24 24 0 -2
BITMAP
000000
000000
000000
000000
000000
000000
000000
000000
000000
000000
000000
FFFFFF
000000
000000
000000
000000
000000
000000
000000
000000
000000
000000
000000
000000
ENDCHAR

STARTCHAR jisx0208_2822
ENCODING 10274
SWIDTH 960 0
DWIDTH 24 0
BBX 24 24 0 -2
BITMAP
001000
001000
001000
001000
001000
001000
001000
001000
001000
001000
001000
001000
001000
001000
001000
001000
001000
001000
001000
001000
001000
001000
001000
001000
ENDCHAR

STARTCHAR jisx0208_2823
ENCODING 10275
SWIDTH 960 0
DWIDTH 24 0
BBX 24 24 0 -2
BITMAP
000000
000000
000000
000000
000000
000000
000000
000000
000000
000000
000000
001FFF
001000
001000
001000
001000
001000
001000
001000
001000
001000
001000
001000
001000
ENDCHAR

STARTCHAR jisx0208_2824
ENCODING 10276
SWIDTH 960 0
DWIDTH 24 0
BBX 24 24 0 -2
BITMAP
000000
000000
000000
000000
000000
000000
000000
000000
000000
000000
000000
FFF000
001000
001000
001000
001000
001000
001000
001000
001000
001000
001000
001000
001000
ENDCHAR

STARTCHAR jisx0208_2825
ENCODING 10277
SWIDTH 960 0
DWIDTH 24 0
BBX 24 24 0 -2
BITMAP
001000
001000
001000
001000
001000
001000
001000
001000
001000
001000
001000
FFF000
000000
000000
000000
000000
000000
000000
000000
000000
000000
000000
000000
000000
ENDCHAR

STARTCHAR jisx0208_2826
ENCODING 10278
SWIDTH 960 0
DWIDTH 24 0
BBX 24 24 0 -2
BITMAP
001000
001000
001000
001000
001000
001000
001000
001000
001000
001000
001000
001FFF
000000
000000
000000
000000
000000
000000
000000
000000
000000
000000
000000
000000
ENDCHAR

STARTCHAR jisx0208_2827
ENCODING 10279
SWIDTH 960 0
DWIDTH 24 0
BBX 24 24 0 -2
BITMAP
001000
001000
001000
001000
001000
001000
001000
001000
001000
001000
001000
001FFF
001000
001000
001000
001000
001000
001000
001000
001000
001000
001000
001000
001000
ENDCHAR

STARTCHAR jisx0208_2828
ENCODING 10280
SWIDTH 960 0
DWIDTH 24 0
BBX 24 24 0 -2
BITMAP
000000
000000
000000
000000
000000
000000
000000
000000
000000
000000
000000
FFFFFF
001000
001000
001000
001000
001000
001000
001000
001000
001000
001000
001000
001000
ENDCHAR

STARTCHAR jisx0208_2829
ENCODING 10281
SWIDTH 960 0
DWIDTH 24 0
BBX 24 24 0 -2
BITMAP
001000
001000
001000
001000
001000
001000
001000
001000
001000
001000
001000
FFF000
001000
001000
001000
001000
001000
001000
001000
001000
001000
001000
001000
001000
ENDCHAR

STARTCHAR jisx0208_282A
ENCODING 10282
SWIDTH 960 0
DWIDTH 24 0
BBX 24 24 0 -2
BITMAP
001000
001000
001000
001000
001000
001000
001000
001000
001000
001000
001000
FFFFFF
000000
000000
000000
000000
000000
000000
000000
000000
000000
000000
000000
000000
ENDCHAR

STARTCHAR jisx0208_282B
ENCODING 10283
SWIDTH 960 0
DWIDTH 24 0
BBX 24 24 0 -2
BITMAP
001000
001000
001000
001000
001000
001000
001000
001000
001000
001000
001000
FFFFFF
001000
001000
001000
001000
001000
001000
001000
001000
001000
001000
001000
001000
ENDCHAR

STARTCHAR jisx0208_282C
ENCODING 10284
SWIDTH 960 0
DWIDTH 24 0
BBX 24 24 0 -2
BITMAP
000000
000000
000000
000000
000000
000000
000000
000000
000000
000000
000000
FFFFFF
FFFFFF
000000
000000
000000
000000
000000
000000
000000
000000
000000
000000
000000
ENDCHAR

STARTCHAR jisx0208_282D
ENCODING 10285
SWIDTH 960 0
DWIDTH 24 0
BBX 24 24 0 -2
BITMAP
001800
001800
001800
001800
001800
001800
001800
001800
001800
001800
001800
001800
001800
001800
001800
001800
001800
001800
001800
001800
001800
001800
001800
001800
ENDCHAR

STARTCHAR jisx0208_282E
ENCODING 10286
SWIDTH 960 0
DWIDTH 24 0
BBX 24 24 0 -2
BITMAP
000000
000000
000000
000000
000000
000000
000000
000000
000000
000000
000000
001FFF
001FFF
001800
001800
001800
001800
001800
001800
001800
001800
001800
001800
001800
ENDCHAR

STARTCHAR jisx0208_282F
ENCODING 10287
SWIDTH 960 0
DWIDTH 24 0
BBX 24 24 0 -2
BITMAP
000000
000000
000000
000000
000000
000000
000000
000000
000000
000000
000000
FFF800
FFF800
001800
001800
001800
001800
001800
001800
001800
001800
001800
001800
001800
ENDCHAR

STARTCHAR jisx0208_2830
ENCODING 10288
SWIDTH 960 0
DWIDTH 24 0
BBX 24 24 0 -2
BITMAP
001800
001800
001800
001800
001800
001800
001800
001800
001800
001800
001800
FFF800
FFF800
000000
000000
000000
000000
000000
000000
000000
000000
000000
000000
000000
ENDCHAR

STARTCHAR jisx0208_2831
ENCODING 10289
SWIDTH 960 0
DWIDTH 24 0
BBX 24 24 0 -2
BITMAP
001800
001800
001800
001800
001800
001800
001800
001800
001800
001800
001800
001FFF
001FFF
000000
000000
000000
000000
000000
000000
000000
000000
000000
000000
000000
ENDCHAR

STARTCHAR jisx0208_2832
ENCODING 10290
SWIDTH 960 0
DWIDTH 24 0
BBX 24 24 0 -2
BITMAP
001800
001800
001800
001800
001800
001800
001800
001800
001800
001800
001800
001FFF
001FFF
001800
001800
001800
001800
001800
001800
001800
001800
001800
001800
001800
ENDCHAR

STARTCHAR jisx0208_2833
ENCODING 10291
SWIDTH 960 0
DWIDTH 24 0
BBX 24 24 0 -2
BITMAP
000000
000000
000000
000000
000000
000000
000000
000000
000000
000000
000000
FFFFFF
FFFFFF
001800
001800
001800
001800
001800
001800
001800
001800
001800
001800
001800
ENDCHAR

STARTCHAR jisx0208_2834
ENCODING 10292
SWIDTH 960 0
DWIDTH 24 0
BBX 24 24 0 -2
BITMAP
001800
001800
001800
001800
001800
001800
001800
001800
001800
001800
001800
FFF800
FFF800
001800
001800
001800
001800
001800
001800
001800
001800
001800
001800
001800
ENDCHAR

STARTCHAR jisx0208_2835
ENCODING 10293
SWIDTH 960 0
DWIDTH 24 0
BBX 24 24 0 -2
BITMAP
001800
001800
001800
001800
001800
001800
001800
001800
001800
001800
001800
FFFFFF
FFFFFF
000000
000000
000000
000000
000000
000000
000000
000000
000000
000000
000000
ENDCHAR

STARTCHAR jisx0208_2836
ENCODING 10294
SWIDTH 960 0
DWIDTH 24 0
BBX 24 24 0 -2
BITMAP
001800
001800
001800
001800
001800
001800
001800
001800
001800
001800
001800
FFFFFF
FFFFFF
001800
001800
001800
001800
001800
001800
001800
001800
001800
001800
001800
ENDCHAR

STARTCHAR jisx0208_2837
ENCODING 10295
SWIDTH 960 0
DWIDTH 24 0
BBX 24 24 0 -2
BITMAP
001800
001800
001800
001800
001800
001800
001800
001800
001800
001800
001800
001FFF
001800
001800
001800
001800
001800
001800
001800
001800
001800
001800
001800
001800
ENDCHAR

STARTCHAR jisx0208_2838
ENCODING 10296
SWIDTH 960 0
DWIDTH 24 0
BBX 24 24 0 -2
BITMAP
000000
000000
000000
000000
000000
000000
000000
000000
000000
000000
000000
FFFFFF
FFFFFF
001000
001000
001000
001000
001000
001000
001000
001000
001000
001000
001000
ENDCHAR

STARTCHAR jisx0208_2839
ENCODING 10297
SWIDTH 960 0
DWIDTH 24 0
BBX 24 24 0 -2
BITMAP
001800
001800
001800
001800
001800
001800
001800
001800
001800
001800
001800
FFF800
001800
001800
001800
001800
001800
001800
001800
001800
001800
001800
001800
001800
ENDCHAR

STARTCHAR jisx0208_283A
ENCODING 10298
SWIDTH 960 0
DWIDTH 24 0
BBX 24 24 0 -2
BITMAP
001000
001000
001000
001000
001000
001000
001000
001000
001000
001000
001000
FFFFFF
FFFFFF
000000
000000
000000
000000
000000
000000
000000
000000
000000
000000
000000
ENDCHAR

STARTCHAR jisx0208_283B
ENCODING 10299
SWIDTH 960 0
DWIDTH 24 0
BBX 24 24 0 -2
BITMAP
001000
001000
001000
001000
001000
001000
001000
001000
001000
001000
001000
FFFFFF
FFFFFF
001000
001000
001000
001000
001000
001000
001000
001000
001000
001000
001000
ENDCHAR

STARTCHAR jisx0208_283C
ENCODING 10300
SWIDTH 960 0
DWIDTH 24 0
BBX 24 24 0 -2
BITMAP
001000
001000
001000
001000
001000
001000
001000
001000
001000
001000
001000
001FFF
001FFF
001000
001000
001000
001000
001000
001000
001000
001000
001000
001000
001000
ENDCHAR

STARTCHAR jisx0208_283D
ENCODING 10301
SWIDTH 960 0
DWIDTH 24 0
BBX 24 24 0 -2
BITMAP
000000
000000
000000
000000
000000
000000
000000
000000
000000
000000
000000
FFFFFF
001800
001800
001800
001800
001800
001800
001800
001800
001800
001800
001800
001800
ENDCHAR

STARTCHAR jisx0208_283E
ENCODING 10302
SWIDTH 960 0
DWIDTH 24 0
BBX 24 24 0 -2
BITMAP
001000
001000
001000
001000
001000
001000
001000
001000
001000
001000
001000
FFF000
FFF000
001000
001000
001000
001000
001000
001000
001000
001000
001000
001000
001000
ENDCHAR

STARTCHAR jisx0208_283F
ENCODING 10303
SWIDTH 960 0
DWIDTH 24 0
BBX 24 24 0 -2
BITMAP
001800
001800
001800
001800
001800
001800
001800
001800
001800
001800
001800
FFFFFF
000000
000000
000000
000000
000000
000000
000000
000000
000000
000000
000000
000000
ENDCHAR

STARTCHAR jisx0208_2840
ENCODING 10304
SWIDTH 960 0
DWIDTH 24 0
BBX 24 24 0 -2
BITMAP
001800
001800
001800
001800
001800
001800
001800
001800
001800
001800
001800
FFFFFF
001800
001800
001800
001800
001800
001800
001800
001800
001800
001800
001800
001800
ENDCHAR

STARTCHAR jisx0208_2D21
ENCODING 11553
SWIDTH 960 0
DWIDTH 24 0
BBX 24 24 0 -2
BITMAP
000000
01FE00
070380
0C00C0
180060
303030
607018
41F008
C1B00C
803004
803004
803004
803004
803004
803004
C0300C
403008
603018
303030
180060
0C00C0
070380
01FE00
000000
ENDCHAR

STARTCHAR jisx0208_2D22
ENCODING 11554
SWIDTH 960 0
DWIDTH 24 0
BBX 24 24 0 -2
BITMAP
000000
01FE00
070380
0C00C0
180060
30FC30
61FE18
438708
C3030C
830304
800704
801E04
807C04
80F004
81C004
C3800C
430008
63FF18
33FF30
180060
0C00C0
070380
01FE00
000000
ENDCHAR

STARTCHAR jisx0208_2D23
ENCODING 11555
SWIDTH 960 0
DWIDTH 24 0
BBX 24 24 0 -2
BITMAP
000000
01FE00
070380
0C00C0
180060
30FC30
61FE18
438708
C3030C
800704
807E04
807C04
800604
800304
830304
C3030C
438708
61FE18
30FC30
180060
0C00C0
070380
01FE00
000000
ENDCHAR

STARTCHAR jisx0208_2D24
ENCODING 11556
SWIDTH 960 0
DWIDTH 24 0
BBX 24 24 0 -2
BITMAP
000000
01FE00
070380
0C00C0
180060
300C30
601C18
403C08
C07C0C
80EC04
80CC04
818C04
838C04
870C04
8FFF84
CFFF8C
400C08
600C18
300C30
180060
0C00C0
070380
01FE00
000000
ENDCHAR

STARTCHAR jisx0208_2D25
ENCODING 11557
SWIDTH 960 0
DWIDTH 24 0
BBX 24 24 0 -2
BITMAP
000000
01FE00
070380
0C00C0
180060
31FE30
61FE18
418008
C1800C
837C04
83FE04
838704
830304
800304
800304
C3030C
438708
61FE18
30FC30
180060
0C00C0
070380
01FE00
000000
ENDCHAR

STARTCHAR jisx0208_2D26
ENCODING 11558
SWIDTH 960 0
DWIDTH 24 0
BBX 24 24 0 -2
BITMAP
000000
01FE00
070380
0C00C0
180060
30FC30
61FE18
438708
C3030C
837C04
83FE04
838704
830304
830304
830304
C3030C
438708
61FE18
30FC30
180060
0C00C0
070380
01FE00
000000
ENDCHAR

STARTCHAR jisx0208_2D27
ENCODING 11559
SWIDTH 960 0
DWIDTH 24 0
BBX 24 24 0 -2
BITMAP
000000
01FE00
070380
0C00C0
180060
33FF30
63FF18
400608
C00E0C
800C04
801C04
801804
803804
803004
803004
C0700C
406008
606018
306030
180060
0C00C0
070380
01FE00
000000
ENDCHAR

STARTCHAR jisx0208_2D28
ENCODING 11560
SWIDTH 960 0
DWIDTH 24 0
BBX 24 24 0 -2
BITMAP
000000
01FE00
070380
0C00C0
180060
30FC30
61FE18
438708
C3030C
838704
81FE04
81FE04
838704
830304
830304
C3030C
438708
61FE18
30FC30
180060
0C00C0
070380
01FE00
000000
ENDCHAR

STARTCHAR jisx0208_2D29
ENCODING 11561
SWIDTH 960 0
DWIDTH 24 0
BBX 24 24 0 -2
BITMAP
000000
01FE00
070380
0C00C0
180060
30FC30
61FE18
438708
C3030C
830304
830304
830304
838704
81FF04
80FB04
C3030C
438708
61FE18
30FC30
180060
0C00C0
070380
01FE00
000000
ENDCHAR

STARTCHAR jisx0208_2D2A
ENCODING 11562
SWIDTH 960 0
DWIDTH 24 0
BBX 24 24 0 -2
BITMAP
000000
01FE00
070380
0C00C0
180060
361F30
6E3F98
4E71C8
C660CC
8660C4
8660C4
8660C4
8660C4
8660C4
8660C4
C660CC
4671C8
663F98
361F30
180060
0C00C0
070380
01FE00
000000
ENDCHAR

STARTCHAR jisx0208_2D2B
ENCODING 11563
SWIDTH 960 0
DWIDTH 24 0
BBX 24 24 0 -2
BITMAP
000000
01FE00
070380
0C00C0
180060
3601B0
6E0398
4E0388
C6018C
860184
860184
860184
860184
860184
860184
C6018C
460188
660198
3601B0
180060
0C00C0
070380
01FE00
000000
ENDCHAR

STARTCHAR jisx0208_2D2C
ENCODING 11564
SWIDTH 960 0
DWIDTH 24 0
BBX 24 24 0 -2
BITMAP
000000
01FE00
070380
0C00C0
180060
361F30
6E3F98
4E71C8
C660CC
8660C4
8601C4
860784
860F04
861C04
863804
C6300C
467008
667FD8
367FF0
180060
0C00C0
070380
01FE00
000000
ENDCHAR

STARTCHAR jisx0208_2D2D
ENCODING 11565
SWIDTH 960 0
DWIDTH 24 0
BBX 24 24 0 -2
BITMAP
000000
01FE00
070380
0C00C0
180060
361F30
6E3F98
4E71C8
C660CC
8601C4
861F84
861F84
8601C4
8600C4
8660C4
C660CC
4671C8
663F98
361F30
180060
0C00C0
070380
01FE00
000000
ENDCHAR

STARTCHAR jisx0208_2D2E
ENCODING 11566
SWIDTH 960 0
DWIDTH 24 0
BBX 24 24 0 -2
BITMAP
000000
01FE00
070380
0C00C0
180060
3601B0
6E0398
4E0788
C6078C
860D84
861D84
863984
863184
866184
86FFE4
C6FFEC
460188
660198
3601B0
180060
0C00C0
070380
01FE00
000000
ENDCHAR

STARTCHAR jisx0208_2D2F
ENCODING 11567
SWIDTH 960 0
DWIDTH 24 0
BBX 24 24 0 -2
BITMAP
000000
01FE00
070380
0C00C0
180060
367FB0
6E7F98
4E6008
C6600C
866F04
867F84
8671C4
8660C4
8600C4
8600C4
C660CC
4671C8
663F98
361F30
180060
0C00C0
070380
01FE00
000000
ENDCHAR

STARTCHAR jisx0208_2D30
ENCODING 11568
SWIDTH 960 0
DWIDTH 24 0
BBX 24 24 0 -2
BITMAP
000000
01FE00
070380
0C00C0
180060
361F30
6E3F98
4E71C8
C660CC
866004
866F04
867F84
8671C4
8660C4
8660C4
C660CC
4671C8
663F98
361F30
180060
0C00C0
070380
01FE00
000000
ENDCHAR

STARTCHAR jisx0208_2D31
ENCODING 11569
SWIDTH 960 0
DWIDTH 24 0
BBX 24 24 0 -2
BITMAP
000000
01FE00
070380
0C00C0
180060
367FF0
6E7FD8
4E0188
C6030C
860304
860604
860604
860604
860C04
860C04
C60C0C
460C08
660C18
360C30
180060
0C00C0
070380
01FE00
000000
ENDCHAR

STARTCHAR jisx0208_2D32
ENCODING 11570
SWIDTH 960 0
DWIDTH 24 0
BBX 24 24 0 -2
BITMAP
000000
01FE00
070380
0C00C0
180060
361F30
6E3F98
4E71C8
C660CC
8671C4
863F84
863F84
8671C4
8660C4
8660C4
C660CC
4671C8
663F98
361F30
180060
0C00C0
070380
01FE00
000000
ENDCHAR

STARTCHAR jisx0208_2D33
ENCODING 11571
SWIDTH 960 0
DWIDTH 24 0
BBX 24 24 0 -2
BITMAP
000000
01FE00
070380
0C00C0
180060
361F30
6E3F98
4E71C8
C660CC
8660C4
8660C4
8671C4
863FC4
861EC4
8600C4
C660CC
4671C8
663F98
361F30
180060
0C00C0
070380
01FE00
000000
ENDCHAR

STARTCHAR jisx0208_2D34
ENCODING 11572
SWIDTH 960 0
DWIDTH 24 0
BBX 24 24 0 -2
BITMAP
000000
01FE00
070380
0C00C0
180060
3383B0
67C7D8
4C6C68
CC6C6C
8C6C64
806C64
80CC64
81CC64
838C64
870C64
C60C6C
4C0C68
6FE7D8
3FE3B0
180060
0C00C0
070380
01FE00
000000
ENDCHAR

STARTCHAR jisx0208_2D35
ENCODING 11573
SWIDTH 960 0
DWIDTH 24 0
BBX 24 24 0 -2
BITMAP
000000
000000
000000
003000
003000
003000
003000
003000
003000
003000
003000
003000
003000
003000
003000
003000
003000
003000
003000
003000
003000
000000
000000
000000
ENDCHAR

STARTCHAR jisx0208_2D36
ENCODING 11574
SWIDTH 960 0
DWIDTH 24 0
BBX 24 24 0 -2
BITMAP
000000
000000
000000
030300
030300
030300
030300
030300
030300
030300
030300
030300
030300
030300
030300
030300
030300
030300
030300
030300
030300
000000
000000
000000
ENDCHAR

STARTCHAR jisx0208_2D37
ENCODING 11575
SWIDTH 960 0
DWIDTH 24 0
BBX 24 24 0 -2
BITMAP
000000
000000
000000
183060
183060
183060
183060
183060
183060
183060
183060
183060
183060
183060
183060
183060
183060
183060
183060
183060
183060
000000
000000
000000
ENDCHAR

STARTCHAR jisx0208_2D38
ENCODING 11576
SWIDTH 960 0
DWIDTH 24 0
BBX 24 24 0 -2
BITMAP
000000
000000
000000
318018
318018
318018
30C030
30C030
30C030
306060
306060
3030C0
3030C0
3030C0
301980
301980
301980
300F00
300F00
300600
300600
000000
000000
000000
ENDCHAR

STARTCHAR jisx0208_2D39
ENCODING 11577
SWIDTH 960 0
DWIDTH 24 0
BBX 24 24 0 -2
BITMAP
000000
000000
000000
180060
180060
0C00C0
0C00C0
060180
060180
060180
030300
030300
018600
018600
00CC00
00CC00
00CC00
007800
007800
003000
003000
000000
000000
000000
ENDCHAR

STARTCHAR jisx0208_2D3A
ENCODING 11578
SWIDTH 960 0
DWIDTH 24 0
BBX 24 24 0 -2
BITMAP
000000
000000
000000
600630
600630
600630
300C30
300C30
300C30
181830
181830
0C3030
0C3030
0C3030
066030
066030
066030
03C030
03C030
018030
018030
000000
000000
000000
ENDCHAR

STARTCHAR jisx0208_2D3B
ENCODING 11579
SWIDTH 960 0
DWIDTH 24 0
BBX 24 24 0 -2
BITMAP
000000
000000
000000
C03318
C03318
C03318
606318
606318
606318
30C318
30C318
30C318
198318
198318
198318
0F0318
0F0318
0F0318
060318
060318
060318
000000
000000
000000
ENDCHAR

STARTCHAR jisx0208_2D3C
ENCODING 11580
SWIDTH 960 0
DWIDTH 24 0
BBX 24 24 0 -2
BITMAP
000000
000000
000000
C0D998
C0D998
C0D998
C0D998
619998
619998
619998
619998
331998
331998
331998
331998
1E1998
1E1998
1E1998
0C1998
0C1998
0C1998
000000
000000
000000
ENDCHAR

STARTCHAR jisx0208_2D3D
ENCODING 11581
SWIDTH 960 0
DWIDTH 24 0
BBX 24 24 0 -2
BITMAP
000000
000000
000000
31C070
30C060
3060C0
3071C0
303180
301B00
301F00
300E00
300E00
300E00
301B00
303B80
303180
3060C0
30E0E0
30C060
318030
338038
000000
000000
000000
ENDCHAR

STARTCHAR jisx0208_2D3E
ENCODING 11582
SWIDTH 960 0
DWIDTH 24 0
BBX 24 24 0 -2
BITMAP
000000
000000
000000
0E01C0
070380
030300
018600
01CE00
00CC00
007800
007800
003000
007800
00FC00
00CC00
018600
038700
030300
060180
0E01C0
1C00E0
000000
000000
000000
ENDCHAR

STARTCHAR jisx0208_2D40
ENCODING 11584
SWIDTH 960 0
DWIDTH 24 0
BBX 24 24 0 -2
BITMAP
000000
3C0000
3F8000
038000
380000
3F0000
070000
000000
780000
7F0000
07C000
00C000
000618
000618
000618
000618
000618
000618
000618
000038
000070
0001E0
0001C0
000000
ENDCHAR

STARTCHAR jisx0208_2D41
ENCODING 11585
SWIDTH 960 0
DWIDTH 24 0
BBX 24 24 0 -2
BITMAP
000000
0C0000
0C0000
7FC000
7FC000
060000
060000
7FE000
7FE000
060000
060000
060000
000000
000FF8
000FF8
000C18
000C18
000C18
000C18
000FF8
000FF8
000C18
000000
000000
ENDCHAR

STARTCHAR jisx0208_2D42
ENCODING 11586
SWIDTH 960 0
DWIDTH 24 0
BBX 24 24 0 -2
BITMAP
000000
300400
300E00
3FC700
FFE208
F0C01C
318038
330070
3000E0
3FCFC0
1FCF00
000000
038000
7FC000
3E0000
060000
FFE000
FFE000
060000
060000
0E0000
3C0000
380000
000000
ENDCHAR

STARTCHAR jisx0208_2D43
ENCODING 11587
SWIDTH 960 0
DWIDTH 24 0
BBX 24 24 0 -2
BITMAP
000000
00C000
00C000
08C000
1D8000
0F8FF8
070FF8
0F8000
3DC000
F88000
600000
000000
1800C0
1806C0
1806C0
1806C0
1E06C0
1F86C8
1986DC
1806F8
180EF0
181CE0
180840
000000
ENDCHAR

STARTCHAR jisx0208_2D44
ENCODING 11588
SWIDTH 960 0
DWIDTH 24 0
BBX 24 24 0 -2
BITMAP
000000
0CA000
0CA7F0
1FC7F0
3FC000
70CFF8
E18FF8
438018
070030
0E0070
7C03E0
700380
000000
0C0000
0C0000
0C0000
180000
198000
31C000
30C000
67E000
FF6000
F86000
000000
ENDCHAR

STARTCHAR jisx0208_2D45
ENCODING 11589
SWIDTH 960 0
DWIDTH 24 0
BBX 24 24 0 -2
BITMAP
000000
180000
180000
180000
180000
1E0000
1F8000
198000
180000
180000
180000
180000
000400
000E00
000700
000208
00001C
000038
000070
0000E0
000FC0
000F00
000000
000000
ENDCHAR

STARTCHAR jisx0208_2D46
ENCODING 11590
SWIDTH 960 0
DWIDTH 24 0
BBX 24 24 0 -2
BITMAP
000000
000000
FFC000
FFE000
00C000
0D8FF8
0D0FF8
0C0000
1C0000
380000
700000
200000
060000
360000
360000
360000
360000
364000
36E000
37C000
778000
E70000
420000
000000
ENDCHAR

STARTCHAR jisx0208_2D47
ENCODING 11591
SWIDTH 960 0
DWIDTH 24 0
BBX 24 24 0 -2
BITMAP
000000
0000C0
0800C0
1C01FC
3E03FC
77070C
E38E18
41C438
00E070
0040E0
0007C0
000700
180000
180060
3F8360
7F8360
E18360
5B7B60
0F7B64
06036C
1F0778
790E70
600420
000000
ENDCHAR

STARTCHAR jisx0208_2D48
ENCODING 11592
SWIDTH 960 0
DWIDTH 24 0
BBX 24 24 0 -2
BITMAP
000000
618000
618000
618000
6180C0
6186D8
6186D8
038638
070070
1E03E0
1C03C0
000000
1800C0
1806C0
1806C0
1806C0
1E06C0
1F86C8
1986DC
1806F8
180EF0
181CE0
180840
000000
ENDCHAR

STARTCHAR jisx0208_2D49
ENCODING 11593
SWIDTH 960 0
DWIDTH 24 0
BBX 24 24 0 -2
BITMAP
000000
000000
7FC000
7FC000
60C0C0
60C6D8
60C6D8
018638
038070
1F03E0
1C03C0
000000
180000
180000
180000
180000
1E0000
1F8000
198000
180000
180000
180000
180000
000000
ENDCHAR

STARTCHAR jisx0208_2D4A
ENCODING 11594
SWIDTH 960 0
DWIDTH 24 0
BBX 24 24 0 -2
BITMAP
000000
180000
180000
FFCFF8
FFCFF8
18CC18
18CC18
38CC18
30CC18
70CFF8
E7CFF8
438C18
000000
618000
618000
618000
618000
618FF8
618FF8
038000
070000
1E0000
1C0000
000000
ENDCHAR

STARTCHAR jisx0208_2D4B
ENCODING 11595
SWIDTH 960 0
DWIDTH 24 0
BBX 24 24 0 -2
BITMAP
000000
18A000
18A000
18A000
180000
1E0000
1F8000
198000
180000
180000
180000
180000
0000C0
0006C0
0006C0
0006C0
0006C0
0006C8
0006DC
0006F8
000EF0
001CE0
000840
000000
ENDCHAR

STARTCHAR jisx0208_2D4C
ENCODING 11596
SWIDTH 960 0
DWIDTH 24 0
BBX 24 24 0 -2
BITMAP
000000
300400
300E00
3FC700
FFE208
F0C01C
318038
330070
3000E0
3FCFC0
1FCF00
000000
180000
180000
180000
180000
1E0000
1F8000
198000
180000
180000
180000
180000
000000
ENDCHAR

STARTCHAR jisx0208_2D4D
ENCODING 11597
SWIDTH 960 0
DWIDTH 24 0
BBX 24 24 0 -2
BITMAP
000000
00C000
332000
332000
31C000
318FF8
60CFF8
60C000
C0C000
C0C000
000000
000000
000000
604060
60E060
7E7360
FF2370
E6037C
6C066C
680E60
601C60
7E7860
3E7060
000000
ENDCHAR

STARTCHAR jisx0208_2D4E
ENCODING 11598
SWIDTH 960 0
DWIDTH 24 0
BBX 24 24 0 -2
BITMAP
000000
3C0618
3F0618
030618
3C0618
3F0618
030618
780038
7E0070
0781E0
0181C0
000000
000000
014060
374360
360360
330360
337B60
61FB64
61836C
C18778
C18E70
000420
000000
ENDCHAR

STARTCHAR jisx0208_2D4F
ENCODING 11599
SWIDTH 960 0
DWIDTH 24 0
BBX 24 24 0 -2
BITMAP
000000
00C000
092000
1D2000
3EC000
770FF8
E38FF8
41C000
00E000
004000
000000
000000
00A000
20A000
78A000
100000
404000
F0E000
21C000
038000
070000
7E0000
780000
000000
ENDCHAR

STARTCHAR jisx0208_2D50
ENCODING 11600
SWIDTH 960 0
DWIDTH 24 0
BBX 24 24 0 -2
BITMAP
000000
000000
000000
000000
000000
000000
000000
000000
D98D98
FFCFFC
EECEEC
CCCCCC
CCCCCC
CCCCCC
CCCCCC
CCCCCC
CCCCCC
CCCCCC
CCCCCC
CCCCCC
CCCCCC
000000
000000
000000
ENDCHAR

STARTCHAR jisx0208_2D51
ENCODING 11601
SWIDTH 960 0
DWIDTH 24 0
BBX 24 24 0 -2
BITMAP
000000
000000
000000
000000
000000
000000
000000
000000
0E1B30
3F9FF8
319DD8
60D998
60D998
601998
601998
601998
60D998
60D998
319998
3F9998
0E1998
000000
000000
000000
ENDCHAR

STARTCHAR jisx0208_2D52
ENCODING 11602
SWIDTH 960 0
DWIDTH 24 0
BBX 24 24 0 -2
BITMAP
000000
000000
000000
600000
600000
600000
600000
600000
619B30
639FF8
671DD8
6E1998
7C1998
7C1998
761998
661998
631998
631998
619998
619998
61D998
000000
000000
000000
ENDCHAR

STARTCHAR jisx0208_2D53
ENCODING 11603
SWIDTH 960 0
DWIDTH 24 0
BBX 24 24 0 -2
BITMAP
000000
000000
000000
000000
000000
000000
000000
000000
6CC1D8
7FE3F8
776638
666618
666618
666618
666618
666638
6663F8
6661D8
666018
666618
666618
0003F0
0001E0
000000
ENDCHAR

STARTCHAR jisx0208_2D54
ENCODING 11604
SWIDTH 960 0
DWIDTH 24 0
BBX 24 24 0 -2
BITMAP
000000
000000
000000
300000
300000
300000
300000
300000
30C3B0
31C7F0
338C70
370C30
3E0C30
3E0C30
3B0C30
330C70
3187F0
3183B0
30C030
30CC30
30EC30
0007E0
0003C0
000000
ENDCHAR

STARTCHAR jisx0208_2D55
ENCODING 11605
SWIDTH 960 0
DWIDTH 24 0
BBX 24 24 0 -2
BITMAP
000000
000000
000000
000000
000000
000000
000000
000000
0E01C0
3F87F0
318630
60CC18
60CC18
600C00
600C00
600C00
60CC18
60CC18
318630
3F87F0
0E01C0
000000
000000
000000
ENDCHAR

STARTCHAR jisx0208_2D56
ENCODING 11606
SWIDTH 960 0
DWIDTH 24 0
BBX 24 24 0 -2
BITMAP
000000
000070
0000D8
0000D8
000030
000060
0000F8
000000
1BC780
1FEFC0
1C78E0
183060
183060
183060
183060
183060
183060
183060
183060
183060
183060
000000
000000
000000
ENDCHAR

STARTCHAR jisx0208_2D5F
ENCODING 11615
SWIDTH 960 0
DWIDTH 24 0
BBX 24 24 0 -2
BITMAP
000000
000090
FFE0B8
FFE09C
040088
249FFC
64DFFC
64D080
34D080
359090
359E98
249E98
041290
FFF2B0
FFF2B0
0412E0
041260
041264
041EE4
0435B4
0433BC
04671C
042208
000000
ENDCHAR

STARTCHAR jisx0208_2D60
ENCODING 11616
SWIDTH 960 0
DWIDTH 24 0
BBX 24 24 0 -2
BITMAP
000000
00006C
00006C
0000D8
0000D8
0001B0
0001B0
000000
000000
000000
000000
000000
000000
000000
000000
000000
000000
000000
000000
000000
000000
000000
000000
000000
ENDCHAR

STARTCHAR jisx0208_2D61
ENCODING 11617
SWIDTH 960 0
DWIDTH 24 0
BBX 24 24 0 -2
BITMAP
000000
000000
000000
000000
000000
000000
000000
000000
000000
000000
000000
000000
000000
000000
000000
000000
000000
360000
360000
6C0000
6C0000
D80000
D80000
000000
ENDCHAR

STARTCHAR jisx0208_2D62
ENCODING 11618
SWIDTH 960 0
DWIDTH 24 0
BBX 24 24 0 -2
BITMAP
000000
000000
000000
60C000
60C000
70C000
70C000
78C000
78C380
78CFE0
6CCC60
6CD830
66D830
66D830
63D830
63D830
63D830
61D830
61CC60
60CFEC
60C38C
000000
000000
000000
ENDCHAR

STARTCHAR jisx0208_2D63
ENCODING 11619
SWIDTH 960 0
DWIDTH 24 0
BBX 24 24 0 -2
BITMAP
000000
000000
000000
630C60
630C60
660CC0
660CC0
6C0D80
6C0D80
780F00
780F00
7C0F80
6C0D80
6C0D80
660CC0
660CC0
630C60
630C60
630C60
61AC34
61AC34
000000
000000
000000
ENDCHAR

STARTCHAR jisx0208_2D64
ENCODING 11620
SWIDTH 960 0
DWIDTH 24 0
BBX 24 24 0 -2
BITMAP
000000
000000
000000
FF7EC0
FF7EC0
1860C0
1860C0
1860C0
1860C0
1860C0
187CC0
187CC0
1860C0
1860C0
1860C0
1860C0
1860C0
1860C0
1860C0
187EFC
187EFC
000000
000000
000000
ENDCHAR

STARTCHAR jisx0208_2D65
ENCODING 11621
SWIDTH 960 0
DWIDTH 24 0
BBX 24 24 0 -2
BITMAP
000000
01FE00
070380
0C00C0
186060
306030
606018
406008
C07F8C
807F84
806004
806004
806004
806004
806004
C0600C
4FFFC8
6FFFD8
300030
180060
0C00C0
070380
01FE00
000000
ENDCHAR

STARTCHAR jisx0208_2D66
ENCODING 11622
SWIDTH 960 0
DWIDTH 24 0
BBX 24 24 0 -2
BITMAP
000000
01FE00
070380
0C00C0
183060
303030
603018
4FFFC8
CFFFCC
8C30C4
8C30C4
8C30C4
8FFFC4
8FFFC4
8C30C4
C0300C
403008
603018
303030
183060
0C00C0
070380
01FE00
000000
ENDCHAR

STARTCHAR jisx0208_2D67
ENCODING 11623
SWIDTH 960 0
DWIDTH 24 0
BBX 24 24 0 -2
BITMAP
000000
01FE00
070380
0C00C0
180060
300030
6FFFD8
4FFFC8
C0600C
806004
806804
807E04
806F04
806384
806104
C0600C
406008
606018
306030
186060
0C00C0
070380
01FE00
000000
ENDCHAR

STARTCHAR jisx0208_2D68
ENCODING 11624
SWIDTH 960 0
DWIDTH 24 0
BBX 24 24 0 -2
BITMAP
000000
01FE00
070380
0C00C0
18C060
30C030
6FFFD8
4FFFC8
C1800C
818004
830004
83FF84
87FF84
8E1804
9C1804
C8180C
401808
63FFD8
33FFF0
180060
0C00C0
070380
01FE00
000000
ENDCHAR

STARTCHAR jisx0208_2D69
ENCODING 11625
SWIDTH 960 0
DWIDTH 24 0
BBX 24 24 0 -2
BITMAP
000000
01FE00
070380
0C00C0
186060
306030
6FFFD8
4FFFC8
C0C00C
80C004
818004
83FF84
87FF84
8F8184
9D8184
C9818C
41FF88
61FF98
3181B0
180060
0C00C0
070380
01FE00
000000
ENDCHAR

STARTCHAR jisx0208_2D6A
ENCODING 11626
SWIDTH 960 0
DWIDTH 24 0
BBX 24 24 0 -2
BITMAP
000000
100020
380070
360630
663618
663618
663FD8
DF7FCC
DF660C
C6060C
CF7FEC
CFFFEC
DE8F0C
DE1F8C
F61F8C
D636CC
C676EC
66E678
664638
660618
360630
380070
100020
000000
ENDCHAR

STARTCHAR jisx0208_2D6B
ENCODING 11627
SWIDTH 960 0
DWIDTH 24 0
BBX 24 24 0 -2
BITMAP
000000
100020
380070
306030
606018
6FFFD8
6FFFD8
C0C00C
C1800C
C1FF0C
C3FF0C
C7830C
CFFF0C
DDFF0C
C9830C
C1FF0C
C1FF0C
618318
618318
619F18
318E30
380070
100020
000000
ENDCHAR

STARTCHAR jisx0208_2D6C
ENCODING 11628
SWIDTH 960 0
DWIDTH 24 0
BBX 24 24 0 -2
BITMAP
000000
100020
380070
310C30
618F18
638D98
630CD8
C70C0C
C60FCC
CEFFCC
CEFC0C
DE0C0C
F60C0C
D60C0C
C6060C
C6060C
C6064C
660358
6603D8
6601D8
3600B0
380070
100020
000000
ENDCHAR

STARTCHAR jisx0208_2D6D
ENCODING 11629
SWIDTH 960 0
DWIDTH 24 0
BBX 24 24 0 -2
BITMAP
000000
000080
07C8E0
F7D8C0
F44CC0
944890
9441B8
944198
97D10C
F7F7FC
F45BEC
945208
944000
97C5F8
97C7F8
F44508
F44D08
844D08
0C4908
0C5908
1859F8
3BF1F8
119108
000000
ENDCHAR

STARTCHAR jisx0208_2D6E
ENCODING 11630
SWIDTH 960 0
DWIDTH 24 0
BBX 24 24 0 -2
BITMAP
000000
040000
040000
040FF8
040FF8
040080
7FC080
7FC080
040080
040080
040480
0E04F8
0E04F8
0E0480
0A0480
1B0480
1B0480
110480
318480
318480
60DFFC
E0FFFC
404000
000000
ENDCHAR

STARTCHAR jisx0208_2D6F
ENCODING 11631
SWIDTH 960 0
DWIDTH 24 0
BBX 24 24 0 -2
BITMAP
000000
000100
0FC780
FFDE7C
F24A7C
924244
924244
964244
945FC4
9CDFC4
FBC244
F98644
900744
97CFC4
97CAC4
945A44
947244
945244
F44244
F44244
87C27C
07C27C
044244
000000
ENDCHAR

STARTCHAR jisx0208_2D70
ENCODING 11632
SWIDTH 960 0
DWIDTH 24 0
BBX 24 24 0 -2
BITMAP
000000
000000
000000
000000
038000
038000
038000
000000
000000
1FFFE0
1FFFE0
000000
000000
1FFFE0
1FFFE0
000000
000000
000700
000700
000700
000000
000000
000000
000000
ENDCHAR

STARTCHAR jisx0208_2D71
ENCODING 11633
SWIDTH 960 0
DWIDTH 24 0
BBX 24 24 0 -2
BITMAP
000000
000000
000000
000000
000000
000000
000000
1FFFE0
1FFFE0
000000
000000
1FFFE0
1FFFE0
000000
000000
1FFFE0
1FFFE0
000000
000000
000000
000000
000000
000000
000000
ENDCHAR

STARTCHAR jisx0208_2D72
ENCODING 11634
SWIDTH 960 0
DWIDTH 24 0
BBX 24 24 0 -2
BITMAP
000000
003C00
007E00
00E700
00C200
00C000
00C000
006000
006000
006000
006000
006000
003000
003000
003000
003000
003000
001800
001800
021800
073800
03F000
01E000
000000
ENDCHAR

STARTCHAR jisx0208_2D73
ENCODING 11635
SWIDTH 960 0
DWIDTH 24 0
BBX 24 24 0 -2
BITMAP
000000
003C00
007E00
00E700
00C200
00C000
00C000
00F800
01EC00
036600
026200
026200
023200
033600
01BC00
00F800
003000
001800
001800
021800
073800
03F000
01E000
000000
ENDCHAR

STARTCHAR jisx0208_2D74
ENCODING 11636
SWIDTH 960 0
DWIDTH 24 0
BBX 24 24 0 -2
BITMAP
000000
000000
000000
0FFF80
0FFF80
070000
038000
01C000
00E000
007000
003800
003800
007000
00E000
00C000
018000
038000
070000
0E0000
0FFF80
0FFF80
000000
000000
000000
ENDCHAR

STARTCHAR jisx0208_2D75
ENCODING 11637
SWIDTH 960 0
DWIDTH 24 0
BBX 24 24 0 -2
BITMAP
000000
001FFC
001FFC
001800
003000
003000
003000
003000
006000
006000
006000
00C000
00C000
18C000
38C000
7D8000
ED8000
478000
070000
030000
030000
000000
000000
000000
ENDCHAR

STARTCHAR jisx0208_2D76
ENCODING 11638
SWIDTH 960 0
DWIDTH 24 0
BBX 24 24 0 -2
BITMAP
000000
000000
000000
000000
003000
003000
003000
003000
003000
003000
003000
003000
003000
003000
003000
003000
003000
003000
1FFFE0
1FFFE0
000000
000000
000000
000000
ENDCHAR

STARTCHAR jisx0208_2D77
ENCODING 11639
SWIDTH 960 0
DWIDTH 24 0
BBX 24 24 0 -2
BITMAP
000000
000000
000000
000040
0000C0
0001C0
000380
000700
000E00
001C00
003800
003000
007000
00E000
01C000
038000
070000
0E0000
1FFFE0
1FFFE0
000000
000000
000000
000000
ENDCHAR

STARTCHAR jisx0208_2D78
ENCODING 11640
SWIDTH 960 0
DWIDTH 24 0
BBX 24 24 0 -2
BITMAP
000000
000000
000000
000000
180000
180000
180000
180000
180000
180000
180000
180000
180000
180000
180000
180000
180000
180000
1FFFE0
1FFFE0
000000
000000
000000
000000
ENDCHAR

STARTCHAR jisx0208_2D79
ENCODING 11641
SWIDTH 960 0
DWIDTH 24 0
BBX 24 24 0 -2
BITMAP
000000
000000
000000
000020
000060
0000E0
0001E0
0003E0
000760
000E60
001C60
003860
007060
00E060
01C060
038060
070060
0E0060
1FFFE0
3FFFE0
000000
000000
000000
000000
ENDCHAR

STARTCHAR jisx0208_2D7A
ENCODING 11642
SWIDTH 960 0
DWIDTH 24 0
BBX 24 24 0 -2
BITMAP
000000
000000
000000
000000
180060
3C00F0
3C00F0
180060
000000
000000
000000
000000
000000
000000
000000
000000
003000
007800
007800
003000
000000
000000
000000
000000
ENDCHAR

STARTCHAR jisx0208_2D7B
ENCODING 11643
SWIDTH 960 0
DWIDTH 24 0
BBX 24 24 0 -2
BITMAP
000000
000000
000000
000000
00FC00
03FF00
070380
060180
0C00C0
0C00C0
0C00C0
0C00C0
0C00C0
0C00C0
0C00C0
0C00C0
0C00C0
0C00C0
0C00C0
0C00C0
000000
000000
000000
000000
ENDCHAR

STARTCHAR jisx0208_2D7C
ENCODING 11644
SWIDTH 960 0
DWIDTH 24 0
BBX 24 24 0 -2
BITMAP
000000
000000
000000
000000
0C00C0
0C00C0
0C00C0
0C00C0
0C00C0
0C00C0
0C00C0
0C00C0
0C00C0
0C00C0
0C00C0
0C00C0
060180
070380
03FF00
00FC00
000000
000000
000000
000000
ENDCHAR

STARTCHAR jisx0208_3021
ENCODING 12321
SWIDTH 960 0
DWIDTH 24 0
BBX 24 24 0 -2
BITMAP
000000
000000
3FFFFC
3FFFFC
00C300
00C300
00C300
00C300
1FFFF8
1FFFF8
18C318
18C318
18C318
18C318
1FFFF8
1FFFF8
18C318
18C318
00C300
00C300
00C300
7FFFFE
7FFFFE
000000
ENDCHAR

STARTCHAR jisx0208_3022
ENCODING 12322
SWIDTH 960 0
DWIDTH 24 0
BBX 24 24 0 -2
BITMAP
000000
000000
00FFFC
7EFFFC
7E0CC0
660CC0
660CC0
660CC0
66FFFC
66FFFC
66CCCC
66CCCC
66CCCC
66CCCC
7EFFFC
7EFFFC
60CCCC
600CC0
000CC0
000CC0
000CC0
01FFFE
01FFFE
000000
ENDCHAR

STARTCHAR jisx0208_3023
ENCODING 12323
SWIDTH 960 0
DWIDTH 24 0
BBX 24 24 0 -2
BITMAP
000000
0C0180
0C0180
0C0180
0C1FFC
7F9FFC
7F8180
198180
198180
19BFFE
19BFFE
318000
318180
330180
7B0180
6E3FFC
073FFC
0F8180
0DC180
1C8180
380180
707FFE
207FFE
000000
ENDCHAR

STARTCHAR jisx0208_3024
ENCODING 12324
SWIDTH 960 0
DWIDTH 24 0
BBX 24 24 0 -2
BITMAP
000000
000000
7F3FFE
7FBFFE
630018
630018
660018
661F98
6C1F98
6C1998
661998
631998
631998
619998
619998
619F98
619F98
6F9998
671818
600018
600018
6000F8
600070
000000
ENDCHAR

STARTCHAR jisx0208_3025
ENCODING 12325
SWIDTH 960 0
DWIDTH 24 0
BBX 24 24 0 -2
BITMAP
000000
001800
001800
7FFFFE
7FFFFE
000000
000000
0FFFF0
0FFFF0
0C0030
0C0030
0FFFF0
0FFFF0
006C00
01C608
03861C
0F8378
7D83E0
3181C0
019CE0
01FC78
1FE03E
0E000C
000000
ENDCHAR

STARTCHAR jisx0208_3026
ENCODING 12326
SWIDTH 960 0
DWIDTH 24 0
BBX 24 24 0 -2
BITMAP
000000
0001F0
3FFFF8
1FFE20
063070
0318C0
7FFFFE
7FFFFE
601006
69B806
0D9D10
1989B8
38FF9C
106008
00C000
01FFC0
07FFE0
1EC0C0
786380
203E00
01F7C0
7FC1FE
3E003C
000000
ENDCHAR

STARTCHAR jisx0208_3027
ENCODING 12327
SWIDTH 960 0
DWIDTH 24 0
BBX 24 24 0 -2
BITMAP
000000
0C0200
0C0300
0C0610
0C0638
7F0C1C
7F7FFC
0C7FEE
0C0804
0C0C00
0D1FFC
0F3FFC
1E7180
7C2180
6C0180
0C7FFE
0C7FFE
0C03C0
0C0760
0C0E70
0C1C38
7CF81E
38600C
000000
ENDCHAR

STARTCHAR jisx0208_3028
ENCODING 12328
SWIDTH 960 0
DWIDTH 24 0
BBX 24 24 0 -2
BITMAP
000000
0C0380
0C0380
0C03C0
0C06C0
7F8660
7F8C70
198C30
199818
19BFFC
19F7EE
31A004
318000
318000
3B1FF8
7F1FF8
271818
079818
0DD818
1C9818
381FF8
701FF8
201818
000000
ENDCHAR

STARTCHAR jisx0208_3029
ENCODING 12329
SWIDTH 960 0
DWIDTH 24 0
BBX 24 24 0 -2
BITMAP
000000
201800
701800
383FE0
1C7860
09ECC0
008780
000FC0
007CF8
03E33E
018304
7C7FF8
7C0300
0C0300
0C3FF0
0C0300
0C0300
0CFFFC
0C0300
1C0300
3F0000
73FFFE
20FFFC
000000
ENDCHAR

STARTCHAR jisx0208_302A
ENCODING 12330
SWIDTH 960 0
DWIDTH 24 0
BBX 24 24 0 -2
BITMAP
000000
018180
018180
7FFFFE
7FFFFE
018180
000440
1FCEE0
0067C8
18C39C
0F81F8
07FFF0
7DFFBE
30180C
001800
1FFFF8
1FFFF8
003C00
007600
00E380
03C1E0
3F007C
1C0018
000000
ENDCHAR

STARTCHAR jisx0208_302B
ENCODING 12331
SWIDTH 960 0
DWIDTH 24 0
BBX 24 24 0 -2
BITMAP
000000
018300
018300
7FFFFE
7FFFFE
018300
000000
7FFFFE
7FFFFE
00C600
00C600
1FFFF8
1FFFF8
18C618
18C658
198678
1B87F8
1F03D8
1A0018
180018
1FFFF8
1FFFF8
180018
000000
ENDCHAR

STARTCHAR jisx0208_302C
ENCODING 12332
SWIDTH 960 0
DWIDTH 24 0
BBX 24 24 0 -2
BITMAP
000000
030C00
7F9800
3C3FC0
0CF0C0
0C6180
0C3FF8
7FB318
7FBFF8
0C3318
0E3318
1F3FF8
1F8300
3D7FF8
3C6318
6C7FF8
2C6318
0C6318
0C7FF8
0C6304
0C6306
0C03FE
0C01FC
000000
ENDCHAR

STARTCHAR jisx0208_302D
ENCODING 12333
SWIDTH 960 0
DWIDTH 24 0
BBX 24 24 0 -2
BITMAP
000000
000000
3FFFF8
3FFFF8
00C600
00C600
1FFFF0
1FFFF0
18C630
18C630
1FFFF0
1FFFF0
00C600
00C600
7FFFFC
7FFFFC
000800
119C10
198E38
19849C
3180CE
71FFC4
20FF80
000000
ENDCHAR

STARTCHAR jisx0208_302E
ENCODING 12334
SWIDTH 960 0
DWIDTH 24 0
BBX 24 24 0 -2
BITMAP
000000
0C0000
0C7FFC
0C7FFC
0C600C
7F600C
7F7FFC
0C6000
0C6000
0C7FFC
0D6190
0F61B8
1E631C
7C6FFE
6C6FF4
0C60C0
0C60C0
0C6FFC
0C6FFC
0CC0C0
0CC0C0
7DDFFE
389FFE
000000
ENDCHAR

STARTCHAR jisx0208_302F
ENCODING 12335
SWIDTH 960 0
DWIDTH 24 0
BBX 24 24 0 -2
BITMAP
000000
100000
3CFFFC
0EFFFC
04C00C
00C00C
00FFFC
20C000
78C000
1CFFFE
08C310
00C338
00C61C
08DFFC
0CDFEE
0CC184
198180
199FF8
199FF8
318180
330180
777FFE
227FFE
000000
ENDCHAR

STARTCHAR jisx0208_3030
ENCODING 12336
SWIDTH 960 0
DWIDTH 24 0
BBX 24 24 0 -2
BITMAP
000000
180000
180000
1807F8
1807F8
180618
7FC618
7FC618
18C618
18C7F8
18C7F8
18C618
18C618
18C618
18C618
18C618
18C7F8
38C7F8
30C604
30C606
30C006
60FFFE
207FFC
000000
ENDCHAR

STARTCHAR jisx0208_3031
ENCODING 12337
SWIDTH 960 0
DWIDTH 24 0
BBX 24 24 0 -2
BITMAP
000000
018180
018180
7FFFFE
018180
003000
07FFE0
006060
00C060
7FFFFE
000000
07FFE0
060060
060060
07FFE0
000C00
000C00
0FFFF8
0C0C00
0C0C00
7FFFFE
000C00
000C00
000000
ENDCHAR

STARTCHAR jisx0208_3032
ENCODING 12338
SWIDTH 960 0
DWIDTH 24 0
BBX 24 24 0 -2
BITMAP
000000
00C300
00C300
7FFFFE
7FFFFE
00C300
000000
3FFFFC
3FFFFC
000000
000000
0FFFF0
0FFFF0
0C0030
0C0030
0FFFF0
0FFFF0
0C0030
1C0030
180000
380000
700000
200000
000000
ENDCHAR

STARTCHAR jisx0208_3033
ENCODING 12339
SWIDTH 960 0
DWIDTH 24 0
BBX 24 24 0 -2
BITMAP
000000
0C0200
0C0320
1F0670
190618
333FFC
623FE8
3F8180
248300
24BFFE
248630
3F8C98
24B8CE
249184
248320
3F9E70
0008E0
000388
2A9E1C
2AC870
2A41E0
680F80
400600
000000
ENDCHAR

STARTCHAR jisx0208_3034
ENCODING 12340
SWIDTH 960 0
DWIDTH 24 0
BBX 24 24 0 -2
BITMAP
000000
0C0180
0C0180
0C0180
0C3FFC
7FBFFC
7F8820
0C1830
0C0C30
1E0C60
1F0860
1FFFFE
3D7FFE
3C0180
6C0180
2C0180
0C3FFC
0C3FFC
0C0180
0C0180
0C0180
0C0180
0C0180
000000
ENDCHAR

STARTCHAR jisx0208_3035
ENCODING 12341
SWIDTH 960 0
DWIDTH 24 0
BBX 24 24 0 -2
BITMAP
000000
000000
1FFFFE
1FFFFE
180000
180600
180600
180600
180600
180600
19FFFC
19FFFC
180600
180600
180600
180600
180600
300600
300600
300600
77FFFE
67FFFE
200000
000000
ENDCHAR

STARTCHAR jisx0208_3036
ENCODING 12342
SWIDTH 960 0
DWIDTH 24 0
BBX 24 24 0 -2
BITMAP
000000
0601C0
0601C0
7FE360
7FE330
060638
060E1C
3FDC0E
3FC804
30C230
30C730
3FC3B0
30C930
30DC30
3FCE30
3FC436
06003E
0601F8
7FEFF0
7FEE30
060030
060030
060030
000000
ENDCHAR

STARTCHAR jisx0208_3037
ENCODING 12343
SWIDTH 960 0
DWIDTH 24 0
BBX 24 24 0 -2
BITMAP
000000
0C0000
0C7FF0
0C7FF8
0C1830
7F9830
7F9830
0C1860
0C1860
0C1C7C
0D9CFE
0F9ECC
1E1E0C
7C1B18
6C1B18
0C39B0
0C31F0
0C30E0
0C71F0
0C63B8
0CEF1C
7DDE0E
388804
000000
ENDCHAR

STARTCHAR jisx0208_3038
ENCODING 12344
SWIDTH 960 0
DWIDTH 24 0
BBX 24 24 0 -2
BITMAP
000000
001800
001800
7FFFFE
7FFFFE
600006
640006
660006
0607F8
07E7F8
0FE618
0C6618
186618
38E618
7CC618
2EC618
0786F8
038670
070604
0E0606
3C0606
7807FE
2003FC
000000
ENDCHAR

STARTCHAR jisx0208_3039
ENCODING 12345
SWIDTH 960 0
DWIDTH 24 0
BBX 24 24 0 -2
BITMAP
000000
0C0000
0C0FF8
0C0FF8
0C0C18
7FCC18
7FCC18
18CC18
18CFF8
18CFF8
18CC18
30CC18
30CC18
318C18
318FF8
7D8FF8
6F0C18
078C18
0DCC18
1C8C18
380C18
707FFE
207FFE
000000
ENDCHAR

STARTCHAR jisx0208_303A
ENCODING 12346
SWIDTH 960 0
DWIDTH 24 0
BBX 24 24 0 -2
BITMAP
000000
0C00C0
0C00C0
0C00C0
0C00C0
7FC0C0
7FCFFE
64CFFE
64CC00
64CC00
64CC00
64CC00
7FCC00
7FCC00
4C0C00
4C0C00
0C8C00
0D8C00
0CCC00
0DCC00
0FEC00
7E6FFE
7047FE
000000
ENDCHAR

STARTCHAR jisx0208_303B
ENCODING 12347
SWIDTH 960 0
DWIDTH 24 0
BBX 24 24 0 -2
BITMAP
000000
070100
078180
0DC190
1CC330
386318
72460C
22067C
1FDFFE
18DF86
18C004
1FC000
18CFFC
18CFFC
1FCC0C
180C0C
188C0C
198C0C
18CC0C
1BCC0C
1F6FFC
7C6FFC
304C0C
000000
ENDCHAR

STARTCHAR jisx0208_303C
ENCODING 12348
SWIDTH 960 0
DWIDTH 24 0
BBX 24 24 0 -2
BITMAP
000000
020400
070600
060600
2C8C00
79CFFE
3B9FFE
1F3806
0E1006
0C4FE6
18CFE6
7FEC66
7E6C66
064FE6
060FE6
264C66
36CC66
36CFE6
366FE6
666C06
66400C
26007C
060038
000000
ENDCHAR

STARTCHAR jisx0208_303D
ENCODING 12349
SWIDTH 960 0
DWIDTH 24 0
BBX 24 24 0 -2
BITMAP
000000
020180
070180
061FFC
2C9FFC
79C180
3B8180
1F3FFE
0E0660
0C8664
198E66
7FDC7E
7EFB3C
069300
0607F8
264E1C
36DE18
366B38
3661F0
6641E0
660778
263E1E
06180C
000000
ENDCHAR

STARTCHAR jisx0208_303E
ENCODING 12350
SWIDTH 960 0
DWIDTH 24 0
BBX 24 24 0 -2
BITMAP
000000
0C0180
0C0180
1F8180
188180
3181FE
6101FE
3FC180
324180
324180
324180
3FC180
324FFC
324FFC
324C0C
3FCC0C
000C0C
000C0C
354C0C
356C0C
352FFC
650FFC
200C0C
000000
ENDCHAR

STARTCHAR jisx0208_303F
ENCODING 12351
SWIDTH 960 0
DWIDTH 24 0
BBX 24 24 0 -2
BITMAP
000000
000310
000338
000310
7FFFFE
7FFFFE
000300
000300
1FE308
1FE30C
18630C
186198
186198
1FE1B0
1FE1F0
1800E0
0030C0
01F1E4
0FC3E6
7E0776
301E3E
00781E
00300C
000000
ENDCHAR

STARTCHAR jisx0208_3040
ENCODING 12352
SWIDTH 960 0
DWIDTH 24 0
BBX 24 24 0 -2
BITMAP
000000
7FFFFE
7FFFFE
00C300
00C300
3FFFFC
3FFFFC
30C30C
30C30C
3FFFFC
041820
0E1870
0718E0
021840
7FFFFE
7FFFFE
007E00
00DB80
0399C0
0F18F0
7C183E
30180C
001800
000000
ENDCHAR

STARTCHAR jisx0208_3041
ENCODING 12353
SWIDTH 960 0
DWIDTH 24 0
BBX 24 24 0 -2
BITMAP
000000
0C0380
0C0380
0C06C0
7F8660
7FCC70
019C38
03381C
03700E
062FF4
0C8FF0
0D8000
1E0000
3F0000
6D9FF8
2D1FF8
0C1818
0C1818
0C1818
0C1818
0C1FF8
0C1FF8
0C1818
000000
ENDCHAR

STARTCHAR jisx0208_3042
ENCODING 12354
SWIDTH 960 0
DWIDTH 24 0
BBX 24 24 0 -2
BITMAP
000000
001800
001800
3FFFFC
3FFFFC
30000C
30200C
30300C
007000
006000
7FFFFE
7FFFFE
0180C0
0180C0
0300C0
03C180
07F980
0E3F00
040F80
001DE0
00F878
3FE01C
1F0008
000000
ENDCHAR

STARTCHAR jisx0208_3043
ENCODING 12355
SWIDTH 960 0
DWIDTH 24 0
BBX 24 24 0 -2
BITMAP
000000
000C00
000C00
1FFFFE
1FFFFE
180C00
181800
1BFFFC
1BFFFC
1830C0
186660
18C630
19FFFC
1FC63E
1AC634
18FFF0
18C630
18C630
18FFF4
30C606
300606
7007FE
2003FC
000000
ENDCHAR

STARTCHAR jisx0208_3044
ENCODING 12356
SWIDTH 960 0
DWIDTH 24 0
BBX 24 24 0 -2
BITMAP
000000
0C0180
0C0180
0C7FFE
0C7FFE
7F6006
7F6206
0C6306
0C0300
0C0600
0D7FFE
0F7FFE
1E0C30
7C0C30
6C1830
0C1830
0C3F60
0C77E0
0C20F0
0C01F8
0C079C
7C7E0E
383804
000000
ENDCHAR

STARTCHAR jisx0208_3045
ENCODING 12357
SWIDTH 960 0
DWIDTH 24 0
BBX 24 24 0 -2
BITMAP
000000
000180
7F0180
7F3FFC
633FFC
630820
631C30
630E30
630460
7F7FFE
7F7FFE
630000
630000
631FF8
631FF8
631818
7F1818
7F1FF8
631818
601818
001FF8
001FF8
001818
000000
ENDCHAR

STARTCHAR jisx0208_3046
ENCODING 12358
SWIDTH 960 0
DWIDTH 24 0
BBX 24 24 0 -2
BITMAP
000000
001800
001800
7FFFFE
7FFFFE
603006
606006
6FFFF6
018180
03F300
031F00
007BE0
1FE0F8
0F1810
001800
7FFFFE
7FFFFE
007E00
01DB80
0F99F0
7E187E
30180C
001800
000000
ENDCHAR

STARTCHAR jisx0208_3047
ENCODING 12359
SWIDTH 960 0
DWIDTH 24 0
BBX 24 24 0 -2
BITMAP
000000
000000
7FC7FC
60C60C
60C60C
7FC7FC
60C60C
60C60C
7FC7FC
60300C
60300C
63FF8C
61830C
60C60C
67FFCC
60000C
61FF0C
61830C
61FF0C
61830C
61FF0C
61837C
600038
000000
ENDCHAR

STARTCHAR jisx0208_3048
ENCODING 12360
SWIDTH 960 0
DWIDTH 24 0
BBX 24 24 0 -2
BITMAP
000000
1980C0
1980C0
7FE0C0
7FFFFE
199FFE
199806
1F9886
0600C0
060180
3FC180
3FDFFE
325FFE
324318
3FC318
3FC618
060730
060FF0
7FE4F0
7FE1F8
06079C
061F0E
060C04
000000
ENDCHAR

STARTCHAR jisx0208_3049
ENCODING 12361
SWIDTH 960 0
DWIDTH 24 0
BBX 24 24 0 -2
BITMAP
000000
001800
001800
001800
7FFFFE
7FFFFE
007E00
00DB00
01DB80
0399C0
0718E0
1E1878
78181E
30180C
000000
0FFFF0
0FFFF0
0C0030
0C0030
0C0030
0FFFF0
0FFFF0
0C0030
000000
ENDCHAR

STARTCHAR jisx0208_304A
ENCODING 12362
SWIDTH 960 0
DWIDTH 24 0
BBX 24 24 0 -2
BITMAP
000000
000000
0C0018
0C0018
0C1018
0C3818
0C1C18
0C0E18
0C0618
0C0418
0C0018
0C0018
0C0018
0C0030
0C0030
0C0030
0C2060
0CF0E0
0FC1F0
1F03B8
7C0F1C
203C0E
001004
000000
ENDCHAR

STARTCHAR jisx0208_304B
ENCODING 12363
SWIDTH 960 0
DWIDTH 24 0
BBX 24 24 0 -2
BITMAP
000000
020000
030000
077FF8
067FF8
060618
0E0618
0C0618
1CFFFE
1CFFFE
3C0618
7C0618
2C0618
0C7FF8
0C7FF8
0C0618
0C0618
0C0E00
0C0C00
0C1C00
0C3800
0C7000
0C2000
000000
ENDCHAR

STARTCHAR jisx0208_304C
ENCODING 12364
SWIDTH 960 0
DWIDTH 24 0
BBX 24 24 0 -2
BITMAP
000000
020300
030300
070300
060300
06FFFC
0EFFFC
0C0000
1C0020
1C2030
3C6030
7C3030
2C3060
0C3060
0C1860
0C1860
0C1860
0C10C0
0C00C0
0C00C0
0DFFFE
0DFFFE
0C0000
000000
ENDCHAR

STARTCHAR jisx0208_304D
ENCODING 12365
SWIDTH 960 0
DWIDTH 24 0
BBX 24 24 0 -2
BITMAP
000000
020300
030300
070300
060300
06FFFE
0EFFFE
0C0700
1C0700
1C0D00
3C0D88
7C199C
2C39B8
0C78F0
0CF8E0
0FD8C0
0D1860
0C1860
0C1830
0C19B8
0C1F9C
0CFE0E
0C7004
000000
ENDCHAR

STARTCHAR jisx0208_304E
ENCODING 12366
SWIDTH 960 0
DWIDTH 24 0
BBX 24 24 0 -2
BITMAP
000000
020600
030600
073FF0
063FF0
060C30
0E0C30
0CFFFE
1C0000
1C0000
3C3FF8
7C3018
2C3018
0C3FF8
0C00C0
0C00C0
0C7FFC
0C60C0
0C60C0
0DFFFE
0C00C0
0C00C0
0C00C0
000000
ENDCHAR

STARTCHAR jisx0208_304F
ENCODING 12367
SWIDTH 960 0
DWIDTH 24 0
BBX 24 24 0 -2
BITMAP
000000
3FFFFC
3FFFFC
30000C
30C30C
30C30C
30C30C
33FFCC
33FFCC
30C30C
30C30C
30C30C
37FFEC
37FFEC
30C30C
30C30C
31830C
33830C
31030C
30000C
3FFFFC
3FFFFC
30000C
000000
ENDCHAR

STARTCHAR jisx0208_3050
ENCODING 12368
SWIDTH 960 0
DWIDTH 24 0
BBX 24 24 0 -2
BITMAP
000000
001800
001800
7FFFFE
7FFFFE
001800
001800
1FFFF0
001830
001830
1FFFF0
181800
181800
3FFFFC
303C0C
303C0C
00767C
00E738
01C380
0781C0
1F00F0
7C007E
30001C
000000
ENDCHAR

STARTCHAR jisx0208_3051
ENCODING 12369
SWIDTH 960 0
DWIDTH 24 0
BBX 24 24 0 -2
BITMAP
000000
0007E0
1FFFF0
0FF800
001800
7FFFFE
7FFFFE
007E00
01DB80
0F99F0
7E187E
30580C
006000
00C000
7FFFFE
7FFFFE
0180C0
0381C0
07FB80
020F00
007FE0
3FF0FC
1F8018
000000
ENDCHAR

STARTCHAR jisx0208_3052
ENCODING 12370
SWIDTH 960 0
DWIDTH 24 0
BBX 24 24 0 -2
BITMAP
000000
000190
0001B8
000190
1FFFFE
1FFFFE
180180
180180
1BF988
1BF98C
18C18C
18C18C
1FFCD8
1FFCD8
1998F0
1998F0
1B1860
3FF0E4
3271F6
30FBB6
71D71E
678E1E
22040C
000000
ENDCHAR

STARTCHAR jisx0208_3053
ENCODING 12371
SWIDTH 960 0
DWIDTH 24 0
BBX 24 24 0 -2
BITMAP
000000
000018
3FF818
3FF818
301818
301818
3FF818
3FFBFE
3003FE
300018
33F018
300118
300398
37FD98
37FCD8
30C098
34C818
36D818
66CC18
6CCC18
64C818
23C0F8
018070
000000
ENDCHAR

STARTCHAR jisx0208_3054
ENCODING 12372
SWIDTH 960 0
DWIDTH 24 0
BBX 24 24 0 -2
BITMAP
000000
0C0420
0C0670
0C0C60
0D0CC0
2F1FFE
3DBFFE
3D38C0
3C78C0
6CD8C0
6C5FFC
6C1FFC
2C18C0
0C18C0
0C18C0
0C1FFC
0C1FFC
0C18C0
0C18C0
0C18C0
0C1FFE
0C1FFE
0C1800
000000
ENDCHAR

STARTCHAR jisx0208_3055
ENCODING 12373
SWIDTH 960 0
DWIDTH 24 0
BBX 24 24 0 -2
BITMAP
000000
001800
001800
1FFFF8
0300C0
018180
7FFFFE
000000
000000
07FFE0
060060
060060
07FFE0
060060
060060
07FFE0
000800
119C08
198E9C
1984CC
3180CE
71FFC6
20FF84
000000
ENDCHAR

STARTCHAR jisx0208_3056
ENCODING 12374
SWIDTH 960 0
DWIDTH 24 0
BBX 24 24 0 -2
BITMAP
000000
000018
1FF818
1FF818
181818
181BFE
1FFBFE
180018
1BF118
180398
3FF9D8
30C098
36C818
66DC18
2DC8F8
058070
000800
119C08
198E9C
1984CC
3180CE
71FFC6
20FF84
000000
ENDCHAR

STARTCHAR jisx0208_3057
ENCODING 12375
SWIDTH 960 0
DWIDTH 24 0
BBX 24 24 0 -2
BITMAP
000000
000000
0FFFF0
0FFFF0
0C0030
0C0030
0FFFF0
0C0030
0C0030
0FFFF0
0FFFF0
018000
030000
07FFFC
1FFFFC
78618C
20C30C
03870C
0F0E0C
3C1C1C
107818
03E1F8
0180F0
000000
ENDCHAR

STARTCHAR jisx0208_3058
ENCODING 12376
SWIDTH 960 0
DWIDTH 24 0
BBX 24 24 0 -2
BITMAP
000000
0C0180
0C0180
0C3FFC
0C3FFC
7F83C0
7F8760
0C0E70
0C3C3C
1E1818
1E0000
1F7FFE
3DFFFE
3D0018
6C0018
2C3F18
0C3318
0C3318
0C3318
0C3F18
0C3018
0C00F8
0C0070
000000
ENDCHAR

STARTCHAR jisx0208_3059
ENCODING 12377
SWIDTH 960 0
DWIDTH 24 0
BBX 24 24 0 -2
BITMAP
000000
020800
070C00
039C00
011800
1FFFC0
1FFFC0
0060C0
006180
00FFF8
00FFF8
018018
018030
03FFFC
07FFFE
0E0046
1C22E6
3A6676
777726
26330E
0E320C
1C20FC
080078
000000
ENDCHAR

STARTCHAR jisx0208_305A
ENCODING 12378
SWIDTH 960 0
DWIDTH 24 0
BBX 24 24 0 -2
BITMAP
000000
000000
0FFFF0
0FFFF0
0C1830
0C1830
0FFFF0
0C1830
0C1830
0FFFF0
000000
000000
7FFFFE
7FFFFE
060C08
06061C
060778
0603E0
0601C0
0638E0
07F878
7FC01E
3C000C
000000
ENDCHAR

STARTCHAR jisx0208_305B
ENCODING 12379
SWIDTH 960 0
DWIDTH 24 0
BBX 24 24 0 -2
BITMAP
000000
000000
0FFFF0
0FFFF0
0C1830
0C1830
0FFFF0
0C1830
0C1830
0FFFF0
0FFFF0
018180
018180
1FFFF8
1FFFF8
018180
018180
7FFFFE
7FFFFE
0100C0
0781F0
3E003C
180008
000000
ENDCHAR

STARTCHAR jisx0208_305C
ENCODING 12380
SWIDTH 960 0
DWIDTH 24 0
BBX 24 24 0 -2
BITMAP
000000
030600
7F8600
3C0FF8
0C1FFC
0C3838
0CFC70
7F4EE0
7F07C0
0C0780
0E1E40
1F7CE0
1FB1C0
3D03FC
3C07FE
6C1E1C
2C7E38
0C2770
0C03E0
0C01C0
0C0F80
0CFE00
0C7000
000000
ENDCHAR

STARTCHAR jisx0208_305D
ENCODING 12381
SWIDTH 960 0
DWIDTH 24 0
BBX 24 24 0 -2
BITMAP
000000
020420
070630
060630
2C8C60
79CC60
3B8FFE
1F1FFE
0E3C60
0C5C60
18CC60
7FEFFC
7E6FFC
064C60
060C60
264FFC
36CFFC
36CC60
366C60
666C60
664FFE
260FFE
060C00
000000
ENDCHAR

STARTCHAR jisx0208_305E
ENCODING 12382
SWIDTH 960 0
DWIDTH 24 0
BBX 24 24 0 -2
BITMAP
000000
040300
060300
0C1FF8
2D0618
798618
3B3FFE
1E0000
0E0000
0C9FF8
199818
7FD818
7EDFF8
0680C0
0600C0
269FFC
3798C0
36D8C0
36D8C0
66BFFE
6600C0
2600C0
0600C0
000000
ENDCHAR

STARTCHAR jisx0208_305F
ENCODING 12383
SWIDTH 960 0
DWIDTH 24 0
BBX 24 24 0 -2
BITMAP
000000
000000
1FFFF8
181818
181818
1FFFF8
181818
181818
1FFFF8
000000
000000
0FFFF0
0C0030
0C0030
0FFFF0
0C0030
0C0030
0FFFF0
0C0030
0C0030
0C0030
0C01F0
0C00E0
000000
ENDCHAR

STARTCHAR jisx0208_3060
ENCODING 12384
SWIDTH 960 0
DWIDTH 24 0
BBX 24 24 0 -2
BITMAP
000000
018180
018180
7FFFFE
018180
000000
000FF0
1FF800
001800
7FFFFE
007E00
03DBC0
7F18FE
38181C
006000
7FFFFE
00C0C0
0180C0
03F980
070F80
007FF0
3FF87C
1F8018
000000
ENDCHAR

STARTCHAR jisx0208_3061
ENCODING 12385
SWIDTH 960 0
DWIDTH 24 0
BBX 24 24 0 -2
BITMAP
000000
001800
001800
001800
001800
7FFFFE
7FFFFE
003C00
006C08
006C1C
00C638
01C670
0386E0
0703C0
0F0380
3F0180
7B00C0
2300E0
030C70
037C38
03F01C
3F800E
1C0004
000000
ENDCHAR

STARTCHAR jisx0208_3062
ENCODING 12386
SWIDTH 960 0
DWIDTH 24 0
BBX 24 24 0 -2
BITMAP
000000
000000
3F9FFE
0018C6
0018C6
7FDFFE
0018C6
0018C6
3F9FFE
000000
000000
3F8FFC
000C0C
000C0C
3F8FFC
3F8C0C
318C0C
318FFC
318C0C
318C0C
3F8C0C
3F8C7C
300C38
000000
ENDCHAR

STARTCHAR jisx0208_3063
ENCODING 12387
SWIDTH 960 0
DWIDTH 24 0
BBX 24 24 0 -2
BITMAP
000000
000600
100600
387FF0
1C0C30
0E0C30
04FFFC
000000
003FF8
003018
003018
7C3FF8
7C0180
0C0180
0C3FF8
0C3180
0C3180
0CFFFC
0C0180
1C0180
3E0000
73FFFE
20FFFC
000000
ENDCHAR

STARTCHAR jisx0208_3064
ENCODING 12388
SWIDTH 960 0
DWIDTH 24 0
BBX 24 24 0 -2
BITMAP
000000
000300
100300
387FF8
1C6318
0E6318
047FF8
000300
01FFFE
000000
007FF8
7C6018
7C7FF8
0C6018
0C7FF8
0C6018
0C7FF8
0C1020
0C3878
1CF01C
3E4008
73FFFE
20FFFC
000000
ENDCHAR

STARTCHAR jisx0208_3065
ENCODING 12389
SWIDTH 960 0
DWIDTH 24 0
BBX 24 24 0 -2
BITMAP
000000
000000
3FFFFC
3FFFFC
306000
306000
30FFF8
31FFF8
338600
310600
300600
33FFFC
33FFFC
300F00
301D80
3039C0
30F0F0
33E07C
318018
300000
3FFFFE
3FFFFE
300000
000000
ENDCHAR

STARTCHAR jisx0208_3066
ENCODING 12390
SWIDTH 960 0
DWIDTH 24 0
BBX 24 24 0 -2
BITMAP
000000
018180
018180
018180
018180
3FFFFC
3FFFFC
018180
018180
018180
018180
018180
018180
7FFFFE
7FFFFE
018180
038180
030180
070180
0E0180
1C0180
780180
200180
000000
ENDCHAR

STARTCHAR jisx0208_3067
ENCODING 12391
SWIDTH 960 0
DWIDTH 24 0
BBX 24 24 0 -2
BITMAP
000000
001800
001800
001800
7FFFFE
7FFFFE
002000
007080
08E1C0
1FC380
078700
01CE10
00FC38
007870
00F0E0
03C1C0
3F0780
1C0F00
003FC0
0078F0
03E038
3F801C
1C0008
000000
ENDCHAR

STARTCHAR jisx0208_3068
ENCODING 12392
SWIDTH 960 0
DWIDTH 24 0
BBX 24 24 0 -2
BITMAP
000000
180190
1801B8
18019C
180188
18FFFE
18FFFE
7E0180
7E0188
18FD8C
18FD8C
18CCCC
18CCD8
18FCD8
18FCD8
1EC070
1E0674
783EE6
63F9F6
01C3BE
00071E
000E0E
000404
000000
ENDCHAR

STARTCHAR jisx0208_3069
ENCODING 12393
SWIDTH 960 0
DWIDTH 24 0
BBX 24 24 0 -2
BITMAP
000000
001800
001800
7FFFFE
7FFFFE
0060C0
00C060
018FF0
3FFFF8
1FF01C
000008
07FFE0
060060
060060
07FFE0
060060
060060
07FFE0
060060
060060
060060
0603E0
0601C0
000000
ENDCHAR

STARTCHAR jisx0208_306A
ENCODING 12394
SWIDTH 960 0
DWIDTH 24 0
BBX 24 24 0 -2
BITMAP
000000
030000
0301FC
0301FE
3FF98C
3FF98C
060198
060198
0FF1B0
0FF1B0
1C3198
3C318C
7FF18C
2FF186
0C3186
0C3186
0FF186
0FF186
0C31FC
0C31B8
0C3180
0CF180
0C6180
000000
ENDCHAR

STARTCHAR jisx0208_306B
ENCODING 12395
SWIDTH 960 0
DWIDTH 24 0
BBX 24 24 0 -2
BITMAP
000000
000180
7F1190
7F31B0
1865E4
182DAC
181998
181190
1835B4
3FFFFE
3F6382
330198
73018C
737FFE
3330C0
3330C8
3334DC
3F6CF8
3F6670
30C4E4
31C3B6
338F1E
01040C
000000
ENDCHAR

STARTCHAR jisx0208_306C
ENCODING 12396
SWIDTH 960 0
DWIDTH 24 0
BBX 24 24 0 -2
BITMAP
000000
000000
000000
000000
000000
000000
000000
000000
000000
000000
000000
000000
7FFFFC
7FFFFC
000000
000000
000000
000000
000000
000000
000000
000000
000000
000000
ENDCHAR

STARTCHAR jisx0208_306D
ENCODING 12397
SWIDTH 960 0
DWIDTH 24 0
BBX 24 24 0 -2
BITMAP
000000
001800
001800
3FFFFC
3FFFFC
001800
001800
0FFFF0
000000
000000
7FFFFE
7FFFFE
600006
600006
6300C6
030FE0
03FF00
03F000
030008
03000C
03000C
03FFFC
01FFF8
000000
ENDCHAR

STARTCHAR jisx0208_306E
ENCODING 12398
SWIDTH 960 0
DWIDTH 24 0
BBX 24 24 0 -2
BITMAP
000000
101010
3C3818
0E1830
040C70
000820
01FFFE
21FFFE
781860
1C1860
083030
007038
00E01C
09C00E
0CFFFC
0C7FF8
186498
186498
186498
306498
306498
71FFFE
21FFFE
000000
ENDCHAR

STARTCHAR jisx0208_306F
ENCODING 12399
SWIDTH 960 0
DWIDTH 24 0
BBX 24 24 0 -2
BITMAP
000000
201800
701800
383FC0
1C7FE0
08E0C0
038180
01FFF8
00FFF8
00C618
00C618
7CFFF8
7CFFF8
0C1980
0C1980
0C3188
0C718C
0DE1FC
0C80F8
1C0000
3E0000
73FFFE
20FFFC
000000
ENDCHAR

STARTCHAR jisx0208_3070
ENCODING 12400
SWIDTH 960 0
DWIDTH 24 0
BBX 24 24 0 -2
BITMAP
000000
03003C
7FBFFE
3C1FC0
0C0004
0C0106
0C138E
7FB9CC
7F9C9C
0C0808
0C0000
1E33FC
1F33FC
3FB30C
3D330C
6C33FC
2C33FC
0C330C
0C330C
0C330C
0C33FC
0C33FC
0C330C
000000
ENDCHAR

STARTCHAR jisx0208_3071
ENCODING 12401
SWIDTH 960 0
DWIDTH 24 0
BBX 24 24 0 -2
BITMAP
000000
018180
018180
7FFFFE
7FFFFE
018180
019180
101800
381000
1C3FF8
0E3FFC
04730C
00E318
004338
000310
010780
038780
070EC0
0E1CE0
3C3870
78F03C
23E01E
018004
000000
ENDCHAR

STARTCHAR jisx0208_3072
ENCODING 12402
SWIDTH 960 0
DWIDTH 24 0
BBX 24 24 0 -2
BITMAP
000000
018180
018180
7FFFFE
7FFFFE
018180
018180
000000
000000
1FFFF8
1FFFF8
001800
001800
001800
7FFFFE
7FFFFE
001800
001800
001800
001800
001800
01F800
00F000
000000
ENDCHAR

STARTCHAR jisx0208_3073
ENCODING 12403
SWIDTH 960 0
DWIDTH 24 0
BBX 24 24 0 -2
BITMAP
000000
100000
183F7E
1F3F7E
310306
330306
621F3E
3F9F3E
249830
249830
24B060
3FBF7E
24BF7E
248306
24B366
3F9B36
000B16
001F3E
2AFBF6
2AA346
2A870E
6A3E7C
401C38
000000
ENDCHAR

STARTCHAR jisx0208_3074
ENCODING 12404
SWIDTH 960 0
DWIDTH 24 0
BBX 24 24 0 -2
BITMAP
000000
002000
003000
006040
0060E0
00C070
00C038
0183F8
7FFFFC
3FFF0E
00C304
00C300
00C300
00C300
00C300
00C300
01C300
018304
038306
070306
1E0306
7C03FE
3001FC
000000
ENDCHAR

STARTCHAR jisx0208_3075
ENCODING 12405
SWIDTH 960 0
DWIDTH 24 0
BBX 24 24 0 -2
BITMAP
000000
006000
03F000
3FC7FC
3E07FC
30060C
30060C
30060C
30060C
3FE60C
3FE60C
30060C
30060C
30060C
30060C
30060C
30060C
3FE60C
3FE67C
300638
300600
300600
000600
000000
ENDCHAR

STARTCHAR jisx0208_3076
ENCODING 12406
SWIDTH 960 0
DWIDTH 24 0
BBX 24 24 0 -2
BITMAP
000000
000000
007FFC
7E7FFC
7E600C
66630C
66630C
66630C
666FEC
666FEC
66630C
66630C
66638C
6666CC
7E66CC
7E6C6C
607C6C
60684C
00600C
00600C
007FFC
007FFC
00600C
000000
ENDCHAR

STARTCHAR jisx0208_3077
ENCODING 12407
SWIDTH 960 0
DWIDTH 24 0
BBX 24 24 0 -2
BITMAP
000000
0FFFE0
0FFFE0
0C0060
0C0060
0FFFE0
0FFFE0
000000
000000
1FFFF0
180030
180030
1FFFF0
180030
180030
1FFFF0
180030
180030
1FFFF0
0100C0
0F81F8
7E003E
300004
000000
ENDCHAR

STARTCHAR jisx0208_3078
ENCODING 12408
SWIDTH 960 0
DWIDTH 24 0
BBX 24 24 0 -2
BITMAP
000000
3FFFFC
3FFFFC
30000C
30180C
30180C
30180C
30180C
37FFEC
37FFEC
30180C
303C0C
30340C
30660C
30E30C
31C38C
3381CC
3700EC
32004C
30000C
3FFFFC
3FFFFC
30000C
000000
ENDCHAR

STARTCHAR jisx0208_3079
ENCODING 12409
SWIDTH 960 0
DWIDTH 24 0
BBX 24 24 0 -2
BITMAP
000000
0C0000
0C3FFC
0C3FFC
0C300C
7FB18C
7FB18C
19B18C
19B7EC
19B7EC
19B18C
31B18C
31B18C
31B3CC
3B336C
7F366C
273E3C
07B42C
0DF00C
1CB00C
383FFC
703FFC
20300C
000000
ENDCHAR

STARTCHAR jisx0208_307A
ENCODING 12410
SWIDTH 960 0
DWIDTH 24 0
BBX 24 24 0 -2
BITMAP
000000
000018
7FF018
7FF018
003018
003018
003018
3FF018
3FF018
300018
300018
300018
300018
7FF018
7FF018
603018
003018
003018
007018
006018
00E018
1FC018
0F8018
000000
ENDCHAR

STARTCHAR jisx0208_307B
ENCODING 12411
SWIDTH 960 0
DWIDTH 24 0
BBX 24 24 0 -2
BITMAP
000000
038200
078300
0EC300
1CE300
3877FC
7327FE
230CCC
1FECCC
1878D8
1868C8
1FE0C0
1860C0
1861E0
1FE1E0
1801B0
1881B0
19C330
18C318
1BE618
1F6E0C
7C5C0E
300804
000000
ENDCHAR

STARTCHAR jisx0208_307C
ENCODING 12412
SWIDTH 960 0
DWIDTH 24 0
BBX 24 24 0 -2
BITMAP
000000
100030
3C07F8
0EFFC0
047808
00041C
008E18
21C738
78E210
1C4000
0800F8
00FFFC
007F00
080300
0C0300
0DFFFE
19FFFE
180300
180300
300300
300300
70FFFC
20FFFC
000000
ENDCHAR

STARTCHAR jisx0208_307D
ENCODING 12413
SWIDTH 960 0
DWIDTH 24 0
BBX 24 24 0 -2
BITMAP
000000
0C1060
0CB860
0DE460
0CCE60
0C7860
0C3260
0C6660
0DFF60
0DFB60
0C0260
0C0060
0CFE60
0CC660
0CC660
0CFE60
0CC660
18C664
18FE66
18C666
30C666
70DE7E
20CC3C
000000
ENDCHAR

STARTCHAR jisx0208_307E
ENCODING 12414
SWIDTH 960 0
DWIDTH 24 0
BBX 24 24 0 -2
BITMAP
000000
00C180
00C180
7FFFFE
00C180
000180
3F03C0
3F8660
319C38
33700E
3327E4
360000
360FF0
330030
330060
319FF8
318000
318000
3FBFFE
370630
300C18
307FFC
303F0C
000000
ENDCHAR

STARTCHAR jisx0208_3121
ENCODING 12577
SWIDTH 960 0
DWIDTH 24 0
BBX 24 24 0 -2
BITMAP
000000
000180
3F0180
3F8180
31BFFE
31BFFE
333006
333006
3637F6
3607F0
330000
330000
31BFFE
31BFFE
318660
318660
3F8660
370E60
300C64
301C66
303866
30F07E
30603C
000000
ENDCHAR

STARTCHAR jisx0208_3122
ENCODING 12578
SWIDTH 960 0
DWIDTH 24 0
BBX 24 24 0 -2
BITMAP
000000
7F0380
7F8380
6186C0
630EE0
631C70
66383C
66F7DE
6C4004
6C0000
661FE0
630030
630060
61BFFC
618000
618000
61FFFE
6F8C20
670C70
601838
601BFC
60FF8E
607804
000000
ENDCHAR

STARTCHAR jisx0208_3123
ENCODING 12579
SWIDTH 960 0
DWIDTH 24 0
BBX 24 24 0 -2
BITMAP
000000
7E0078
7F7FFC
633F08
63221C
663318
661138
660010
6C7FF8
6C0018
660018
663FF8
630018
630018
637FF8
630000
631908
7F9B9C
6ED98C
60D926
619836
639FF4
610FE0
000000
ENDCHAR

STARTCHAR jisx0208_3124
ENCODING 12580
SWIDTH 960 0
DWIDTH 24 0
BBX 24 24 0 -2
BITMAP
000000
060000
0607FC
7FE7FC
7FE60C
30C60C
18C7FC
198000
7FE000
7FE7FC
00060C
00060C
3FC7FC
3FC60C
30C60C
30C7FC
3FC60C
3FC60C
30C7FC
30C210
3FC73C
3FDE0E
300804
000000
ENDCHAR

STARTCHAR jisx0208_3125
ENCODING 12581
SWIDTH 960 0
DWIDTH 24 0
BBX 24 24 0 -2
BITMAP
000000
000030
000030
7F0030
7F0030
630030
637FFE
637FFE
630030
630030
630030
631030
633830
7F1C30
7F0C30
600E30
600430
600030
000030
000030
000030
0003F0
0001E0
000000
ENDCHAR

STARTCHAR jisx0208_3126
ENCODING 12582
SWIDTH 960 0
DWIDTH 24 0
BBX 24 24 0 -2
BITMAP
000000
002000
003000
003000
006000
7FFFFE
7FFFFE
00C000
01C000
018000
038000
030000
07FFF8
0FFFF8
1F0018
3B0018
730018
230018
030018
030018
03FFF8
03FFF8
030018
000000
ENDCHAR

STARTCHAR jisx0208_3127
ENCODING 12583
SWIDTH 960 0
DWIDTH 24 0
BBX 24 24 0 -2
BITMAP
000000
001800
001800
7FFFFE
7FFFFE
600006
600006
600006
07FFE0
07FFE0
001800
001800
001800
001800
7FFFFE
7FFFFE
001800
001800
001800
001800
001800
00F800
007000
000000
ENDCHAR

STARTCHAR jisx0208_3128
ENCODING 12584
SWIDTH 960 0
DWIDTH 24 0
BBX 24 24 0 -2
BITMAP
000000
006000
00C000
0FFFE0
0FFFE0
0C0060
0C0060
0FFFE0
0FFFE0
0C0000
0C0000
0FFFFC
0C0000
0C0000
0FFFFC
0FFFFC
00010C
11138C
1BB9CC
39989C
30CC18
7089F8
2000F0
000000
ENDCHAR

STARTCHAR jisx0208_3129
ENCODING 12585
SWIDTH 960 0
DWIDTH 24 0
BBX 24 24 0 -2
BITMAP
000000
000000
3FE7FC
3FE7FC
00600C
00600C
10620C
38670C
1C638C
0E61CC
04608C
00600C
01602C
03E07C
0760EC
0E61CC
3C678C
786F0C
20640C
00600C
00600C
07E0FC
03C078
000000
ENDCHAR

STARTCHAR jisx0208_312A
ENCODING 12586
SWIDTH 960 0
DWIDTH 24 0
BBX 24 24 0 -2
BITMAP
000000
200000
707FFC
387FFC
1C0180
080180
000180
000180
000180
00FFFE
7CFFFE
7C0180
0C0180
0C0180
0C0180
0C0180
0C0180
0C0F80
0C0700
1C0000
3F0000
73FFFE
20FFFC
000000
ENDCHAR

STARTCHAR jisx0208_312B
ENCODING 12587
SWIDTH 960 0
DWIDTH 24 0
BBX 24 24 0 -2
BITMAP
000000
000000
7FFFFE
7FFFFE
001800
001800
001800
3FFFFC
3FFFFC
30180C
32190C
379BCC
31D8EC
30984C
30180C
32190C
379BCC
31D8EC
30984C
30180C
30180C
30187C
301838
000000
ENDCHAR

STARTCHAR jisx0208_312C
ENCODING 12588
SWIDTH 960 0
DWIDTH 24 0
BBX 24 24 0 -2
BITMAP
000000
004000
01E000
3FC7FC
3E07FC
30060C
30C60C
30C60C
30C60C
30C60C
30C60C
30C60C
30C60C
31C60C
37C60C
3EC60C
78C60C
2186FC
018678
030600
0E0600
3C0600
100600
000000
ENDCHAR

STARTCHAR jisx0208_312D
ENCODING 12589
SWIDTH 960 0
DWIDTH 24 0
BBX 24 24 0 -2
BITMAP
000000
208080
70C0C0
39C180
1187FC
7FE60C
7FE60C
0667FC
06660C
3FE60C
2607FC
260600
7FE600
7FE7FE
4E6600
0E6600
1E67FE
1E6006
37E556
76C556
260D0C
06087C
060038
000000
ENDCHAR

STARTCHAR jisx0208_312E
ENCODING 12590
SWIDTH 960 0
DWIDTH 24 0
BBX 24 24 0 -2
BITMAP
000000
001800
001800
3FFFFC
3FFFFC
30C64C
31C66C
0387E0
1F03C0
0C0000
030FF8
030C18
1FEFF8
030C18
030FF8
3FEC18
030C18
07CFF8
06E360
0E4664
1C0E66
787C7E
20303C
000000
ENDCHAR

STARTCHAR jisx0208_312F
ENCODING 12591
SWIDTH 960 0
DWIDTH 24 0
BBX 24 24 0 -2
BITMAP
000000
000000
1FFFE0
1FFFE0
006060
006060
006060
00E060
00C060
00C060
00C060
3FFFFE
3FFFFE
00C0C0
00C0C0
01C0C0
0180C0
0180C0
0180C0
0180C0
7FFFFE
7FFFFE
000000
000000
ENDCHAR

STARTCHAR jisx0208_3130
ENCODING 12592
SWIDTH 960 0
DWIDTH 24 0
BBX 24 24 0 -2
BITMAP
000000
000420
7FC630
7FC660
0C0C60
0C0FFE
0C1FFE
183C60
187C60
182C60
3F8FFC
3F8FFC
798C60
398C60
198C60
198FFC
198FFC
198C60
1F8C60
1F8C60
180FFE
180FFE
000C00
000000
ENDCHAR

STARTCHAR jisx0208_3131
ENCODING 12593
SWIDTH 960 0
DWIDTH 24 0
BBX 24 24 0 -2
BITMAP
000000
00C000
03E000
3F8FFC
3C0FFC
30000C
30000C
30000C
30000C
30000C
30000C
3FE7FC
3FE7FC
30000C
30000C
30000C
30000C
30000C
30000C
3FFFFC
3FFFFC
30000C
30000C
000000
ENDCHAR

STARTCHAR jisx0208_3132
ENCODING 12594
SWIDTH 960 0
DWIDTH 24 0
BBX 24 24 0 -2
BITMAP
000000
100000
3C7FF8
0E7FF8
046018
006018
0063F8
2063F8
786318
1C6318
09FFFE
01FFFE
018006
098006
0D9FE6
0D9FE6
199866
199866
199FE6
319FE6
319806
71803E
21801C
000000
ENDCHAR

STARTCHAR jisx0208_3133
ENCODING 12595
SWIDTH 960 0
DWIDTH 24 0
BBX 24 24 0 -2
BITMAP
000000
000600
0007F8
7C0600
7C0600
64FFFC
64FFFE
64C60C
64C618
64C7E0
64FE08
64C60C
64C7FC
7CC3F8
7CC000
60C660
61D668
61B66C
019E78
039668
030660
077FFE
027FFE
000000
ENDCHAR

STARTCHAR jisx0208_3134
ENCODING 12596
SWIDTH 960 0
DWIDTH 24 0
BBX 24 24 0 -2
BITMAP
000000
000000
003FF8
7F3FF8
7F3018
633018
633018
633FF8
633FF8
633018
633018
633FF8
633FF8
7F3018
7F3018
603018
603FF8
603FF8
000820
001C78
00783C
01F00E
00C004
000000
ENDCHAR

STARTCHAR jisx0208_3135
ENCODING 12597
SWIDTH 960 0
DWIDTH 24 0
BBX 24 24 0 -2
BITMAP
000000
0C2430
0C1830
7FA5FE
1E0078
3F24FC
6D99B6
4CA532
000000
1FFFF8
18C318
1FFFF8
000000
1FF018
183018
1FF7FE
1837FE
1FF018
184218
18E798
1BF118
7F38F8
381070
000000
ENDCHAR

STARTCHAR jisx0208_3136
ENCODING 12598
SWIDTH 960 0
DWIDTH 24 0
BBX 24 24 0 -2
BITMAP
000000
018180
018180
7FFFFE
7FFFFE
018180
000000
1FF818
181818
181818
1FF818
1807FE
1807FE
1BF818
180118
180318
1FFD98
30C198
36C918
36DC18
6CCE18
25C4F8
018070
000000
ENDCHAR

STARTCHAR jisx0208_3137
ENCODING 12599
SWIDTH 960 0
DWIDTH 24 0
BBX 24 24 0 -2
BITMAP
000000
0C0000
0C0FF8
1F8C18
188FF8
318C18
610FF8
3FC000
324000
325FFC
32524C
3FD24C
325FFC
324000
324000
3FDFF0
000618
000330
3541E0
3541C0
350770
653C1E
201004
000000
ENDCHAR

STARTCHAR jisx0208_3138
ENCODING 12600
SWIDTH 960 0
DWIDTH 24 0
BBX 24 24 0 -2
BITMAP
000000
0C0300
0C0304
0C0306
0C1FEC
7F9FEC
7F8318
198318
198330
19BFFE
19BFFE
3181C0
318380
330700
7B1E0C
6E7E3E
0737F8
0F87C0
0DC604
1C8606
380606
7007FE
2003FC
000000
ENDCHAR

STARTCHAR jisx0208_3139
ENCODING 12601
SWIDTH 960 0
DWIDTH 24 0
BBX 24 24 0 -2
BITMAP
000000
000000
1FFFFE
1FFFFE
180000
180000
1BFBFC
1BFBFC
1B1930
1B1930
1BF930
1B1960
1B1FFE
1BFFFE
1BF860
1B10C0
3338F0
3319B0
337DB0
63EB34
6F8736
260E3E
00041C
000000
ENDCHAR

STARTCHAR jisx0208_313A
ENCODING 12602
SWIDTH 960 0
DWIDTH 24 0
BBX 24 24 0 -2
BITMAP
000000
100310
3C033C
0E0308
05FFFE
01FFFE
000300
200300
78FFFC
1CFFFC
08C30C
00C30C
00FFFC
08FFFC
0CC30C
0CC30C
18FFFC
18FFFC
18C30C
30C30C
30C30C
70C37C
20C338
000000
ENDCHAR

STARTCHAR jisx0208_313B
ENCODING 12603
SWIDTH 960 0
DWIDTH 24 0
BBX 24 24 0 -2
BITMAP
000000
000030
0007F8
0FFFE0
0FF860
0C3060
0C3060
0C3060
0C3060
0C3060
0C3060
0C3060
0C3030
0C3030
0C3030
0C3130
0C3318
183198
183798
183FCC
33F8CC
71C0C6
200084
000000
ENDCHAR

STARTCHAR jisx0208_313C
ENCODING 12604
SWIDTH 960 0
DWIDTH 24 0
BBX 24 24 0 -2
BITMAP
000000
000000
7FC7FC
60C60C
60C60C
7FC7FC
60C60C
60C60C
7FC7FC
60000C
60000C
63FF8C
63FF8C
60300C
60300C
61FF0C
61FF0C
60300C
60300C
67FFCC
67FFCC
60003C
600018
000000
ENDCHAR

STARTCHAR jisx0208_313D
ENCODING 12605
SWIDTH 960 0
DWIDTH 24 0
BBX 24 24 0 -2
BITMAP
000000
001020
003C70
7E08C0
7EFFFE
660480
660480
667FFC
66648C
66648C
6668FC
66600C
667FFC
7E600C
7E7FFC
600030
600030
01FFFE
002030
007030
003830
0011F0
0000E0
000000
ENDCHAR

STARTCHAR jisx0208_313E
ENCODING 12606
SWIDTH 960 0
DWIDTH 24 0
BBX 24 24 0 -2
BITMAP
000000
000000
0FFFF0
0FFFF0
000000
000000
000000
000000
000000
000000
7FFFFE
7FFFFE
006000
006000
00C080
00C1C0
0180E0
030070
0301F8
067FFC
7FFE0C
3F8006
000004
000000
ENDCHAR

STARTCHAR jisx0208_313F
ENCODING 12607
SWIDTH 960 0
DWIDTH 24 0
BBX 24 24 0 -2
BITMAP
000000
200000
70FFFC
38FFFC
1CC00C
08C30C
003FF0
000300
007FF8
006318
006318
7C7FF8
7C6318
0C6318
0C7FF8
0C0300
0C0300
0CFFFC
0C0300
1C0300
3F0000
73FFFE
20FFFC
000000
ENDCHAR

STARTCHAR jisx0208_3140
ENCODING 12608
SWIDTH 960 0
DWIDTH 24 0
BBX 24 24 0 -2
BITMAP
000000
000000
1FFFF8
1FFFF8
001800
001800
7FFFFE
601806
601806
6799E6
001800
0799E0
000000
000000
0FFFF0
000000
000000
7FFFFE
006020
00C070
018FF8
3FFF9C
1FE008
000000
ENDCHAR

STARTCHAR jisx0208_3141
ENCODING 12609
SWIDTH 960 0
DWIDTH 24 0
BBX 24 24 0 -2
BITMAP
000000
00C180
00C180
7FFFFE
7FFFFE
00C180
00C180
020000
0700F0
067FF8
0C3F00
0C0300
1C0300
3C0300
7DFFFE
2DFFFE
0C0300
0C0300
0C0300
0C0300
0CFFFC
0CFFFC
0C0000
000000
ENDCHAR

STARTCHAR jisx0208_3142
ENCODING 12610
SWIDTH 960 0
DWIDTH 24 0
BBX 24 24 0 -2
BITMAP
000000
038000
07CFFE
0EEFFE
1C7618
383618
732618
2307F8
1FE7F8
186618
186618
1FE7F8
1867F8
186618
1FE618
18061E
18867E
1987F8
18DF98
1BCC18
1F6018
7C6018
304018
000000
ENDCHAR

STARTCHAR jisx0208_3143
ENCODING 12611
SWIDTH 960 0
DWIDTH 24 0
BBX 24 24 0 -2
BITMAP
000000
030000
030000
03F7F8
0307FC
7FFB0C
601B0C
601B0C
0FC30C
10230C
387198
733998
27D198
0CE198
1830F0
7FF8F0
387060
1FE0F0
1861F0
1FE398
18671C
1FEE0E
186404
000000
ENDCHAR

STARTCHAR jisx0208_3144
ENCODING 12612
SWIDTH 960 0
DWIDTH 24 0
BBX 24 24 0 -2
BITMAP
000000
041010
0E3838
071C70
0208E0
7FFFFE
7FFFFE
600006
600006
63FFC6
03FFC0
0300C0
0300C0
03FFC0
001800
003000
1FFFF8
1FFFF8
180018
180018
1FFFF8
1FFFF8
180018
000000
ENDCHAR

STARTCHAR jisx0208_3145
ENCODING 12613
SWIDTH 960 0
DWIDTH 24 0
BBX 24 24 0 -2
BITMAP
000000
000000
3FE7FC
30660C
3FE7FC
30660C
3FE7FC
30660C
3FE7FC
108108
39E39C
70470E
203204
006000
7FFFFE
7FFFFE
018180
030180
0FFB00
040F80
007CF0
3FF03C
1E0008
000000
ENDCHAR

STARTCHAR jisx0208_3146
ENCODING 12614
SWIDTH 960 0
DWIDTH 24 0
BBX 24 24 0 -2
BITMAP
000000
000008
3FF01C
3FF038
303070
3FF1E0
3033C0
3FF104
03000E
03001C
7FF838
000070
0001E0
3FF3C0
303100
303004
3FF00E
03001C
132038
3B7070
7339E0
2F17C0
060300
000000
ENDCHAR

STARTCHAR jisx0208_3147
ENCODING 12615
SWIDTH 960 0
DWIDTH 24 0
BBX 24 24 0 -2
BITMAP
000000
000300
7F0300
7F0300
633FF8
633FF8
633118
633118
633118
7F3118
7F3118
633118
63FFFE
63FFFE
630380
630380
7F06C0
7F06C0
600E60
601C70
607838
01F01E
00C00C
000000
ENDCHAR

STARTCHAR jisx0208_3148
ENCODING 12616
SWIDTH 960 0
DWIDTH 24 0
BBX 24 24 0 -2
BITMAP
000000
003000
003000
003000
1FFFE0
1FFFE0
183060
183060
1FFFE0
1FFFE0
183060
183060
1FFFE0
1FFFE0
181820
181870
000CE0
000DC0
000784
003F06
01F9C6
7FC0FE
3C003C
000000
ENDCHAR

STARTCHAR jisx0208_3149
ENCODING 12617
SWIDTH 960 0
DWIDTH 24 0
BBX 24 24 0 -2
BITMAP
000000
041010
0E3838
071C30
030C70
0208E0
7FFFFE
7FFFFE
600006
601806
601806
001800
3FFFFC
3FFFFC
007E00
00DB00
01DB80
0399C0
0718E0
1E1878
7C183E
30180C
001800
000000
ENDCHAR

STARTCHAR jisx0208_314A
ENCODING 12618
SWIDTH 960 0
DWIDTH 24 0
BBX 24 24 0 -2
BITMAP
000000
00C000
01F000
007C00
000E00
000400
07F800
07F808
00181C
001C38
3F9C70
3F9EE0
019FC0
019B80
031B00
031980
0619C0
0E18E0
1C1870
38183C
70181E
20F804
007000
000000
ENDCHAR

STARTCHAR jisx0208_314B
ENCODING 12619
SWIDTH 960 0
DWIDTH 24 0
BBX 24 24 0 -2
BITMAP
000000
101800
3C3F00
0E07C0
040080
000000
007F00
207F00
780308
1C031C
09FBB8
01FBF0
001BE0
081BC0
0C3360
0C3360
186330
186330
18C318
31C31C
33830E
711F04
200E00
000000
ENDCHAR

STARTCHAR jisx0208_314C
ENCODING 12620
SWIDTH 960 0
DWIDTH 24 0
BBX 24 24 0 -2
BITMAP
000000
100600
3C0600
0E0600
05FFF8
01FFF8
018618
218618
79FFF8
1DFFF8
098618
018618
01FFF8
09FFF8
0C0608
0C031C
180338
1803F0
1801C0
3007C4
303E76
73F83E
21C00C
000000
ENDCHAR

STARTCHAR jisx0208_314D
ENCODING 12621
SWIDTH 960 0
DWIDTH 24 0
BBX 24 24 0 -2
BITMAP
000000
000C60
7F0C60
7F7FFE
0C7FFE
0C0C60
0C0D60
0C0100
0C3FF8
7F3FF8
7F3118
0C3118
0C3118
0C3118
0CFFFE
0CFFFE
0F0780
7F06C0
700EE0
001C70
00783C
01F01E
00C004
000000
ENDCHAR

STARTCHAR jisx0208_314E
ENCODING 12622
SWIDTH 960 0
DWIDTH 24 0
BBX 24 24 0 -2
BITMAP
000000
000000
3FFF80
3FFFC0
030180
030180
03F9FC
07FFFC
061B0C
0E980C
0DF00C
1C7C0C
39CE18
7784F8
220070
000000
0FFFF0
0FFFF0
0C6630
0C6630
0C6630
7FFFFE
7FFFFE
000000
ENDCHAR

STARTCHAR jisx0208_314F
ENCODING 12623
SWIDTH 960 0
DWIDTH 24 0
BBX 24 24 0 -2
BITMAP
000000
300000
30CFFE
3FEFFE
3F00C0
304180
3067FC
3FE7FC
1FC60C
00060C
0387FC
3FC60C
1E060C
0607FC
7FE60C
7FE60C
0607FC
0F87FC
1FC110
3EE3B8
764F1C
261E0E
060804
000000
ENDCHAR

STARTCHAR jisx0208_3150
ENCODING 12624
SWIDTH 960 0
DWIDTH 24 0
BBX 24 24 0 -2
BITMAP
000000
300000
30CFFE
3FEFFE
3F00C0
304180
3067FC
3FE7FC
1FC60C
00060C
0007FC
3FC60C
00060C
0007FC
7FE60C
06060C
2647FC
36C7FC
36C110
6663B8
264F1C
1E1E0E
0C0804
000000
ENDCHAR

STARTCHAR jisx0208_3151
ENCODING 12625
SWIDTH 960 0
DWIDTH 24 0
BBX 24 24 0 -2
BITMAP
000000
018180
018180
7FFFFE
7FFFFE
018180
019980
001800
07FFE0
07FFE0
061860
061860
061860
061860
7FFFFE
7FFFFE
003C00
007600
00E700
01C3C0
0781F0
7E007E
38001C
000000
ENDCHAR

STARTCHAR jisx0208_3152
ENCODING 12626
SWIDTH 960 0
DWIDTH 24 0
BBX 24 24 0 -2
BITMAP
000000
003000
083000
1CFF7C
38637C
706300
25FF80
060000
0C007E
0CFF7E
18C318
18C318
38FF18
780C18
580C18
18FF18
18CC18
18CC18
18CC18
19FF98
180C18
180C78
180C30
000000
ENDCHAR

STARTCHAR jisx0208_3153
ENCODING 12627
SWIDTH 960 0
DWIDTH 24 0
BBX 24 24 0 -2
BITMAP
000000
000C00
3F1F80
0003C0
000080
7F8000
001F80
001F80
3F0188
00019C
007D98
3F7DB0
000DE0
000DC0
3F19E0
3F19A0
3331B0
333198
33619C
33E18E
3F4184
3F0F80
300700
000000
ENDCHAR

STARTCHAR jisx0208_3154
ENCODING 12628
SWIDTH 960 0
DWIDTH 24 0
BBX 24 24 0 -2
BITMAP
000000
070408
0F8E0C
1DC718
38E338
704210
200FFC
1F8FFC
1F8C0C
060C0C
060C0C
7FCC0C
7FCFFC
060FFC
264360
666360
36C760
364660
260664
06CC66
07DC66
7F387E
38103C
000000
ENDCHAR

STARTCHAR jisx0208_3155
ENCODING 12629
SWIDTH 960 0
DWIDTH 24 0
BBX 24 24 0 -2
BITMAP
000000
100300
3C0300
0EFFFE
04FFFE
002100
003180
203180
7871F8
1C63FC
08E30C
00E60C
01E6D8
0BEE78
0D7B38
0C6BB0
1861F0
1860E0
1861F0
3063B8
30671C
706E0E
206404
000000
ENDCHAR

STARTCHAR jisx0208_3156
ENCODING 12630
SWIDTH 960 0
DWIDTH 24 0
BBX 24 24 0 -2
BITMAP
000000
000600
000600
0FFFFE
0FFFFE
0C0000
2C3FC0
6C3FC0
3C30C4
2C30C6
0C70FE
0CE07C
2DC000
3C8000
6CFFF0
2CFFF8
0C3030
0C3860
181CC0
180780
301FE0
73FCFE
21E01C
000000
ENDCHAR

STARTCHAR jisx0208_3157
ENCODING 12631
SWIDTH 960 0
DWIDTH 24 0
BBX 24 24 0 -2
BITMAP
000000
020080
0701C0
038180
010300
7FFFFE
7FFFFE
018300
018180
0301C0
0700E0
0E0070
38003C
7FFFFE
2FFFF4
0C6630
0C6630
0C6630
0C6630
0C6630
0C6630
7FFFFE
7FFFFE
000000
ENDCHAR

STARTCHAR jisx0208_3158
ENCODING 12632
SWIDTH 960 0
DWIDTH 24 0
BBX 24 24 0 -2
BITMAP
000000
000000
3FEFFC
3FEFFC
330C0C
330C0C
3FEC0C
330C0C
330C0C
3FEFFC
330FFC
330CCC
330CCC
3FECC0
3FEC60
006C60
556C60
556C30
547830
507818
40D81C
0FF00E
079004
000000
ENDCHAR

STARTCHAR jisx0208_3159
ENCODING 12633
SWIDTH 960 0
DWIDTH 24 0
BBX 24 24 0 -2
BITMAP
000000
0C1010
0C3818
0C1C38
0D0C30
2F0860
3DBFFC
3DBFFC
3D300C
6C300C
6C300C
6C300C
2C3FFC
0C3FFC
0C0660
0C0660
0C0660
0C0C60
0C0C64
0C1866
0C3866
0CF07E
0C603C
000000
ENDCHAR

ENDFONT
